<svg width="77" height="28" viewBox="0 0 77 28" fill="none" xmlns="http://www.w3.org/2000/svg">
<path d="M0.818359 28V0.273438H10.3208C13.4565 0.273438 15.8433 0.901855 17.481 2.15869C19.1187 3.41553 19.9375 5.28809 19.9375 7.77637C19.9375 9.0459 19.5947 10.1885 18.9092 11.2041C18.2236 12.2197 17.2207 13.0068 15.9004 13.5654C17.3984 13.9717 18.5537 14.7397 19.3662 15.8696C20.1914 16.9868 20.604 18.3325 20.604 19.9067C20.604 22.5093 19.7661 24.5088 18.0903 25.9053C16.4272 27.3018 14.0405 28 10.9302 28H0.818359ZM5.63623 15.4888V24.1533H10.9873C12.498 24.1533 13.6787 23.7788 14.5293 23.0298C15.3799 22.2808 15.8052 21.2397 15.8052 19.9067C15.8052 17.0249 14.3325 15.5522 11.3872 15.4888H5.63623ZM5.63623 11.9468H10.3589C11.8569 11.9468 13.0249 11.6104 13.8628 10.9375C14.7134 10.252 15.1387 9.28711 15.1387 8.04297C15.1387 6.67188 14.7451 5.68164 13.958 5.07227C13.1836 4.46289 11.9712 4.1582 10.3208 4.1582H5.63623V11.9468ZM27.5669 28V0.273438H37.0693C40.2051 0.273438 42.5918 0.901855 44.2295 2.15869C45.8672 3.41553 46.686 5.28809 46.686 7.77637C46.686 9.0459 46.3432 10.1885 45.6577 11.2041C44.9721 12.2197 43.9692 13.0068 42.6489 13.5654C44.147 13.9717 45.3022 14.7397 46.1147 15.8696C46.9399 16.9868 47.3525 18.3325 47.3525 19.9067C47.3525 22.5093 46.5146 24.5088 44.8388 25.9053C43.1758 27.3018 40.789 28 37.6787 28H27.5669ZM32.3847 15.4888V24.1533H37.7358C39.2466 24.1533 40.4272 23.7788 41.2778 23.0298C42.1284 22.2808 42.5537 21.2397 42.5537 19.9067C42.5537 17.0249 41.081 15.5522 38.1357 15.4888H32.3847ZM32.3847 11.9468H37.1074C38.6054 11.9468 39.7734 11.6104 40.6113 10.9375C41.4619 10.252 41.8872 9.28711 41.8872 8.04297C41.8872 6.67188 41.4936 5.68164 40.7065 5.07227C39.9321 4.46289 38.7197 4.1582 37.0693 4.1582H32.3847V11.9468ZM76.31 28H71.4921L59.1333 8.32861V28H54.3154V0.273438H59.1333L71.5302 20.021V0.273438H76.31V28Z" fill="white"/>
</svg>
