<svg width="250" height="35" viewBox="0 0 250 35" fill="none" xmlns="http://www.w3.org/2000/svg">
<path d="M12.8852 16.3528C12.7685 16.4111 12.7685 16.4695 12.8852 16.5278C14.7326 17.4807 15.6564 19.0656 15.6564 21.2826C15.6564 23.1689 15.0146 24.5983 13.7311 25.5706C12.4476 26.5235 10.7654 27 8.6846 27H1.12945C1.03221 27 0.944699 26.9708 0.866911 26.9125C0.808571 26.8347 0.7794 26.7472 0.7794 26.65V6.9307C0.7794 6.83347 0.808571 6.75568 0.866911 6.69734C0.944699 6.61955 1.03221 6.58066 1.12945 6.58066H8.45124C13.0602 6.58066 15.3646 8.44757 15.3646 12.1814C15.3646 14.1261 14.5381 15.5165 12.8852 16.3528ZM5.03829 10.1103C4.94106 10.1103 4.89244 10.1589 4.89244 10.2561V14.8067C4.89244 14.904 4.94106 14.9526 5.03829 14.9526H8.45124C9.36525 14.9526 10.0751 14.7387 10.5807 14.3108C11.0863 13.883 11.3391 13.2996 11.3391 12.5606C11.3391 11.8022 11.0863 11.209 10.5807 10.7812C10.0751 10.3339 9.36525 10.1103 8.45124 10.1103H5.03829ZM8.6846 23.4412C9.57917 23.4412 10.2793 23.2176 10.7849 22.7703C11.2905 22.3036 11.5433 21.6715 11.5433 20.8742C11.5433 20.0769 11.2905 19.4546 10.7849 19.0073C10.2793 18.5406 9.56944 18.3072 8.65543 18.3072H5.03829C4.94106 18.3072 4.89244 18.3558 4.89244 18.453V23.2953C4.89244 23.3926 4.94106 23.4412 5.03829 23.4412H8.6846ZM30.0992 16.3528C29.9825 16.4111 29.9825 16.4695 30.0992 16.5278C31.9466 17.4807 32.8704 19.0656 32.8704 21.2826C32.8704 23.1689 32.2286 24.5983 30.9451 25.5706C29.6616 26.5235 27.9794 27 25.8986 27H18.3435C18.2462 27 18.1587 26.9708 18.0809 26.9125C18.0226 26.8347 17.9934 26.7472 17.9934 26.65V6.9307C17.9934 6.83347 18.0226 6.75568 18.0809 6.69734C18.1587 6.61955 18.2462 6.58066 18.3435 6.58066H25.6652C30.2742 6.58066 32.5787 8.44757 32.5787 12.1814C32.5787 14.1261 31.7522 15.5165 30.0992 16.3528ZM22.2523 10.1103C22.1551 10.1103 22.1064 10.1589 22.1064 10.2561V14.8067C22.1064 14.904 22.1551 14.9526 22.2523 14.9526H25.6652C26.5793 14.9526 27.2891 14.7387 27.7947 14.3108C28.3003 13.883 28.5531 13.2996 28.5531 12.5606C28.5531 11.8022 28.3003 11.209 27.7947 10.7812C27.2891 10.3339 26.5793 10.1103 25.6652 10.1103H22.2523ZM25.8986 23.4412C26.7932 23.4412 27.4933 23.2176 27.9989 22.7703C28.5045 22.3036 28.7573 21.6715 28.7573 20.8742C28.7573 20.0769 28.5045 19.4546 27.9989 19.0073C27.4933 18.5406 26.7835 18.3072 25.8694 18.3072H22.2523C22.1551 18.3072 22.1064 18.3558 22.1064 18.453V23.2953C22.1064 23.3926 22.1551 23.4412 22.2523 23.4412H25.8986ZM46.934 6.9307C46.934 6.83347 46.9631 6.75568 47.0215 6.69734C47.0993 6.61955 47.1868 6.58066 47.284 6.58066H50.6969C50.7942 6.58066 50.872 6.61955 50.9303 6.69734C51.0081 6.75568 51.047 6.83347 51.047 6.9307V26.65C51.047 26.7472 51.0081 26.8347 50.9303 26.9125C50.872 26.9708 50.7942 27 50.6969 27H47.4007C47.2062 27 47.0701 26.9222 46.9923 26.7666L39.4371 14.2817C39.3982 14.2233 39.3593 14.2039 39.3205 14.2233C39.2816 14.2233 39.2621 14.2622 39.2621 14.34L39.3205 26.65C39.3205 26.7472 39.2816 26.8347 39.2038 26.9125C39.1454 26.9708 39.0676 27 38.9704 27H35.5575C35.4602 27 35.3727 26.9708 35.2949 26.9125C35.2366 26.8347 35.2074 26.7472 35.2074 26.65V6.9307C35.2074 6.83347 35.2366 6.75568 35.2949 6.69734C35.3727 6.61955 35.4602 6.58066 35.5575 6.58066H38.8537C39.0482 6.58066 39.1843 6.65844 39.2621 6.81402L46.7881 19.2406C46.827 19.299 46.8659 19.3282 46.9048 19.3282C46.9437 19.3087 46.9631 19.2601 46.9631 19.1823L46.934 6.9307ZM71.6774 27C71.4829 27 71.3565 26.9028 71.2982 26.7083L70.423 23.8496C70.3841 23.7718 70.3355 23.7329 70.2772 23.7329H63.1012C63.0429 23.7329 62.9943 23.7718 62.9554 23.8496L62.1094 26.7083C62.0511 26.9028 61.9247 27 61.7302 27H58.0256C57.9089 27 57.8214 26.9708 57.763 26.9125C57.7047 26.8347 57.695 26.7277 57.7339 26.5916L64.0347 6.87236C64.093 6.67789 64.2194 6.58066 64.4139 6.58066H68.9937C69.1882 6.58066 69.3146 6.67789 69.3729 6.87236L75.6737 26.5916C75.6932 26.6305 75.7029 26.6791 75.7029 26.7375C75.7029 26.9125 75.5959 27 75.382 27H71.6774ZM64.0055 20.3783C63.9861 20.495 64.025 20.5533 64.1222 20.5533H69.2562C69.3729 20.5533 69.4118 20.495 69.3729 20.3783L66.7476 11.7147C66.7281 11.6369 66.6989 11.6077 66.66 11.6272C66.6211 11.6272 66.592 11.6563 66.5725 11.7147L64.0055 20.3783ZM85.9504 6.9307C85.9504 6.83347 85.9796 6.75568 86.0379 6.69734C86.1157 6.61955 86.2032 6.58066 86.3004 6.58066H89.7134C89.8106 6.58066 89.8884 6.61955 89.9468 6.69734C90.0245 6.75568 90.0634 6.83347 90.0634 6.9307V26.65C90.0634 26.7472 90.0245 26.8347 89.9468 26.9125C89.8884 26.9708 89.8106 27 89.7134 27H86.3004C86.2032 27 86.1157 26.9708 86.0379 26.9125C85.9796 26.8347 85.9504 26.7472 85.9504 26.65V25.6873C85.9504 25.629 85.9309 25.5998 85.8921 25.5998C85.8532 25.5804 85.8143 25.5901 85.7754 25.629C84.9586 26.6986 83.8404 27.2334 82.4208 27.2334C81.0595 27.2334 79.8829 26.8541 78.8911 26.0957C77.9188 25.3373 77.2187 24.2969 76.7909 22.9745C76.4603 21.9632 76.295 20.7867 76.295 19.4448C76.295 18.0641 76.47 16.8584 76.82 15.8277C77.2673 14.5831 77.9674 13.601 78.9203 12.8815C79.8927 12.1425 81.0886 11.773 82.5083 11.773C83.9085 11.773 84.9975 12.2592 85.7754 13.2315C85.8143 13.2899 85.8532 13.3093 85.8921 13.2899C85.9309 13.2704 85.9504 13.2315 85.9504 13.1732V6.9307ZM85.3378 22.4494C85.7268 21.7299 85.9212 20.7478 85.9212 19.5032C85.9212 18.2002 85.7073 17.1793 85.2795 16.4403C84.8322 15.6818 84.1807 15.3026 83.3251 15.3026C82.411 15.3026 81.7207 15.6818 81.2539 16.4403C80.7678 17.1987 80.5247 18.2294 80.5247 19.5324C80.5247 20.6992 80.7289 21.6715 81.1373 22.4494C81.6234 23.2856 82.343 23.7037 83.2959 23.7037C84.171 23.7037 84.8516 23.2856 85.3378 22.4494ZM108.919 11.773C110.436 11.773 111.623 12.23 112.478 13.144C113.334 14.058 113.762 15.3415 113.762 16.9945V26.65C113.762 26.7472 113.723 26.8347 113.645 26.9125C113.587 26.9708 113.509 27 113.412 27H109.999C109.901 27 109.814 26.9708 109.736 26.9125C109.678 26.8347 109.649 26.7472 109.649 26.65V17.8988C109.649 17.1015 109.444 16.4695 109.036 16.0027C108.628 15.536 108.083 15.3026 107.403 15.3026C106.722 15.3026 106.168 15.536 105.74 16.0027C105.312 16.4695 105.098 17.0918 105.098 17.8696V26.65C105.098 26.7472 105.059 26.8347 104.981 26.9125C104.923 26.9708 104.845 27 104.748 27H101.364C101.267 27 101.18 26.9708 101.102 26.9125C101.043 26.8347 101.014 26.7472 101.014 26.65V17.8988C101.014 17.1209 100.8 16.4986 100.372 16.0319C99.9446 15.5457 99.3904 15.3026 98.7097 15.3026C98.0874 15.3026 97.5624 15.4874 97.1345 15.8569C96.7262 16.2264 96.4831 16.7417 96.4053 17.4029V26.65C96.4053 26.7472 96.3664 26.8347 96.2886 26.9125C96.2303 26.9708 96.1525 27 96.0552 27H92.6423C92.5451 27 92.4575 26.9708 92.3798 26.9125C92.3214 26.8347 92.2922 26.7472 92.2922 26.65V12.3564C92.2922 12.2592 92.3214 12.1814 92.3798 12.123C92.4575 12.0453 92.5451 12.0064 92.6423 12.0064H96.0552C96.1525 12.0064 96.2303 12.0453 96.2886 12.123C96.3664 12.1814 96.4053 12.2592 96.4053 12.3564V13.4941C96.4053 13.5524 96.4247 13.5913 96.4636 13.6107C96.5025 13.6302 96.5414 13.6107 96.5803 13.5524C97.3776 12.3661 98.6125 11.773 100.285 11.773C101.257 11.773 102.103 11.9772 102.823 12.3856C103.562 12.794 104.126 13.3774 104.515 14.1358C104.573 14.2525 104.641 14.2525 104.719 14.1358C105.147 13.3385 105.72 12.7454 106.44 12.3564C107.179 11.9675 108.005 11.773 108.919 11.773ZM117.99 10.3145C117.329 10.3145 116.775 10.1006 116.328 9.67273C115.9 9.22545 115.686 8.67121 115.686 8.01001C115.686 7.32936 115.9 6.77513 116.328 6.34729C116.755 5.91946 117.31 5.70554 117.99 5.70554C118.671 5.70554 119.225 5.91946 119.653 6.34729C120.081 6.77513 120.295 7.32936 120.295 8.01001C120.295 8.67121 120.071 9.22545 119.624 9.67273C119.196 10.1006 118.652 10.3145 117.99 10.3145ZM116.24 27C116.143 27 116.055 26.9708 115.978 26.9125C115.919 26.8347 115.89 26.7472 115.89 26.65V12.3272C115.89 12.23 115.919 12.1522 115.978 12.0939C116.055 12.0161 116.143 11.9772 116.24 11.9772H119.653C119.75 11.9772 119.828 12.0161 119.886 12.0939C119.964 12.1522 120.003 12.23 120.003 12.3272V26.65C120.003 26.7472 119.964 26.8347 119.886 26.9125C119.828 26.9708 119.75 27 119.653 27H116.24ZM130.151 11.773C131.707 11.773 132.961 12.2495 133.914 13.2024C134.867 14.1553 135.343 15.4485 135.343 17.082V26.65C135.343 26.7472 135.304 26.8347 135.227 26.9125C135.168 26.9708 135.091 27 134.993 27H131.58C131.483 27 131.396 26.9708 131.318 26.9125C131.259 26.8347 131.23 26.7472 131.23 26.65V17.928C131.23 17.1501 131.007 16.5181 130.559 16.0319C130.132 15.5457 129.558 15.3026 128.838 15.3026C128.119 15.3026 127.535 15.5457 127.088 16.0319C126.66 16.5181 126.446 17.1501 126.446 17.928V26.65C126.446 26.7472 126.407 26.8347 126.33 26.9125C126.271 26.9708 126.194 27 126.096 27H122.683C122.586 27 122.499 26.9708 122.421 26.9125C122.362 26.8347 122.333 26.7472 122.333 26.65V12.3564C122.333 12.2592 122.362 12.1814 122.421 12.123C122.499 12.0453 122.586 12.0064 122.683 12.0064H126.096C126.194 12.0064 126.271 12.0453 126.33 12.123C126.407 12.1814 126.446 12.2592 126.446 12.3564V13.3774C126.446 13.4357 126.466 13.4746 126.505 13.4941C126.544 13.5135 126.573 13.5038 126.592 13.4649C127.39 12.337 128.576 11.773 130.151 11.773Z" fill="white"/>
</svg>
