<svg width="250" height="35" viewBox="0 0 250 35" fill="none" xmlns="http://www.w3.org/2000/svg">
<path d="M13.8852 18.3528C13.7685 18.4111 13.7685 18.4695 13.8852 18.5278C15.7326 19.4807 16.6564 21.0656 16.6564 23.2826C16.6564 25.1689 16.0146 26.5983 14.7311 27.5706C13.4476 28.5235 11.7654 29 9.6846 29H2.12945C2.03221 29 1.9447 28.9708 1.86691 28.9125C1.80857 28.8347 1.7794 28.7472 1.7794 28.65V8.9307C1.7794 8.83347 1.80857 8.75568 1.86691 8.69734C1.9447 8.61955 2.03221 8.58066 2.12945 8.58066H9.45124C14.0602 8.58066 16.3646 10.4476 16.3646 14.1814C16.3646 16.1261 15.5381 17.5165 13.8852 18.3528ZM6.03829 12.1103C5.94106 12.1103 5.89244 12.1589 5.89244 12.2561V16.8067C5.89244 16.904 5.94106 16.9526 6.03829 16.9526H9.45124C10.3652 16.9526 11.0751 16.7387 11.5807 16.3108C12.0863 15.883 12.3391 15.2996 12.3391 14.5606C12.3391 13.8022 12.0863 13.209 11.5807 12.7812C11.0751 12.3339 10.3652 12.1103 9.45124 12.1103H6.03829ZM9.6846 25.4412C10.5792 25.4412 11.2793 25.2176 11.7849 24.7703C12.2905 24.3036 12.5433 23.6715 12.5433 22.8742C12.5433 22.0769 12.2905 21.4546 11.7849 21.0073C11.2793 20.5406 10.5694 20.3072 9.65543 20.3072H6.03829C5.94106 20.3072 5.89244 20.3558 5.89244 20.453V25.2953C5.89244 25.3926 5.94106 25.4412 6.03829 25.4412H9.6846ZM31.0992 18.3528C30.9825 18.4111 30.9825 18.4695 31.0992 18.5278C32.9466 19.4807 33.8704 21.0656 33.8704 23.2826C33.8704 25.1689 33.2286 26.5983 31.9451 27.5706C30.6616 28.5235 28.9794 29 26.8986 29H19.3435C19.2462 29 19.1587 28.9708 19.0809 28.9125C19.0226 28.8347 18.9934 28.7472 18.9934 28.65V8.9307C18.9934 8.83347 19.0226 8.75568 19.0809 8.69734C19.1587 8.61955 19.2462 8.58066 19.3435 8.58066H26.6652C31.2742 8.58066 33.5787 10.4476 33.5787 14.1814C33.5787 16.1261 32.7522 17.5165 31.0992 18.3528ZM23.2523 12.1103C23.1551 12.1103 23.1064 12.1589 23.1064 12.2561V16.8067C23.1064 16.904 23.1551 16.9526 23.2523 16.9526H26.6652C27.5793 16.9526 28.2891 16.7387 28.7947 16.3108C29.3003 15.883 29.5531 15.2996 29.5531 14.5606C29.5531 13.8022 29.3003 13.209 28.7947 12.7812C28.2891 12.3339 27.5793 12.1103 26.6652 12.1103H23.2523ZM26.8986 25.4412C27.7932 25.4412 28.4933 25.2176 28.9989 24.7703C29.5045 24.3036 29.7573 23.6715 29.7573 22.8742C29.7573 22.0769 29.5045 21.4546 28.9989 21.0073C28.4933 20.5406 27.7835 20.3072 26.8694 20.3072H23.2523C23.1551 20.3072 23.1064 20.3558 23.1064 20.453V25.2953C23.1064 25.3926 23.1551 25.4412 23.2523 25.4412H26.8986ZM47.934 8.9307C47.934 8.83347 47.9631 8.75568 48.0215 8.69734C48.0993 8.61955 48.1868 8.58066 48.284 8.58066H51.6969C51.7942 8.58066 51.872 8.61955 51.9303 8.69734C52.0081 8.75568 52.047 8.83347 52.047 8.9307V28.65C52.047 28.7472 52.0081 28.8347 51.9303 28.9125C51.872 28.9708 51.7942 29 51.6969 29H48.4007C48.2062 29 48.0701 28.9222 47.9923 28.7666L40.4371 16.2817C40.3982 16.2233 40.3593 16.2039 40.3205 16.2233C40.2816 16.2233 40.2621 16.2622 40.2621 16.34L40.3205 28.65C40.3205 28.7472 40.2816 28.8347 40.2038 28.9125C40.1454 28.9708 40.0676 29 39.9704 29H36.5575C36.4602 29 36.3727 28.9708 36.2949 28.9125C36.2366 28.8347 36.2074 28.7472 36.2074 28.65V8.9307C36.2074 8.83347 36.2366 8.75568 36.2949 8.69734C36.3727 8.61955 36.4602 8.58066 36.5575 8.58066H39.8537C40.0482 8.58066 40.1843 8.65844 40.2621 8.81402L47.7881 21.2406C47.827 21.299 47.8659 21.3282 47.9048 21.3282C47.9437 21.3087 47.9631 21.2601 47.9631 21.1823L47.934 8.9307ZM72.6774 29C72.4829 29 72.3565 28.9028 72.2982 28.7083L71.423 25.8496C71.3841 25.7718 71.3355 25.7329 71.2772 25.7329H64.1012C64.0429 25.7329 63.9943 25.7718 63.9554 25.8496L63.1094 28.7083C63.0511 28.9028 62.9247 29 62.7302 29H59.0256C58.9089 29 58.8214 28.9708 58.763 28.9125C58.7047 28.8347 58.695 28.7277 58.7339 28.5916L65.0347 8.87236C65.093 8.67789 65.2194 8.58066 65.4139 8.58066H69.9937C70.1882 8.58066 70.3146 8.67789 70.3729 8.87236L76.6737 28.5916C76.6932 28.6305 76.7029 28.6791 76.7029 28.7375C76.7029 28.9125 76.5959 29 76.382 29H72.6774ZM65.0055 22.3783C64.9861 22.495 65.025 22.5533 65.1222 22.5533H70.2562C70.3729 22.5533 70.4118 22.495 70.3729 22.3783L67.7476 13.7147C67.7281 13.6369 67.6989 13.6077 67.66 13.6272C67.6211 13.6272 67.592 13.6563 67.5725 13.7147L65.0055 22.3783ZM86.9504 8.9307C86.9504 8.83347 86.9796 8.75568 87.0379 8.69734C87.1157 8.61955 87.2032 8.58066 87.3004 8.58066H90.7134C90.8106 8.58066 90.8884 8.61955 90.9468 8.69734C91.0245 8.75568 91.0634 8.83347 91.0634 8.9307V28.65C91.0634 28.7472 91.0245 28.8347 90.9468 28.9125C90.8884 28.9708 90.8106 29 90.7134 29H87.3004C87.2032 29 87.1157 28.9708 87.0379 28.9125C86.9796 28.8347 86.9504 28.7472 86.9504 28.65V27.6873C86.9504 27.629 86.9309 27.5998 86.8921 27.5998C86.8532 27.5804 86.8143 27.5901 86.7754 27.629C85.9586 28.6986 84.8404 29.2334 83.4208 29.2334C82.0595 29.2334 80.8829 28.8541 79.8911 28.0957C78.9188 27.3373 78.2187 26.2969 77.7909 24.9745C77.4603 23.9632 77.295 22.7867 77.295 21.4448C77.295 20.0641 77.47 18.8584 77.82 17.8277C78.2673 16.5831 78.9674 15.601 79.9203 14.8815C80.8927 14.1425 82.0886 13.773 83.5083 13.773C84.9085 13.773 85.9975 14.2592 86.7754 15.2315C86.8143 15.2899 86.8532 15.3093 86.8921 15.2899C86.9309 15.2704 86.9504 15.2315 86.9504 15.1732V8.9307ZM86.3378 24.4494C86.7268 23.7299 86.9212 22.7478 86.9212 21.5032C86.9212 20.2002 86.7073 19.1793 86.2795 18.4403C85.8322 17.6818 85.1807 17.3026 84.3251 17.3026C83.411 17.3026 82.7207 17.6818 82.2539 18.4403C81.7678 19.1987 81.5247 20.2294 81.5247 21.5324C81.5247 22.6992 81.7289 23.6715 82.1373 24.4494C82.6234 25.2856 83.343 25.7037 84.2959 25.7037C85.171 25.7037 85.8516 25.2856 86.3378 24.4494ZM109.919 13.773C111.436 13.773 112.623 14.23 113.478 15.144C114.334 16.058 114.762 17.3415 114.762 18.9945V28.65C114.762 28.7472 114.723 28.8347 114.645 28.9125C114.587 28.9708 114.509 29 114.412 29H110.999C110.901 29 110.814 28.9708 110.736 28.9125C110.678 28.8347 110.649 28.7472 110.649 28.65V19.8988C110.649 19.1015 110.444 18.4695 110.036 18.0027C109.628 17.536 109.083 17.3026 108.403 17.3026C107.722 17.3026 107.168 17.536 106.74 18.0027C106.312 18.4695 106.098 19.0918 106.098 19.8696V28.65C106.098 28.7472 106.059 28.8347 105.981 28.9125C105.923 28.9708 105.845 29 105.748 29H102.364C102.267 29 102.18 28.9708 102.102 28.9125C102.043 28.8347 102.014 28.7472 102.014 28.65V19.8988C102.014 19.1209 101.8 18.4986 101.372 18.0319C100.945 17.5457 100.39 17.3026 99.7097 17.3026C99.0874 17.3026 98.5624 17.4874 98.1345 17.8569C97.7262 18.2264 97.4831 18.7417 97.4053 19.4029V28.65C97.4053 28.7472 97.3664 28.8347 97.2886 28.9125C97.2303 28.9708 97.1525 29 97.0552 29H93.6423C93.5451 29 93.4575 28.9708 93.3798 28.9125C93.3214 28.8347 93.2922 28.7472 93.2922 28.65V14.3564C93.2922 14.2592 93.3214 14.1814 93.3798 14.123C93.4575 14.0453 93.5451 14.0064 93.6423 14.0064H97.0552C97.1525 14.0064 97.2303 14.0453 97.2886 14.123C97.3664 14.1814 97.4053 14.2592 97.4053 14.3564V15.4941C97.4053 15.5524 97.4247 15.5913 97.4636 15.6107C97.5025 15.6302 97.5414 15.6107 97.5803 15.5524C98.3776 14.3661 99.6125 13.773 101.285 13.773C102.257 13.773 103.103 13.9772 103.823 14.3856C104.562 14.794 105.126 15.3774 105.515 16.1358C105.573 16.2525 105.641 16.2525 105.719 16.1358C106.147 15.3385 106.72 14.7454 107.44 14.3564C108.179 13.9675 109.005 13.773 109.919 13.773ZM118.99 12.3145C118.329 12.3145 117.775 12.1006 117.328 11.6727C116.9 11.2254 116.686 10.6712 116.686 10.01C116.686 9.32936 116.9 8.77513 117.328 8.34729C117.755 7.91946 118.31 7.70554 118.99 7.70554C119.671 7.70554 120.225 7.91946 120.653 8.34729C121.081 8.77513 121.295 9.32936 121.295 10.01C121.295 10.6712 121.071 11.2254 120.624 11.6727C120.196 12.1006 119.652 12.3145 118.99 12.3145ZM117.24 29C117.143 29 117.055 28.9708 116.978 28.9125C116.919 28.8347 116.89 28.7472 116.89 28.65V14.3272C116.89 14.23 116.919 14.1522 116.978 14.0939C117.055 14.0161 117.143 13.9772 117.24 13.9772H120.653C120.75 13.9772 120.828 14.0161 120.886 14.0939C120.964 14.1522 121.003 14.23 121.003 14.3272V28.65C121.003 28.7472 120.964 28.8347 120.886 28.9125C120.828 28.9708 120.75 29 120.653 29H117.24ZM131.151 13.773C132.707 13.773 133.961 14.2495 134.914 15.2024C135.867 16.1553 136.343 17.4485 136.343 19.082V28.65C136.343 28.7472 136.304 28.8347 136.227 28.9125C136.168 28.9708 136.091 29 135.993 29H132.58C132.483 29 132.396 28.9708 132.318 28.9125C132.259 28.8347 132.23 28.7472 132.23 28.65V19.928C132.23 19.1501 132.007 18.5181 131.559 18.0319C131.132 17.5457 130.558 17.3026 129.838 17.3026C129.119 17.3026 128.535 17.5457 128.088 18.0319C127.66 18.5181 127.446 19.1501 127.446 19.928V28.65C127.446 28.7472 127.407 28.8347 127.33 28.9125C127.271 28.9708 127.194 29 127.096 29H123.683C123.586 29 123.499 28.9708 123.421 28.9125C123.362 28.8347 123.333 28.7472 123.333 28.65V14.3564C123.333 14.2592 123.362 14.1814 123.421 14.123C123.499 14.0453 123.586 14.0064 123.683 14.0064H127.096C127.194 14.0064 127.271 14.0453 127.33 14.123C127.407 14.1814 127.446 14.2592 127.446 14.3564V15.3774C127.446 15.4357 127.466 15.4746 127.505 15.4941C127.544 15.5135 127.573 15.5038 127.592 15.4649C128.39 14.337 129.576 13.773 131.151 13.773Z" fill="white"/>
</svg>
