<svg width="151" height="32" viewBox="0 0 151 32" fill="none" xmlns="http://www.w3.org/2000/svg">
    <path id="BBN Admin" d="M17.0512 16.685C16.9272 16.747 16.9272 16.809 17.0512 16.871C19.0145 17.8837 19.9962 19.568 19.9962 21.924C19.9962 23.9287 19.3142 25.4477 17.9502 26.481C16.5862 27.4937 14.7985 28 12.5872 28H4.5582C4.45486 28 4.36186 27.969 4.2792 27.907C4.2172 27.8243 4.1862 27.7313 4.1862 27.628V6.672C4.1862 6.56867 4.2172 6.486 4.2792 6.424C4.36186 6.34133 4.45486 6.3 4.5582 6.3H12.3392C17.2372 6.3 19.6862 8.284 19.6862 12.252C19.6862 14.3187 18.8079 15.7963 17.0512 16.685ZM8.7122 10.051C8.60886 10.051 8.5572 10.1027 8.5572 10.206V15.042C8.5572 15.1453 8.60886 15.197 8.7122 15.197H12.3392C13.3105 15.197 14.0649 14.9697 14.6022 14.515C15.1395 14.0603 15.4082 13.4403 15.4082 12.655C15.4082 11.849 15.1395 11.2187 14.6022 10.764C14.0649 10.2887 13.3105 10.051 12.3392 10.051H8.7122ZM12.5872 24.218C13.5379 24.218 14.2819 23.9803 14.8192 23.505C15.3565 23.009 15.6252 22.3373 15.6252 21.49C15.6252 20.6427 15.3565 19.9813 14.8192 19.506C14.2819 19.01 13.5275 18.762 12.5562 18.762H8.7122C8.60886 18.762 8.5572 18.8137 8.5572 18.917V24.063C8.5572 24.1663 8.60886 24.218 8.7122 24.218H12.5872ZM35.3448 16.685C35.2208 16.747 35.2208 16.809 35.3448 16.871C37.3082 17.8837 38.2898 19.568 38.2898 21.924C38.2898 23.9287 37.6078 25.4477 36.2438 26.481C34.8798 27.4937 33.0922 28 30.8808 28H22.8518C22.7485 28 22.6555 27.969 22.5728 27.907C22.5108 27.8243 22.4798 27.7313 22.4798 27.628V6.672C22.4798 6.56867 22.5108 6.486 22.5728 6.424C22.6555 6.34133 22.7485 6.3 22.8518 6.3H30.6328C35.5308 6.3 37.9798 8.284 37.9798 12.252C37.9798 14.3187 37.1015 15.7963 35.3448 16.685ZM27.0058 10.051C26.9025 10.051 26.8508 10.1027 26.8508 10.206V15.042C26.8508 15.1453 26.9025 15.197 27.0058 15.197H30.6328C31.6042 15.197 32.3585 14.9697 32.8958 14.515C33.4332 14.0603 33.7018 13.4403 33.7018 12.655C33.7018 11.849 33.4332 11.2187 32.8958 10.764C32.3585 10.2887 31.6042 10.051 30.6328 10.051H27.0058ZM30.8808 24.218C31.8315 24.218 32.5755 23.9803 33.1128 23.505C33.6502 23.009 33.9188 22.3373 33.9188 21.49C33.9188 20.6427 33.6502 19.9813 33.1128 19.506C32.5755 19.01 31.8212 18.762 30.8498 18.762H27.0058C26.9025 18.762 26.8508 18.8137 26.8508 18.917V24.063C26.8508 24.1663 26.9025 24.218 27.0058 24.218H30.8808ZM53.2355 6.672C53.2355 6.56867 53.2665 6.486 53.3285 6.424C53.4111 6.34133 53.5041 6.3 53.6075 6.3H57.2345C57.3378 6.3 57.4205 6.34133 57.4825 6.424C57.5651 6.486 57.6065 6.56867 57.6065 6.672V27.628C57.6065 27.7313 57.5651 27.8243 57.4825 27.907C57.4205 27.969 57.3378 28 57.2345 28H53.7315C53.5248 28 53.3801 27.9173 53.2975 27.752L45.2685 14.484C45.2271 14.422 45.1858 14.4013 45.1445 14.422C45.1031 14.422 45.0825 14.4633 45.0825 14.546L45.1445 27.628C45.1445 27.7313 45.1031 27.8243 45.0205 27.907C44.9585 27.969 44.8758 28 44.7725 28H41.1455C41.0421 28 40.9491 27.969 40.8665 27.907C40.8045 27.8243 40.7735 27.7313 40.7735 27.628V6.672C40.7735 6.56867 40.8045 6.486 40.8665 6.424C40.9491 6.34133 41.0421 6.3 41.1455 6.3H44.6485C44.8551 6.3 44.9998 6.38267 45.0825 6.548L53.0805 19.754C53.1218 19.816 53.1631 19.847 53.2045 19.847C53.2458 19.8263 53.2665 19.7747 53.2665 19.692L53.2355 6.672ZM79.5307 28C79.3241 28 79.1897 27.8967 79.1277 27.69L78.1977 24.652C78.1564 24.5693 78.1047 24.528 78.0427 24.528H70.4167C70.3547 24.528 70.3031 24.5693 70.2617 24.652L69.3627 27.69C69.3007 27.8967 69.1664 28 68.9597 28H65.0227C64.8987 28 64.8057 27.969 64.7437 27.907C64.6817 27.8243 64.6714 27.7107 64.7127 27.566L71.4087 6.61C71.4707 6.40333 71.6051 6.3 71.8117 6.3H76.6787C76.8854 6.3 77.0197 6.40333 77.0817 6.61L83.7777 27.566C83.7984 27.6073 83.8087 27.659 83.8087 27.721C83.8087 27.907 83.6951 28 83.4677 28H79.5307ZM71.3777 20.963C71.3571 21.087 71.3984 21.149 71.5017 21.149H76.9577C77.0817 21.149 77.1231 21.087 77.0817 20.963L74.2917 11.756C74.2711 11.6733 74.2401 11.6423 74.1987 11.663C74.1574 11.663 74.1264 11.694 74.1057 11.756L71.3777 20.963ZM94.6989 6.672C94.6989 6.56867 94.7299 6.486 94.7919 6.424C94.8746 6.34133 94.9676 6.3 95.0709 6.3H98.6979C98.8013 6.3 98.8839 6.34133 98.9459 6.424C99.0286 6.486 99.0699 6.56867 99.0699 6.672V27.628C99.0699 27.7313 99.0286 27.8243 98.9459 27.907C98.8839 27.969 98.8013 28 98.6979 28H95.0709C94.9676 28 94.8746 27.969 94.7919 27.907C94.7299 27.8243 94.6989 27.7313 94.6989 27.628V26.605C94.6989 26.543 94.6783 26.512 94.6369 26.512C94.5956 26.4913 94.5543 26.5017 94.5129 26.543C93.6449 27.6797 92.4566 28.248 90.9479 28.248C89.5013 28.248 88.2509 27.845 87.1969 27.039C86.1636 26.233 85.4196 25.1273 84.9649 23.722C84.6136 22.6473 84.4379 21.397 84.4379 19.971C84.4379 18.5037 84.6239 17.2223 84.9959 16.127C85.4713 14.8043 86.2153 13.7607 87.2279 12.996C88.2613 12.2107 89.5323 11.818 91.0409 11.818C92.5289 11.818 93.6863 12.3347 94.5129 13.368C94.5543 13.43 94.5956 13.4507 94.6369 13.43C94.6783 13.4093 94.6989 13.368 94.6989 13.306V6.672ZM94.0479 23.164C94.4613 22.3993 94.6679 21.3557 94.6679 20.033C94.6679 18.6483 94.4406 17.5633 93.9859 16.778C93.5106 15.972 92.8183 15.569 91.9089 15.569C90.9376 15.569 90.2039 15.972 89.7079 16.778C89.1913 17.584 88.9329 18.6793 88.9329 20.064C88.9329 21.304 89.1499 22.3373 89.5839 23.164C90.1006 24.0527 90.8653 24.497 91.8779 24.497C92.8079 24.497 93.5313 24.0527 94.0479 23.164ZM119.109 11.818C120.721 11.818 121.981 12.3037 122.891 13.275C123.8 14.2463 124.255 15.6103 124.255 17.367V27.628C124.255 27.7313 124.213 27.8243 124.131 27.907C124.069 27.969 123.986 28 123.883 28H120.256C120.152 28 120.059 27.969 119.977 27.907C119.915 27.8243 119.884 27.7313 119.884 27.628V18.328C119.884 17.4807 119.667 16.809 119.233 16.313C118.799 15.817 118.22 15.569 117.497 15.569C116.773 15.569 116.184 15.817 115.73 16.313C115.275 16.809 115.048 17.4703 115.048 18.297V27.628C115.048 27.7313 115.006 27.8243 114.924 27.907C114.862 27.969 114.779 28 114.676 28H111.08C110.976 28 110.883 27.969 110.801 27.907C110.739 27.8243 110.708 27.7313 110.708 27.628V18.328C110.708 17.5013 110.48 16.84 110.026 16.344C109.571 15.8273 108.982 15.569 108.259 15.569C107.597 15.569 107.039 15.7653 106.585 16.158C106.151 16.5507 105.892 17.0983 105.81 17.801V27.628C105.81 27.7313 105.768 27.8243 105.686 27.907C105.624 27.969 105.541 28 105.438 28H101.811C101.707 28 101.614 27.969 101.532 27.907C101.47 27.8243 101.439 27.7313 101.439 27.628V12.438C101.439 12.3347 101.47 12.252 101.532 12.19C101.614 12.1073 101.707 12.066 101.811 12.066H105.438C105.541 12.066 105.624 12.1073 105.686 12.19C105.768 12.252 105.81 12.3347 105.81 12.438V13.647C105.81 13.709 105.83 13.7503 105.872 13.771C105.913 13.7917 105.954 13.771 105.996 13.709C106.843 12.4483 108.155 11.818 109.933 11.818C110.966 11.818 111.865 12.035 112.63 12.469C113.415 12.903 114.014 13.523 114.428 14.329C114.49 14.453 114.562 14.453 114.645 14.329C115.099 13.4817 115.709 12.8513 116.474 12.438C117.259 12.0247 118.137 11.818 119.109 11.818ZM128.748 10.268C128.046 10.268 127.457 10.0407 126.981 9.586C126.527 9.11067 126.299 8.52167 126.299 7.819C126.299 7.09567 126.527 6.50667 126.981 6.052C127.436 5.59733 128.025 5.37 128.748 5.37C129.472 5.37 130.061 5.59733 130.515 6.052C130.97 6.50667 131.197 7.09567 131.197 7.819C131.197 8.52167 130.96 9.11067 130.484 9.586C130.03 10.0407 129.451 10.268 128.748 10.268ZM126.888 28C126.785 28 126.692 27.969 126.609 27.907C126.547 27.8243 126.516 27.7313 126.516 27.628V12.407C126.516 12.3037 126.547 12.221 126.609 12.159C126.692 12.0763 126.785 12.035 126.888 12.035H130.515C130.619 12.035 130.701 12.0763 130.763 12.159C130.846 12.221 130.887 12.3037 130.887 12.407V27.628C130.887 27.7313 130.846 27.8243 130.763 27.907C130.701 27.969 130.619 28 130.515 28H126.888ZM141.672 11.818C143.325 11.818 144.658 12.3243 145.671 13.337C146.683 14.3497 147.19 15.724 147.19 17.46V27.628C147.19 27.7313 147.148 27.8243 147.066 27.907C147.004 27.969 146.921 28 146.818 28H143.191C143.087 28 142.994 27.969 142.912 27.907C142.85 27.8243 142.819 27.7313 142.819 27.628V18.359C142.819 17.5323 142.581 16.8607 142.106 16.344C141.651 15.8273 141.041 15.569 140.277 15.569C139.512 15.569 138.892 15.8273 138.417 16.344C137.962 16.8607 137.735 17.5323 137.735 18.359V27.628C137.735 27.7313 137.693 27.8243 137.611 27.907C137.549 27.969 137.466 28 137.363 28H133.736C133.632 28 133.539 27.969 133.457 27.907C133.395 27.8243 133.364 27.7313 133.364 27.628V12.438C133.364 12.3347 133.395 12.252 133.457 12.19C133.539 12.1073 133.632 12.066 133.736 12.066H137.363C137.466 12.066 137.549 12.1073 137.611 12.19C137.693 12.252 137.735 12.3347 137.735 12.438V13.523C137.735 13.585 137.755 13.6263 137.797 13.647C137.838 13.6677 137.869 13.6573 137.89 13.616C138.737 12.4173 139.998 11.818 141.672 11.818Z" fill="white" />
</svg>