<svg fill="none" width="1768" height="380" xmlns="http://www.w3.org/2000/svg" viewBox="0 0 1768 250"><defs/><path d="M145.83 128.07c-1.4.7-1.4 1.4 0 2.1 22.16 11.44 33.25 30.45 33.25 57.05 0 22.64-7.7 39.79-23.1 51.45-15.4 11.44-35.59 17.15-60.55 17.15H4.78a5.12 5.12 0 01-3.15-1.05 5.12 5.12 0 01-1.05-3.15V15.02c0-1.16.35-2.1 1.05-2.8a4.35 4.35 0 013.15-1.4h87.85c55.3 0 82.95 22.4 82.95 67.2 0 23.34-9.92 40.02-29.75 50.05zm-94.15-74.9c-1.17 0-1.75.59-1.75 1.75v54.6c0 1.17.58 1.75 1.75 1.75h40.95c10.96 0 19.48-2.56 25.55-7.7 6.06-5.13 9.1-12.13 9.1-21 0-9.1-3.04-16.21-9.1-21.35-6.07-5.36-14.59-8.05-25.55-8.05H51.68zm43.75 159.95c10.73 0 19.13-2.68 25.2-8.05 6.06-5.6 9.1-13.18 9.1-22.75 0-9.56-3.04-17.03-9.1-22.4-6.07-5.6-14.59-8.4-25.55-8.4h-43.4c-1.17 0-1.75.59-1.75 1.75v58.1c0 1.17.58 1.75 1.75 1.75h43.75zm256.94-85.05c-1.4.7-1.4 1.4 0 2.1 22.16 11.44 33.25 30.45 33.25 57.05 0 22.64-7.7 39.79-23.1 51.45-15.4 11.44-35.59 17.15-60.55 17.15h-90.65a5.12 5.12 0 01-3.15-1.05 5.12 5.12 0 01-1.05-3.15V15.02c0-1.16.35-2.1 1.05-2.8a4.35 4.35 0 013.15-1.4h87.85c55.3 0 82.95 22.4 82.95 67.2 0 23.34-9.92 40.02-29.75 50.05zm-94.15-74.9c-1.17 0-1.75.59-1.75 1.75v54.6c0 1.17.58 1.75 1.75 1.75h40.95c10.96 0 19.48-2.56 25.55-7.7 6.06-5.13 9.1-12.13 9.1-21 0-9.1-3.04-16.21-9.1-21.35-6.07-5.36-14.59-8.05-25.55-8.05h-40.95zm43.75 159.95c10.73 0 19.13-2.68 25.2-8.05 6.06-5.6 9.1-13.18 9.1-22.75 0-9.56-3.04-17.03-9.1-22.4-6.07-5.6-14.59-8.4-25.55-8.4h-43.4c-1.17 0-1.75.59-1.75 1.75v58.1c0 1.17.58 1.75 1.75 1.75h43.75zm252.39-198.1c0-1.16.35-2.1 1.05-2.8a4.35 4.35 0 013.15-1.4h40.95c1.16 0 2.1.47 2.8 1.4.93.7 1.4 1.64 1.4 2.8v236.6c0 1.17-.47 2.22-1.4 3.15-.7.7-1.63 1.05-2.8 1.05h-39.55c-2.34 0-3.97-.93-4.9-2.8l-90.65-149.8c-.47-.7-.94-.93-1.4-.7-.47 0-.7.47-.7 1.4l.7 147.7c0 1.17-.47 2.22-1.4 3.15-.7.7-1.63 1.05-2.8 1.05h-40.95a5.12 5.12 0 01-3.15-1.05 5.12 5.12 0 01-1.05-3.15V15.02c0-1.16.35-2.1 1.05-2.8a4.35 4.35 0 013.15-1.4h39.55c2.33 0 3.96.94 4.9 2.8l90.3 149.1c.47.7.93 1.05 1.4 1.05.47-.23.7-.81.7-1.75l-.35-147zm271.33 0c0-1.16.35-2.1 1.05-2.8a4.35 4.35 0 013.15-1.4h40.95c1.17 0 2.1.47 2.8 1.4.93.7 1.4 1.64 1.4 2.8v236.6c0 1.17-.47 2.22-1.4 3.15-.7.7-1.63 1.05-2.8 1.05h-40.95a5.12 5.12 0 01-3.15-1.05 5.12 5.12 0 01-1.05-3.15v-96.6c0-1.16-.58-1.75-1.75-1.75h-77.35c-1.17 0-1.75.59-1.75 1.75v96.6c0 1.17-.47 2.22-1.4 3.15-.7.7-1.63 1.05-2.8 1.05h-40.95a5.12 5.12 0 01-3.15-1.05 5.12 5.12 0 01-1.05-3.15V15.02c0-1.16.35-2.1 1.05-2.8a4.35 4.35 0 013.15-1.4h40.95c1.17 0 2.1.47 2.8 1.4.93.7 1.4 1.64 1.4 2.8v94.15c0 1.17.58 1.75 1.75 1.75h77.35c1.17 0 1.75-.58 1.75-1.75V15.02zm155.38 243.6c-19.6 0-36.4-5.13-50.4-15.4-14-10.26-23.57-24.26-28.7-42-3.27-10.96-4.9-22.86-4.9-35.7 0-13.76 1.63-26.13 4.9-37.1 5.36-17.26 15.05-30.8 29.05-40.6s30.8-14.7 50.4-14.7c19.13 0 35.46 4.9 49 14.7 13.53 9.57 23.1 22.99 28.7 40.25a119.94 119.94 0 015.6 36.75c0 12.6-1.64 24.39-4.9 35.35-5.14 18.2-14.7 32.55-28.7 43.05-13.77 10.27-30.45 15.4-50.05 15.4zm0-42.35c7.7 0 14.23-2.33 19.6-7 5.36-4.66 9.21-11.08 11.55-19.25 1.86-7.46 2.8-15.63 2.8-24.5 0-9.8-.94-18.08-2.8-24.85-2.57-7.93-6.54-14.11-11.9-18.55-5.37-4.43-11.9-6.65-19.6-6.65-7.94 0-14.59 2.22-19.95 6.65-5.14 4.44-8.87 10.62-11.2 18.55-1.87 5.6-2.8 13.89-2.8 24.85 0 10.5.81 18.67 2.45 24.5 2.33 8.17 6.18 14.59 11.55 19.25 5.6 4.67 12.36 7 20.3 7zm109.07 39.55a5.1 5.1 0 01-3.15-1.05 5.12 5.12 0 01-1.05-3.15V15.02c0-1.16.35-2.1 1.05-2.8a4.34 4.34 0 013.15-1.4h40.95c1.17 0 2.1.47 2.8 1.4.93.7 1.4 1.64 1.4 2.8v236.6c0 1.17-.47 2.22-1.4 3.15-.7.7-1.63 1.05-2.8 1.05h-40.95zm182.4-240.8c0-1.16.35-2.1 1.05-2.8a4.34 4.34 0 013.15-1.4h40.95c1.17 0 2.1.47 2.8 1.4.93.7 1.4 1.64 1.4 2.8v236.6c0 1.17-.47 2.22-1.4 3.15-.7.7-1.63 1.05-2.8 1.05h-40.95a5.1 5.1 0 01-3.15-1.05 5.12 5.12 0 01-1.05-3.15v-11.55c0-.7-.23-1.05-.7-1.05-.47-.23-.93-.11-1.4.35-9.8 12.84-23.22 19.25-40.25 19.25-16.33 0-30.45-4.55-42.35-13.65-11.67-9.1-20.07-21.58-25.2-37.45-3.97-12.13-5.95-26.25-5.95-42.35 0-16.56 2.1-31.03 6.3-43.4 5.37-14.93 13.77-26.71 25.2-35.35 11.67-8.86 26.02-13.3 43.05-13.3 16.8 0 29.87 5.84 39.2 17.5.47.7.93.94 1.4.7.47-.23.7-.7.7-1.4v-74.9zm-7.35 186.2c4.67-8.63 7-20.41 7-35.35 0-15.63-2.57-27.88-7.7-36.75-5.37-9.1-13.18-13.65-23.45-13.65-10.97 0-19.25 4.55-24.85 13.65-5.83 9.1-8.75 21.47-8.75 37.1 0 14 2.45 25.67 7.35 35 5.83 10.04 14.47 15.05 25.9 15.05 10.5 0 18.67-5.01 24.5-15.05zm110.04-145.6c-7.93 0-14.58-2.56-19.95-7.7-5.13-5.36-7.7-12.01-7.7-19.95 0-8.16 2.57-14.81 7.7-19.95 5.13-5.13 11.78-7.7 19.95-7.7s14.82 2.57 19.95 7.7c5.13 5.14 7.7 11.79 7.7 19.95 0 7.94-2.68 14.59-8.05 19.95-5.13 5.14-11.67 7.7-19.6 7.7zm-21 200.2a5.1 5.1 0 01-3.15-1.05 5.12 5.12 0 01-1.05-3.15V79.77c0-1.16.35-2.1 1.05-2.8a4.34 4.34 0 013.15-1.4h40.95c1.17 0 2.1.47 2.8 1.4.93.7 1.4 1.64 1.4 2.8v171.85c0 1.17-.47 2.22-1.4 3.15-.7.7-1.63 1.05-2.8 1.05h-40.95zm166.91-182.7c18.67 0 33.72 5.72 45.15 17.15 11.43 11.44 17.15 26.95 17.15 46.55v114.8c0 1.17-.47 2.22-1.4 3.15-.7.7-1.63 1.05-2.8 1.05h-40.95a5.1 5.1 0 01-3.15-1.05 5.12 5.12 0 01-1.05-3.15V146.97c0-9.33-2.68-16.91-8.05-22.75-5.13-5.83-12.02-8.75-20.65-8.75-8.63 0-15.63 2.92-21 8.75-5.13 5.84-7.7 13.42-7.7 22.75v104.65c0 1.17-.47 2.22-1.4 3.15-.7.7-1.63 1.05-2.8 1.05h-40.95a5.1 5.1 0 01-3.15-1.05 5.12 5.12 0 01-1.05-3.15V80.12c0-1.16.35-2.1 1.05-2.8a4.34 4.34 0 013.15-1.4h40.95c1.17 0 2.1.47 2.8 1.4.93.7 1.4 1.64 1.4 2.8v12.25c0 .7.23 1.17.7 1.4.47.24.82.12 1.05-.35 9.57-13.53 23.8-20.3 42.7-20.3zm197.01 7c0-1.16.35-2.1 1.05-2.8a4.34 4.34 0 013.15-1.4h40.95c1.16 0 2.1.47 2.8 1.4.93.7 1.4 1.64 1.4 2.8v159.6c0 30.57-8.87 52.39-26.6 65.45-17.5 13.07-40.14 19.6-67.9 19.6-8.17 0-17.27-.58-27.3-1.75-2.34-.23-3.5-1.75-3.5-4.55l1.4-36.05c0-3.03 1.63-4.31 4.9-3.85 8.4 1.4 16.1 2.1 23.1 2.1 14.93 0 26.36-3.26 34.3-9.8 8.16-6.53 12.25-17.03 12.25-31.5 0-.7-.24-1.05-.7-1.05-.47-.23-.94-.11-1.4.35-8.87 9.57-21.82 14.35-38.85 14.35-15.17 0-29.17-3.61-42-10.85-12.6-7.46-21.59-19.36-26.95-35.7-3.5-10.73-5.25-24.61-5.25-41.65 0-18.2 2.1-33.01 6.3-44.45 4.9-14.23 13.18-25.66 24.85-34.3 11.66-8.63 25.2-12.95 40.6-12.95 17.96 0 31.73 5.37 41.3 16.1.46.47.93.7 1.4.7.46-.23.7-.7.7-1.4v-8.4zm-2.8 113.05c1.86-7 2.8-16.56 2.8-28.7 0-7.23-.24-12.83-.7-16.8a56.74 56.74 0 00-2.45-11.2c-2.1-6.3-5.6-11.31-10.5-15.05-4.9-3.96-10.97-5.95-18.2-5.95-7 0-12.95 1.99-17.85 5.95-4.9 3.74-8.52 8.75-10.85 15.05-3.27 7-4.9 16.45-4.9 28.35 0 13.07 1.4 22.4 4.2 28a31.61 31.61 0 0010.85 15.4c5.36 3.74 11.66 5.6 18.9 5.6 7.46 0 13.65-1.86 18.55-5.6a30.5 30.5 0 0010.15-15.05z" fill="white"/></svg>