<svg xmlns="http://www.w3.org/2000/svg" width="151" height="32" fill="none" viewBox="0 -3 151 28"><path fill="#fff" d="M12.89 11.35c-.12.06-.12.12 0 .18 1.84.95 2.77 2.54 2.77 4.75 0 1.89-.65 3.32-1.93 4.3-1.28.94-2.96 1.42-5.05 1.42H1.13a.43.43 0 0 1-.26-.09.43.43 0 0 1-.1-.26V1.93c0-.1.04-.17.1-.23a.36.36 0 0 1 .26-.12h7.32c4.61 0 6.91 1.87 6.91 5.6 0 1.95-.82 3.34-2.47 4.17ZM5.04 5.11c-.1 0-.15.05-.15.15V9.8c0 .1.05.14.15.14h3.41a3.2 3.2 0 0 0 2.13-.64c.5-.43.76-1.01.76-1.75a2.2 2.2 0 0 0-.76-1.78 3.1 3.1 0 0 0-2.13-.67H5.04Zm3.64 13.33c.9 0 1.6-.22 2.1-.67.51-.47.76-1.1.76-1.9 0-.8-.25-1.42-.76-1.86-.5-.47-1.21-.7-2.12-.7H5.04c-.1 0-.15.05-.15.14v4.85c0 .1.05.14.15.14h3.64Zm21.42-7.09c-.12.06-.12.12 0 .18 1.85.95 2.77 2.54 2.77 4.75 0 1.89-.64 3.32-1.92 4.3-1.29.94-2.97 1.42-5.05 1.42h-7.56a.43.43 0 0 1-.26-.09.43.43 0 0 1-.09-.26V1.93c0-.1.03-.17.1-.23a.36.36 0 0 1 .25-.12h7.33c4.6 0 6.9 1.87 6.9 5.6 0 1.95-.82 3.34-2.47 4.17Zm-7.85-6.24c-.1 0-.14.05-.14.15V9.8c0 .1.05.14.14.14h3.42a3.2 3.2 0 0 0 2.12-.64c.51-.43.76-1.01.76-1.75a2.2 2.2 0 0 0-.76-1.78 3.1 3.1 0 0 0-2.12-.67h-3.42Zm3.65 13.33c.9 0 1.6-.22 2.1-.67.5-.47.76-1.1.76-1.9 0-.8-.26-1.42-.76-1.86-.5-.47-1.22-.7-2.13-.7h-3.62c-.1 0-.14.05-.14.14v4.85c0 .1.05.14.14.14h3.65Zm21.03-16.5c0-.1.03-.18.1-.24a.36.36 0 0 1 .25-.12h3.42c.1 0 .17.04.23.12.08.06.12.13.12.23v19.72c0 .1-.04.18-.12.26a.32.32 0 0 1-.23.09h-3.3c-.2 0-.33-.08-.4-.23L39.43 9.28c-.04-.06-.08-.08-.12-.06-.04 0-.06.04-.06.12l.06 12.31c0 .1-.04.18-.12.26a.32.32 0 0 1-.23.09h-3.41a.43.43 0 0 1-.27-.09.43.43 0 0 1-.08-.26V1.93c0-.1.03-.17.08-.23a.36.36 0 0 1 .27-.12h3.3c.19 0 .32.08.4.23l7.53 12.43c.04.06.08.09.11.09.04-.02.06-.07.06-.15l-.03-12.25Zm22.62 0c0-.1.03-.18.09-.24a.36.36 0 0 1 .26-.12h3.41c.1 0 .18.04.23.12.08.06.12.13.12.23v19.72c0 .1-.04.18-.12.26a.32.32 0 0 1-.23.09H69.9a.43.43 0 0 1-.26-.09.43.43 0 0 1-.1-.26V13.6c0-.1-.04-.15-.14-.15h-6.44c-.1 0-.15.05-.15.15v8.05c0 .1-.04.18-.12.26a.32.32 0 0 1-.23.09h-3.41a.43.43 0 0 1-.27-.09.43.43 0 0 1-.08-.26V1.93c0-.1.03-.17.08-.23a.36.36 0 0 1 .27-.12h3.41c.1 0 .17.04.23.12.08.06.12.13.12.23v7.85c0 .1.05.14.15.14h6.44c.1 0 .15-.05.15-.14V1.93Zm12.95 20.3a6.9 6.9 0 0 1-4.2-1.29 6.41 6.41 0 0 1-2.4-3.5c-.27-.91-.4-1.9-.4-2.98 0-1.14.13-2.17.4-3.09A6.27 6.27 0 0 1 78.34 8a7.14 7.14 0 0 1 4.2-1.23c1.6 0 2.95.41 4.08 1.23a6.38 6.38 0 0 1 2.4 3.35c.3.98.46 2 .46 3.07 0 1.05-.14 2.03-.4 2.94a6.56 6.56 0 0 1-2.4 3.59 6.78 6.78 0 0 1-4.17 1.28Zm0-3.54c.64 0 1.18-.2 1.63-.58.45-.39.77-.92.96-1.6.16-.63.24-1.3.24-2.05 0-.81-.08-1.5-.24-2.07a3.24 3.24 0 0 0-.99-1.54c-.45-.37-.99-.56-1.63-.56-.66 0-1.22.19-1.66.56-.43.37-.74.88-.94 1.54a6.95 6.95 0 0 0-.23 2.07c0 .88.07 1.56.2 2.05.2.68.52 1.21.97 1.6.46.39 1.03.58 1.69.58Zm14.72 3.5c-1.3 0-2.44-.18-3.41-.55a5.31 5.31 0 0 1-2.28-1.55 3.52 3.52 0 0 1-.79-2.24v-.3c0-.1.03-.17.09-.23a.36.36 0 0 1 .26-.11h3.24c.1 0 .18.03.23.11.08.06.12.14.12.24v.03c0 .42.23.8.7 1.1.49.3 1.09.44 1.8.44.67 0 1.2-.13 1.61-.38.41-.27.62-.6.62-.99 0-.35-.18-.61-.53-.79a8.92 8.92 0 0 0-1.72-.55c-.91-.23-1.63-.46-2.16-.67a9.27 9.27 0 0 1-2.97-1.58c-.74-.62-1.11-1.51-1.11-2.68 0-1.44.55-2.58 1.66-3.41a7.2 7.2 0 0 1 4.46-1.29c1.25 0 2.34.2 3.27.61.93.4 1.65.95 2.16 1.67.52.72.79 1.53.79 2.45 0 .1-.04.18-.12.26a.32.32 0 0 1-.23.09h-3.12a.43.43 0 0 1-.27-.09.43.43 0 0 1-.08-.26c0-.43-.23-.79-.68-1.08a3 3 0 0 0-1.72-.44c-.64 0-1.16.12-1.57.35-.41.23-.61.56-.61.96 0 .4.19.68.58.88.4.2 1.08.4 2.01.61a61.73 61.73 0 0 1 1.6.44c1.39.4 2.48.93 3.27 1.57.8.65 1.2 1.58 1.2 2.8 0 1.44-.58 2.57-1.72 3.39-1.13.8-2.66 1.2-4.58 1.2Zm16.36-12.25c0 .1-.04.19-.11.27a.31.31 0 0 1-.24.08h-2.8c-.1 0-.14.05-.14.15v6.18c0 .64.12 1.12.38 1.43.27.31.7.47 1.28.47h.96c.1 0 .18.04.23.12.08.05.12.13.12.23v2.77c0 .21-.12.34-.35.38-.82.04-1.4.06-1.75.06-1.61 0-2.82-.27-3.62-.79-.8-.54-1.2-1.56-1.22-3.03v-7.82c0-.1-.05-.15-.15-.15h-1.66a.42.42 0 0 1-.26-.08.42.42 0 0 1-.09-.27v-2.6c0-.1.03-.17.09-.23a.36.36 0 0 1 .26-.11h1.66c.1 0 .15-.05.15-.15V3.4c0-.1.03-.18.09-.23a.36.36 0 0 1 .26-.12h3.27c.1 0 .17.04.23.12.08.05.12.13.12.23v3.47c0 .1.04.15.14.15h2.8c.1 0 .18.04.23.11.08.06.12.14.12.24v2.6Zm3.82-4.64c-.66 0-1.22-.2-1.66-.64-.43-.44-.64-1-.64-1.66 0-.68.21-1.23.64-1.66.43-.43.98-.64 1.66-.64.68 0 1.23.2 1.66.64.43.43.64.98.64 1.66a2.26 2.26 0 0 1-2.3 2.3ZM115.65 22a.43.43 0 0 1-.26-.09.43.43 0 0 1-.09-.26V7.33c0-.1.03-.18.09-.24a.36.36 0 0 1 .26-.11h3.41c.1 0 .18.04.24.11.07.06.11.14.11.24v14.32c0 .1-.04.18-.11.26a.31.31 0 0 1-.24.09h-3.41Zm13.91-15.23c1.56 0 2.81.48 3.76 1.43a5.24 5.24 0 0 1 1.43 3.88v9.57c0 .1-.04.18-.11.26a.31.31 0 0 1-.24.09H131a.42.42 0 0 1-.26-.09.42.42 0 0 1-.09-.26v-8.72a2.7 2.7 0 0 0-.67-1.9c-.43-.48-1-.73-1.72-.73s-1.3.25-1.75.73a2.76 2.76 0 0 0-.64 1.9v8.72c0 .1-.04.18-.12.26a.31.31 0 0 1-.23.09h-3.42a.42.42 0 0 1-.26-.09.42.42 0 0 1-.09-.26V7.35c0-.1.03-.17.1-.23a.36.36 0 0 1 .25-.11h3.42c.1 0 .17.04.23.11.08.06.12.14.12.24v1.02c0 .06.02.1.05.11.04.02.07.01.1-.03.79-1.12 1.98-1.69 3.55-1.69Zm16.42.59c0-.1.03-.18.09-.24a.36.36 0 0 1 .26-.11h3.41c.1 0 .18.04.24.11.07.06.11.14.11.24v13.3c0 2.55-.74 4.36-2.21 5.45-1.46 1.1-3.35 1.64-5.66 1.64-.68 0-1.44-.05-2.28-.15-.2-.02-.29-.15-.29-.38l.12-3c0-.26.13-.36.4-.32.7.11 1.35.17 1.93.17a4.4 4.4 0 0 0 2.86-.82c.68-.54 1.02-1.42 1.02-2.62 0-.06-.02-.09-.06-.09-.04-.02-.08 0-.11.03-.74.8-1.82 1.2-3.24 1.2a7 7 0 0 1-3.5-.9 5.16 5.16 0 0 1-2.25-2.98c-.3-.9-.44-2.05-.44-3.47 0-1.52.18-2.76.53-3.7a5.82 5.82 0 0 1 2.07-2.87 5.54 5.54 0 0 1 3.38-1.08c1.5 0 2.65.45 3.44 1.34.04.04.08.06.12.06.04-.02.06-.06.06-.11v-.7Zm-.23 9.42c.15-.58.23-1.38.23-2.4 0-.6-.02-1.06-.06-1.4a4.7 4.7 0 0 0-.2-.93 2.54 2.54 0 0 0-.88-1.25c-.4-.33-.91-.5-1.51-.5-.59 0-1.08.17-1.5.5-.4.31-.7.73-.9 1.25-.27.59-.4 1.37-.4 2.37 0 1.08.11 1.86.34 2.33.18.52.48.95.91 1.28.45.31.97.47 1.57.47.63 0 1.14-.16 1.55-.47.4-.33.7-.75.85-1.25Z"/></svg>