<svg width="250" height="35" viewBox="0 0 250 35" fill="none" xmlns="http://www.w3.org/2000/svg">
<path d="M13.8852 18.3528C13.7685 18.4111 13.7685 18.4695 13.8852 18.5278C15.7326 19.4807 16.6564 21.0656 16.6564 23.2826C16.6564 25.1689 16.0146 26.5983 14.7311 27.5706C13.4476 28.5235 11.7654 29 9.6846 29H2.12945C2.03221 29 1.9447 28.9708 1.86691 28.9125C1.80857 28.8347 1.7794 28.7472 1.7794 28.65V8.9307C1.7794 8.83347 1.80857 8.75568 1.86691 8.69734C1.9447 8.61955 2.03221 8.58066 2.12945 8.58066H9.45124C14.0602 8.58066 16.3646 10.4476 16.3646 14.1814C16.3646 16.1261 15.5381 17.5165 13.8852 18.3528ZM6.03829 12.1103C5.94106 12.1103 5.89244 12.1589 5.89244 12.2561V16.8067C5.89244 16.904 5.94106 16.9526 6.03829 16.9526H9.45124C10.3652 16.9526 11.0751 16.7387 11.5807 16.3108C12.0863 15.883 12.3391 15.2996 12.3391 14.5606C12.3391 13.8022 12.0863 13.209 11.5807 12.7812C11.0751 12.3339 10.3652 12.1103 9.45124 12.1103H6.03829ZM9.6846 25.4412C10.5792 25.4412 11.2793 25.2176 11.7849 24.7703C12.2905 24.3036 12.5433 23.6715 12.5433 22.8742C12.5433 22.0769 12.2905 21.4546 11.7849 21.0073C11.2793 20.5406 10.5694 20.3072 9.65543 20.3072H6.03829C5.94106 20.3072 5.89244 20.3558 5.89244 20.453V25.2953C5.89244 25.3926 5.94106 25.4412 6.03829 25.4412H9.6846ZM31.0992 18.3528C30.9825 18.4111 30.9825 18.4695 31.0992 18.5278C32.9466 19.4807 33.8704 21.0656 33.8704 23.2826C33.8704 25.1689 33.2286 26.5983 31.9451 27.5706C30.6616 28.5235 28.9794 29 26.8986 29H19.3435C19.2462 29 19.1587 28.9708 19.0809 28.9125C19.0226 28.8347 18.9934 28.7472 18.9934 28.65V8.9307C18.9934 8.83347 19.0226 8.75568 19.0809 8.69734C19.1587 8.61955 19.2462 8.58066 19.3435 8.58066H26.6652C31.2742 8.58066 33.5787 10.4476 33.5787 14.1814C33.5787 16.1261 32.7522 17.5165 31.0992 18.3528ZM23.2523 12.1103C23.1551 12.1103 23.1064 12.1589 23.1064 12.2561V16.8067C23.1064 16.904 23.1551 16.9526 23.2523 16.9526H26.6652C27.5793 16.9526 28.2891 16.7387 28.7947 16.3108C29.3003 15.883 29.5531 15.2996 29.5531 14.5606C29.5531 13.8022 29.3003 13.209 28.7947 12.7812C28.2891 12.3339 27.5793 12.1103 26.6652 12.1103H23.2523ZM26.8986 25.4412C27.7932 25.4412 28.4933 25.2176 28.9989 24.7703C29.5045 24.3036 29.7573 23.6715 29.7573 22.8742C29.7573 22.0769 29.5045 21.4546 28.9989 21.0073C28.4933 20.5406 27.7835 20.3072 26.8694 20.3072H23.2523C23.1551 20.3072 23.1064 20.3558 23.1064 20.453V25.2953C23.1064 25.3926 23.1551 25.4412 23.2523 25.4412H26.8986ZM47.934 8.9307C47.934 8.83347 47.9631 8.75568 48.0215 8.69734C48.0993 8.61955 48.1868 8.58066 48.284 8.58066H51.6969C51.7942 8.58066 51.872 8.61955 51.9303 8.69734C52.0081 8.75568 52.047 8.83347 52.047 8.9307V28.65C52.047 28.7472 52.0081 28.8347 51.9303 28.9125C51.872 28.9708 51.7942 29 51.6969 29H48.4007C48.2062 29 48.0701 28.9222 47.9923 28.7666L40.4371 16.2817C40.3982 16.2233 40.3593 16.2039 40.3205 16.2233C40.2816 16.2233 40.2621 16.2622 40.2621 16.34L40.3205 28.65C40.3205 28.7472 40.2816 28.8347 40.2038 28.9125C40.1454 28.9708 40.0676 29 39.9704 29H36.5575C36.4602 29 36.3727 28.9708 36.2949 28.9125C36.2366 28.8347 36.2074 28.7472 36.2074 28.65V8.9307C36.2074 8.83347 36.2366 8.75568 36.2949 8.69734C36.3727 8.61955 36.4602 8.58066 36.5575 8.58066H39.8537C40.0482 8.58066 40.1843 8.65844 40.2621 8.81402L47.7881 21.2406C47.827 21.299 47.8659 21.3282 47.9048 21.3282C47.9437 21.3087 47.9631 21.2601 47.9631 21.1823L47.934 8.9307ZM70.5479 8.9307C70.5479 8.83347 70.5771 8.75568 70.6354 8.69734C70.7132 8.61955 70.8007 8.58066 70.898 8.58066H74.3109C74.4082 8.58066 74.4859 8.61955 74.5443 8.69734C74.6221 8.75568 74.661 8.83347 74.661 8.9307V28.65C74.661 28.7472 74.6221 28.8347 74.5443 28.9125C74.4859 28.9708 74.4082 29 74.3109 29H70.898C70.8007 29 70.7132 28.9708 70.6354 28.9125C70.5771 28.8347 70.5479 28.7472 70.5479 28.65V20.5989C70.5479 20.5017 70.4993 20.453 70.4021 20.453H63.9554C63.8582 20.453 63.8095 20.5017 63.8095 20.5989V28.65C63.8095 28.7472 63.7706 28.8347 63.6929 28.9125C63.6345 28.9708 63.5567 29 63.4595 29H60.0465C59.9493 29 59.8618 28.9708 59.784 28.9125C59.7257 28.8347 59.6965 28.7472 59.6965 28.65V8.9307C59.6965 8.83347 59.7257 8.75568 59.784 8.69734C59.8618 8.61955 59.9493 8.58066 60.0465 8.58066H63.4595C63.5567 8.58066 63.6345 8.61955 63.6929 8.69734C63.7706 8.75568 63.8095 8.83347 63.8095 8.9307V16.7776C63.8095 16.8748 63.8582 16.9234 63.9554 16.9234H70.4021C70.4993 16.9234 70.5479 16.8748 70.5479 16.7776V8.9307ZM83.4976 29.2334C81.864 29.2334 80.4638 28.8055 79.297 27.9499C78.1302 27.0942 77.3329 25.9274 76.905 24.4494C76.6328 23.5354 76.4967 22.5436 76.4967 21.474C76.4967 20.3266 76.6328 19.2959 76.905 18.3819C77.3523 16.9429 78.1594 15.8149 79.3262 14.9982C80.493 14.1814 81.8932 13.773 83.5267 13.773C85.1214 13.773 86.4827 14.1814 87.6106 14.9982C88.7385 15.7955 89.5359 16.9137 90.0026 18.3528C90.3137 19.3251 90.4693 20.3461 90.4693 21.4157C90.4693 22.4658 90.3332 23.4479 90.0609 24.3619C89.6331 25.8788 88.8358 27.0747 87.6689 27.9499C86.5216 28.8055 85.1311 29.2334 83.4976 29.2334ZM83.4976 25.7037C84.1393 25.7037 84.6838 25.5093 85.1311 25.1203C85.5784 24.7314 85.8993 24.1966 86.0937 23.5159C86.2493 22.8936 86.3271 22.213 86.3271 21.474C86.3271 20.6572 86.2493 19.9669 86.0937 19.4029C85.8798 18.7417 85.5492 18.2264 85.1019 17.8569C84.6547 17.4874 84.1101 17.3026 83.4684 17.3026C82.8072 17.3026 82.253 17.4874 81.8057 17.8569C81.3778 18.2264 81.0667 18.7417 80.8722 19.4029C80.7166 19.8696 80.6389 20.56 80.6389 21.474C80.6389 22.3491 80.7069 23.0298 80.8431 23.5159C81.0375 24.1966 81.3584 24.7314 81.8057 25.1203C82.2724 25.5093 82.8364 25.7037 83.4976 25.7037ZM98.2182 29.2042C96.9152 29.2042 95.7776 29.0194 94.8052 28.65C93.8329 28.2805 93.0745 27.7651 92.5299 27.1039C92.0049 26.4427 91.7423 25.694 91.7423 24.8578V24.5661C91.7423 24.4689 91.7715 24.3911 91.8298 24.3327C91.9076 24.2549 91.9951 24.216 92.0924 24.216H95.3303C95.4275 24.216 95.5053 24.2549 95.5637 24.3327C95.6415 24.3911 95.6804 24.4689 95.6804 24.5661V24.5953C95.6804 25.0231 95.9137 25.3926 96.3804 25.7037C96.8666 25.9954 97.4695 26.1413 98.189 26.1413C98.8502 26.1413 99.385 26.0149 99.7934 25.7621C100.202 25.4898 100.406 25.1592 100.406 24.7703C100.406 24.4202 100.231 24.1577 99.8809 23.9827C99.5309 23.8077 98.9572 23.6229 98.1598 23.4284C97.2458 23.1951 96.5263 22.9714 96.0012 22.7575C94.7566 22.3297 93.7648 21.8046 93.0258 21.1823C92.2868 20.56 91.9174 19.6654 91.9174 18.4986C91.9174 17.0595 92.4716 15.9219 93.5801 15.0857C94.708 14.23 96.1957 13.8022 98.0432 13.8022C99.2878 13.8022 100.377 14.0064 101.31 14.4148C102.244 14.8037 102.963 15.3579 103.469 16.0775C103.994 16.797 104.256 17.6138 104.256 18.5278C104.256 18.625 104.218 18.7125 104.14 18.7903C104.081 18.8487 104.004 18.8778 103.906 18.8778H100.785C100.688 18.8778 100.6 18.8487 100.523 18.7903C100.464 18.7125 100.435 18.625 100.435 18.5278C100.435 18.1 100.211 17.7402 99.7642 17.4485C99.3364 17.1568 98.7627 17.0109 98.0432 17.0109C97.4014 17.0109 96.8763 17.1276 96.468 17.361C96.0596 17.5943 95.8554 17.9152 95.8554 18.3236C95.8554 18.7125 96.0498 19.0042 96.4388 19.1987C96.8472 19.3932 97.5181 19.5974 98.4515 19.8113C98.6655 19.8696 98.9086 19.9377 99.1808 20.0155C99.4531 20.0738 99.7448 20.1516 100.056 20.2489C101.437 20.6572 102.526 21.1823 103.323 21.8241C104.12 22.4658 104.519 23.3993 104.519 24.6244C104.519 26.0635 103.945 27.1914 102.798 28.0082C101.67 28.8055 100.143 29.2042 98.2182 29.2042ZM114.582 16.9526C114.582 17.0498 114.543 17.1373 114.465 17.2151C114.407 17.2735 114.329 17.3026 114.232 17.3026H111.432C111.334 17.3026 111.286 17.3513 111.286 17.4485V23.6326C111.286 24.2744 111.412 24.7508 111.665 25.062C111.937 25.3731 112.365 25.5287 112.949 25.5287H113.911C114.008 25.5287 114.086 25.5676 114.145 25.6454C114.222 25.7037 114.261 25.7815 114.261 25.8788V28.65C114.261 28.8639 114.145 28.9903 113.911 29.0292C113.094 29.0681 112.511 29.0875 112.161 29.0875C110.547 29.0875 109.341 28.825 108.544 28.2999C107.747 27.7554 107.338 26.7441 107.319 25.2662V17.4485C107.319 17.3513 107.27 17.3026 107.173 17.3026H105.51C105.413 17.3026 105.325 17.2735 105.248 17.2151C105.189 17.1373 105.16 17.0498 105.16 16.9526V14.3564C105.16 14.2592 105.189 14.1814 105.248 14.123C105.325 14.0453 105.413 14.0064 105.51 14.0064H107.173C107.27 14.0064 107.319 13.9578 107.319 13.8605V10.3892C107.319 10.292 107.348 10.2142 107.406 10.1559C107.484 10.0781 107.572 10.0392 107.669 10.0392H110.936C111.033 10.0392 111.111 10.0781 111.169 10.1559C111.247 10.2142 111.286 10.292 111.286 10.3892V13.8605C111.286 13.9578 111.334 14.0064 111.432 14.0064H114.232C114.329 14.0064 114.407 14.0453 114.465 14.123C114.543 14.1814 114.582 14.2592 114.582 14.3564V16.9526ZM118.4 12.3145C117.739 12.3145 117.185 12.1006 116.737 11.6727C116.31 11.2254 116.096 10.6712 116.096 10.01C116.096 9.32936 116.31 8.77513 116.737 8.34729C117.165 7.91946 117.719 7.70554 118.4 7.70554C119.081 7.70554 119.635 7.91946 120.063 8.34729C120.491 8.77513 120.705 9.32936 120.705 10.01C120.705 10.6712 120.481 11.2254 120.034 11.6727C119.606 12.1006 119.061 12.3145 118.4 12.3145ZM116.65 29C116.553 29 116.465 28.9708 116.387 28.9125C116.329 28.8347 116.3 28.7472 116.3 28.65V14.3272C116.3 14.23 116.329 14.1522 116.387 14.0939C116.465 14.0161 116.553 13.9772 116.65 13.9772H120.063C120.16 13.9772 120.238 14.0161 120.296 14.0939C120.374 14.1522 120.413 14.23 120.413 14.3272V28.65C120.413 28.7472 120.374 28.8347 120.296 28.9125C120.238 28.9708 120.16 29 120.063 29H116.65ZM130.561 13.773C132.116 13.773 133.371 14.2495 134.324 15.2024C135.277 16.1553 135.753 17.4485 135.753 19.082V28.65C135.753 28.7472 135.714 28.8347 135.636 28.9125C135.578 28.9708 135.5 29 135.403 29H131.99C131.893 29 131.805 28.9708 131.728 28.9125C131.669 28.8347 131.64 28.7472 131.64 28.65V19.928C131.64 19.1501 131.416 18.5181 130.969 18.0319C130.541 17.5457 129.968 17.3026 129.248 17.3026C128.529 17.3026 127.945 17.5457 127.498 18.0319C127.07 18.5181 126.856 19.1501 126.856 19.928V28.65C126.856 28.7472 126.817 28.8347 126.739 28.9125C126.681 28.9708 126.603 29 126.506 29H123.093C122.996 29 122.908 28.9708 122.831 28.9125C122.772 28.8347 122.743 28.7472 122.743 28.65V14.3564C122.743 14.2592 122.772 14.1814 122.831 14.123C122.908 14.0453 122.996 14.0064 123.093 14.0064H126.506C126.603 14.0064 126.681 14.0453 126.739 14.123C126.817 14.1814 126.856 14.2592 126.856 14.3564V15.3774C126.856 15.4357 126.876 15.4746 126.914 15.4941C126.953 15.5135 126.982 15.5038 127.002 15.4649C127.799 14.337 128.986 13.773 130.561 13.773ZM146.98 14.3564C146.98 14.2592 147.009 14.1814 147.068 14.123C147.145 14.0453 147.233 14.0064 147.33 14.0064H150.743C150.84 14.0064 150.918 14.0453 150.976 14.123C151.054 14.1814 151.093 14.2592 151.093 14.3564V27.6582C151.093 30.2057 150.354 32.024 148.876 33.113C147.418 34.2021 145.531 34.7466 143.217 34.7466C142.536 34.7466 141.778 34.698 140.942 34.6007C140.747 34.5813 140.65 34.4549 140.65 34.2215L140.767 31.217C140.767 30.9641 140.903 30.8572 141.175 30.8961C141.875 31.0128 142.517 31.0711 143.1 31.0711C144.345 31.0711 145.298 30.7988 145.959 30.2543C146.64 29.7098 146.98 28.8347 146.98 27.629C146.98 27.5706 146.961 27.5415 146.922 27.5415C146.883 27.522 146.844 27.5318 146.805 27.5706C146.066 28.368 144.987 28.7666 143.567 28.7666C142.303 28.7666 141.136 28.4652 140.067 27.8624C139.017 27.24 138.268 26.2483 137.821 24.887C137.529 23.9924 137.383 22.8353 137.383 21.4157C137.383 19.8988 137.558 18.6639 137.908 17.711C138.316 16.5248 139.007 15.5719 139.979 14.8523C140.952 14.1328 142.079 13.773 143.363 13.773C144.86 13.773 146.008 14.2203 146.805 15.1148C146.844 15.1537 146.883 15.1732 146.922 15.1732C146.961 15.1537 146.98 15.1148 146.98 15.0565V14.3564ZM146.747 23.7785C146.902 23.1951 146.98 22.3977 146.98 21.3865C146.98 20.7836 146.961 20.3169 146.922 19.9863C146.883 19.6557 146.815 19.3446 146.718 19.0529C146.543 18.5278 146.251 18.1097 145.842 17.7985C145.434 17.4679 144.928 17.3026 144.326 17.3026C143.742 17.3026 143.246 17.4679 142.838 17.7985C142.429 18.1097 142.128 18.5278 141.934 19.0529C141.661 19.6363 141.525 20.4239 141.525 21.4157C141.525 22.5047 141.642 23.2826 141.875 23.7493C142.05 24.2744 142.352 24.7022 142.78 25.0328C143.227 25.344 143.752 25.4995 144.355 25.4995C144.977 25.4995 145.492 25.344 145.901 25.0328C146.309 24.7022 146.591 24.2841 146.747 23.7785Z" fill="white"/>
</svg>
