<svg width="250" height="35" viewBox="0 0 250 35" fill="none" xmlns="http://www.w3.org/2000/svg">
<path d="M12.8852 16.3528C12.7685 16.4111 12.7685 16.4695 12.8852 16.5278C14.7326 17.4807 15.6564 19.0656 15.6564 21.2826C15.6564 23.1689 15.0146 24.5983 13.7311 25.5706C12.4476 26.5235 10.7654 27 8.6846 27H1.12945C1.03221 27 0.944699 26.9708 0.866911 26.9125C0.808571 26.8347 0.7794 26.7472 0.7794 26.65V6.9307C0.7794 6.83347 0.808571 6.75568 0.866911 6.69734C0.944699 6.61955 1.03221 6.58066 1.12945 6.58066H8.45124C13.0602 6.58066 15.3646 8.44757 15.3646 12.1814C15.3646 14.1261 14.5381 15.5165 12.8852 16.3528ZM5.03829 10.1103C4.94106 10.1103 4.89244 10.1589 4.89244 10.2561V14.8067C4.89244 14.904 4.94106 14.9526 5.03829 14.9526H8.45124C9.36525 14.9526 10.0751 14.7387 10.5807 14.3108C11.0863 13.883 11.3391 13.2996 11.3391 12.5606C11.3391 11.8022 11.0863 11.209 10.5807 10.7812C10.0751 10.3339 9.36525 10.1103 8.45124 10.1103H5.03829ZM8.6846 23.4412C9.57917 23.4412 10.2793 23.2176 10.7849 22.7703C11.2905 22.3036 11.5433 21.6715 11.5433 20.8742C11.5433 20.0769 11.2905 19.4546 10.7849 19.0073C10.2793 18.5406 9.56944 18.3072 8.65543 18.3072H5.03829C4.94106 18.3072 4.89244 18.3558 4.89244 18.453V23.2953C4.89244 23.3926 4.94106 23.4412 5.03829 23.4412H8.6846ZM30.0992 16.3528C29.9825 16.4111 29.9825 16.4695 30.0992 16.5278C31.9466 17.4807 32.8704 19.0656 32.8704 21.2826C32.8704 23.1689 32.2286 24.5983 30.9451 25.5706C29.6616 26.5235 27.9794 27 25.8986 27H18.3435C18.2462 27 18.1587 26.9708 18.0809 26.9125C18.0226 26.8347 17.9934 26.7472 17.9934 26.65V6.9307C17.9934 6.83347 18.0226 6.75568 18.0809 6.69734C18.1587 6.61955 18.2462 6.58066 18.3435 6.58066H25.6652C30.2742 6.58066 32.5787 8.44757 32.5787 12.1814C32.5787 14.1261 31.7522 15.5165 30.0992 16.3528ZM22.2523 10.1103C22.1551 10.1103 22.1064 10.1589 22.1064 10.2561V14.8067C22.1064 14.904 22.1551 14.9526 22.2523 14.9526H25.6652C26.5793 14.9526 27.2891 14.7387 27.7947 14.3108C28.3003 13.883 28.5531 13.2996 28.5531 12.5606C28.5531 11.8022 28.3003 11.209 27.7947 10.7812C27.2891 10.3339 26.5793 10.1103 25.6652 10.1103H22.2523ZM25.8986 23.4412C26.7932 23.4412 27.4933 23.2176 27.9989 22.7703C28.5045 22.3036 28.7573 21.6715 28.7573 20.8742C28.7573 20.0769 28.5045 19.4546 27.9989 19.0073C27.4933 18.5406 26.7835 18.3072 25.8694 18.3072H22.2523C22.1551 18.3072 22.1064 18.3558 22.1064 18.453V23.2953C22.1064 23.3926 22.1551 23.4412 22.2523 23.4412H25.8986ZM46.934 6.9307C46.934 6.83347 46.9631 6.75568 47.0215 6.69734C47.0993 6.61955 47.1868 6.58066 47.284 6.58066H50.6969C50.7942 6.58066 50.872 6.61955 50.9303 6.69734C51.0081 6.75568 51.047 6.83347 51.047 6.9307V26.65C51.047 26.7472 51.0081 26.8347 50.9303 26.9125C50.872 26.9708 50.7942 27 50.6969 27H47.4007C47.2062 27 47.0701 26.9222 46.9923 26.7666L39.4371 14.2817C39.3982 14.2233 39.3593 14.2039 39.3205 14.2233C39.2816 14.2233 39.2621 14.2622 39.2621 14.34L39.3205 26.65C39.3205 26.7472 39.2816 26.8347 39.2038 26.9125C39.1454 26.9708 39.0676 27 38.9704 27H35.5575C35.4602 27 35.3727 26.9708 35.2949 26.9125C35.2366 26.8347 35.2074 26.7472 35.2074 26.65V6.9307C35.2074 6.83347 35.2366 6.75568 35.2949 6.69734C35.3727 6.61955 35.4602 6.58066 35.5575 6.58066H38.8537C39.0482 6.58066 39.1843 6.65844 39.2621 6.81402L46.7881 19.2406C46.827 19.299 46.8659 19.3282 46.9048 19.3282C46.9437 19.3087 46.9631 19.2601 46.9631 19.1823L46.934 6.9307ZM69.5479 6.9307C69.5479 6.83347 69.5771 6.75568 69.6354 6.69734C69.7132 6.61955 69.8007 6.58066 69.898 6.58066H73.3109C73.4082 6.58066 73.4859 6.61955 73.5443 6.69734C73.6221 6.75568 73.661 6.83347 73.661 6.9307V26.65C73.661 26.7472 73.6221 26.8347 73.5443 26.9125C73.4859 26.9708 73.4082 27 73.3109 27H69.898C69.8007 27 69.7132 26.9708 69.6354 26.9125C69.5771 26.8347 69.5479 26.7472 69.5479 26.65V18.5989C69.5479 18.5017 69.4993 18.453 69.4021 18.453H62.9554C62.8582 18.453 62.8095 18.5017 62.8095 18.5989V26.65C62.8095 26.7472 62.7706 26.8347 62.6929 26.9125C62.6345 26.9708 62.5567 27 62.4595 27H59.0465C58.9493 27 58.8618 26.9708 58.784 26.9125C58.7257 26.8347 58.6965 26.7472 58.6965 26.65V6.9307C58.6965 6.83347 58.7257 6.75568 58.784 6.69734C58.8618 6.61955 58.9493 6.58066 59.0465 6.58066H62.4595C62.5567 6.58066 62.6345 6.61955 62.6929 6.69734C62.7706 6.75568 62.8095 6.83347 62.8095 6.9307V14.7776C62.8095 14.8748 62.8582 14.9234 62.9554 14.9234H69.4021C69.4993 14.9234 69.5479 14.8748 69.5479 14.7776V6.9307ZM82.4976 27.2334C80.864 27.2334 79.4638 26.8055 78.297 25.9499C77.1302 25.0942 76.3329 23.9274 75.905 22.4494C75.6328 21.5354 75.4967 20.5436 75.4967 19.474C75.4967 18.3266 75.6328 17.2959 75.905 16.3819C76.3523 14.9429 77.1594 13.8149 78.3262 12.9982C79.493 12.1814 80.8932 11.773 82.5267 11.773C84.1214 11.773 85.4827 12.1814 86.6106 12.9982C87.7385 13.7955 88.5359 14.9137 89.0026 16.3528C89.3137 17.3251 89.4693 18.3461 89.4693 19.4157C89.4693 20.4658 89.3332 21.4479 89.0609 22.3619C88.6331 23.8788 87.8358 25.0747 86.6689 25.9499C85.5216 26.8055 84.1311 27.2334 82.4976 27.2334ZM82.4976 23.7037C83.1393 23.7037 83.6838 23.5093 84.1311 23.1203C84.5784 22.7314 84.8993 22.1966 85.0937 21.5159C85.2493 20.8936 85.3271 20.213 85.3271 19.474C85.3271 18.6572 85.2493 17.9669 85.0937 17.4029C84.8798 16.7417 84.5492 16.2264 84.1019 15.8569C83.6547 15.4874 83.1101 15.3026 82.4684 15.3026C81.8072 15.3026 81.253 15.4874 80.8057 15.8569C80.3778 16.2264 80.0667 16.7417 79.8722 17.4029C79.7166 17.8696 79.6389 18.56 79.6389 19.474C79.6389 20.3491 79.7069 21.0298 79.8431 21.5159C80.0375 22.1966 80.3584 22.7314 80.8057 23.1203C81.2724 23.5093 81.8364 23.7037 82.4976 23.7037ZM91.5883 27C91.491 27 91.4035 26.9708 91.3257 26.9125C91.2674 26.8347 91.2382 26.7472 91.2382 26.65V6.9307C91.2382 6.83347 91.2674 6.75568 91.3257 6.69734C91.4035 6.61955 91.491 6.58066 91.5883 6.58066H95.0012C95.0985 6.58066 95.1762 6.61955 95.2346 6.69734C95.3124 6.75568 95.3513 6.83347 95.3513 6.9307V26.65C95.3513 26.7472 95.3124 26.8347 95.2346 26.9125C95.1762 26.9708 95.0985 27 95.0012 27H91.5883ZM106.79 6.9307C106.79 6.83347 106.819 6.75568 106.878 6.69734C106.956 6.61955 107.043 6.58066 107.14 6.58066H110.553C110.65 6.58066 110.728 6.61955 110.787 6.69734C110.864 6.75568 110.903 6.83347 110.903 6.9307V26.65C110.903 26.7472 110.864 26.8347 110.787 26.9125C110.728 26.9708 110.65 27 110.553 27H107.14C107.043 27 106.956 26.9708 106.878 26.9125C106.819 26.8347 106.79 26.7472 106.79 26.65V25.6873C106.79 25.629 106.771 25.5998 106.732 25.5998C106.693 25.5804 106.654 25.5901 106.615 25.629C105.798 26.6986 104.68 27.2334 103.261 27.2334C101.899 27.2334 100.723 26.8541 99.7309 26.0957C98.7586 25.3373 98.0585 24.2969 97.6307 22.9745C97.3001 21.9632 97.1348 20.7867 97.1348 19.4448C97.1348 18.0641 97.3098 16.8584 97.6598 15.8277C98.1071 14.5831 98.8072 13.601 99.7601 12.8815C100.732 12.1425 101.928 11.773 103.348 11.773C104.748 11.773 105.837 12.2592 106.615 13.2315C106.654 13.2899 106.693 13.3093 106.732 13.2899C106.771 13.2704 106.79 13.2315 106.79 13.1732V6.9307ZM106.178 22.4494C106.567 21.7299 106.761 20.7478 106.761 19.5032C106.761 18.2002 106.547 17.1793 106.119 16.4403C105.672 15.6818 105.021 15.3026 104.165 15.3026C103.251 15.3026 102.56 15.6818 102.094 16.4403C101.608 17.1987 101.364 18.2294 101.364 19.5324C101.364 20.6992 101.569 21.6715 101.977 22.4494C102.463 23.2856 103.183 23.7037 104.136 23.7037C105.011 23.7037 105.691 23.2856 106.178 22.4494ZM115.349 10.3145C114.688 10.3145 114.134 10.1006 113.686 9.67273C113.258 9.22545 113.045 8.67121 113.045 8.01001C113.045 7.32936 113.258 6.77513 113.686 6.34729C114.114 5.91946 114.668 5.70554 115.349 5.70554C116.03 5.70554 116.584 5.91946 117.012 6.34729C117.44 6.77513 117.653 7.32936 117.653 8.01001C117.653 8.67121 117.43 9.22545 116.983 9.67273C116.555 10.1006 116.01 10.3145 115.349 10.3145ZM113.599 27C113.502 27 113.414 26.9708 113.336 26.9125C113.278 26.8347 113.249 26.7472 113.249 26.65V12.3272C113.249 12.23 113.278 12.1522 113.336 12.0939C113.414 12.0161 113.502 11.9772 113.599 11.9772H117.012C117.109 11.9772 117.187 12.0161 117.245 12.0939C117.323 12.1522 117.362 12.23 117.362 12.3272V26.65C117.362 26.7472 117.323 26.8347 117.245 26.9125C117.187 26.9708 117.109 27 117.012 27H113.599ZM127.51 11.773C129.065 11.773 130.32 12.2495 131.273 13.2024C132.226 14.1553 132.702 15.4485 132.702 17.082V26.65C132.702 26.7472 132.663 26.8347 132.585 26.9125C132.527 26.9708 132.449 27 132.352 27H128.939C128.842 27 128.754 26.9708 128.677 26.9125C128.618 26.8347 128.589 26.7472 128.589 26.65V17.928C128.589 17.1501 128.365 16.5181 127.918 16.0319C127.49 15.5457 126.917 15.3026 126.197 15.3026C125.477 15.3026 124.894 15.5457 124.447 16.0319C124.019 16.5181 123.805 17.1501 123.805 17.928V26.65C123.805 26.7472 123.766 26.8347 123.688 26.9125C123.63 26.9708 123.552 27 123.455 27H120.042C119.945 27 119.857 26.9708 119.78 26.9125C119.721 26.8347 119.692 26.7472 119.692 26.65V12.3564C119.692 12.2592 119.721 12.1814 119.78 12.123C119.857 12.0453 119.945 12.0064 120.042 12.0064H123.455C123.552 12.0064 123.63 12.0453 123.688 12.123C123.766 12.1814 123.805 12.2592 123.805 12.3564V13.3774C123.805 13.4357 123.824 13.4746 123.863 13.4941C123.902 13.5135 123.931 13.5038 123.951 13.4649C124.748 12.337 125.934 11.773 127.51 11.773ZM143.929 12.3564C143.929 12.2592 143.958 12.1814 144.017 12.123C144.094 12.0453 144.182 12.0064 144.279 12.0064H147.692C147.789 12.0064 147.867 12.0453 147.925 12.123C148.003 12.1814 148.042 12.2592 148.042 12.3564V25.6582C148.042 28.2057 147.303 30.024 145.825 31.113C144.367 32.2021 142.48 32.7466 140.166 32.7466C139.485 32.7466 138.727 32.698 137.891 32.6007C137.696 32.5813 137.599 32.4549 137.599 32.2215L137.716 29.217C137.716 28.9641 137.852 28.8572 138.124 28.8961C138.824 29.0128 139.466 29.0711 140.049 29.0711C141.294 29.0711 142.247 28.7988 142.908 28.2543C143.589 27.7098 143.929 26.8347 143.929 25.629C143.929 25.5706 143.91 25.5415 143.871 25.5415C143.832 25.522 143.793 25.5318 143.754 25.5706C143.015 26.368 141.936 26.7666 140.516 26.7666C139.252 26.7666 138.085 26.4652 137.016 25.8624C135.965 25.24 135.217 24.2483 134.769 22.887C134.478 21.9924 134.332 20.8353 134.332 19.4157C134.332 17.8988 134.507 16.6639 134.857 15.711C135.265 14.5248 135.956 13.5719 136.928 12.8523C137.9 12.1328 139.028 11.773 140.312 11.773C141.809 11.773 142.957 12.2203 143.754 13.1148C143.793 13.1537 143.832 13.1732 143.871 13.1732C143.91 13.1537 143.929 13.1148 143.929 13.0565V12.3564ZM143.696 21.7785C143.851 21.1951 143.929 20.3977 143.929 19.3865C143.929 18.7836 143.91 18.3169 143.871 17.9863C143.832 17.6557 143.764 17.3446 143.666 17.0529C143.491 16.5278 143.2 16.1097 142.791 15.7985C142.383 15.4679 141.877 15.3026 141.275 15.3026C140.691 15.3026 140.195 15.4679 139.787 15.7985C139.378 16.1097 139.077 16.5278 138.883 17.0529C138.61 17.6363 138.474 18.4239 138.474 19.4157C138.474 20.5047 138.591 21.2826 138.824 21.7493C138.999 22.2744 139.301 22.7022 139.728 23.0328C140.176 23.344 140.701 23.4995 141.304 23.4995C141.926 23.4995 142.441 23.344 142.85 23.0328C143.258 22.7022 143.54 22.2841 143.696 21.7785Z" fill="white"/>
</svg>
