<svg width="250" height="35" viewBox="0 0 250 35" fill="none" xmlns="http://www.w3.org/2000/svg">
<path d="M12.8852 16.3528C12.7685 16.4111 12.7685 16.4695 12.8852 16.5278C14.7326 17.4807 15.6564 19.0656 15.6564 21.2826C15.6564 23.1689 15.0146 24.5983 13.7311 25.5706C12.4476 26.5235 10.7654 27 8.6846 27H1.12945C1.03221 27 0.944699 26.9708 0.866911 26.9125C0.808571 26.8347 0.7794 26.7472 0.7794 26.65V6.9307C0.7794 6.83347 0.808571 6.75568 0.866911 6.69734C0.944699 6.61955 1.03221 6.58066 1.12945 6.58066H8.45124C13.0602 6.58066 15.3646 8.44757 15.3646 12.1814C15.3646 14.1261 14.5381 15.5165 12.8852 16.3528ZM5.03829 10.1103C4.94106 10.1103 4.89244 10.1589 4.89244 10.2561V14.8067C4.89244 14.904 4.94106 14.9526 5.03829 14.9526H8.45124C9.36525 14.9526 10.0751 14.7387 10.5807 14.3108C11.0863 13.883 11.3391 13.2996 11.3391 12.5606C11.3391 11.8022 11.0863 11.209 10.5807 10.7812C10.0751 10.3339 9.36525 10.1103 8.45124 10.1103H5.03829ZM8.6846 23.4412C9.57917 23.4412 10.2793 23.2176 10.7849 22.7703C11.2905 22.3036 11.5433 21.6715 11.5433 20.8742C11.5433 20.0769 11.2905 19.4546 10.7849 19.0073C10.2793 18.5406 9.56944 18.3072 8.65543 18.3072H5.03829C4.94106 18.3072 4.89244 18.3558 4.89244 18.453V23.2953C4.89244 23.3926 4.94106 23.4412 5.03829 23.4412H8.6846ZM30.0992 16.3528C29.9825 16.4111 29.9825 16.4695 30.0992 16.5278C31.9466 17.4807 32.8704 19.0656 32.8704 21.2826C32.8704 23.1689 32.2286 24.5983 30.9451 25.5706C29.6616 26.5235 27.9794 27 25.8986 27H18.3435C18.2462 27 18.1587 26.9708 18.0809 26.9125C18.0226 26.8347 17.9934 26.7472 17.9934 26.65V6.9307C17.9934 6.83347 18.0226 6.75568 18.0809 6.69734C18.1587 6.61955 18.2462 6.58066 18.3435 6.58066H25.6652C30.2742 6.58066 32.5787 8.44757 32.5787 12.1814C32.5787 14.1261 31.7522 15.5165 30.0992 16.3528ZM22.2523 10.1103C22.1551 10.1103 22.1064 10.1589 22.1064 10.2561V14.8067C22.1064 14.904 22.1551 14.9526 22.2523 14.9526H25.6652C26.5793 14.9526 27.2891 14.7387 27.7947 14.3108C28.3003 13.883 28.5531 13.2996 28.5531 12.5606C28.5531 11.8022 28.3003 11.209 27.7947 10.7812C27.2891 10.3339 26.5793 10.1103 25.6652 10.1103H22.2523ZM25.8986 23.4412C26.7932 23.4412 27.4933 23.2176 27.9989 22.7703C28.5045 22.3036 28.7573 21.6715 28.7573 20.8742C28.7573 20.0769 28.5045 19.4546 27.9989 19.0073C27.4933 18.5406 26.7835 18.3072 25.8694 18.3072H22.2523C22.1551 18.3072 22.1064 18.3558 22.1064 18.453V23.2953C22.1064 23.3926 22.1551 23.4412 22.2523 23.4412H25.8986ZM46.934 6.9307C46.934 6.83347 46.9631 6.75568 47.0215 6.69734C47.0993 6.61955 47.1868 6.58066 47.284 6.58066H50.6969C50.7942 6.58066 50.872 6.61955 50.9303 6.69734C51.0081 6.75568 51.047 6.83347 51.047 6.9307V26.65C51.047 26.7472 51.0081 26.8347 50.9303 26.9125C50.872 26.9708 50.7942 27 50.6969 27H47.4007C47.2062 27 47.0701 26.9222 46.9923 26.7666L39.4371 14.2817C39.3982 14.2233 39.3593 14.2039 39.3205 14.2233C39.2816 14.2233 39.2621 14.2622 39.2621 14.34L39.3205 26.65C39.3205 26.7472 39.2816 26.8347 39.2038 26.9125C39.1454 26.9708 39.0676 27 38.9704 27H35.5575C35.4602 27 35.3727 26.9708 35.2949 26.9125C35.2366 26.8347 35.2074 26.7472 35.2074 26.65V6.9307C35.2074 6.83347 35.2366 6.75568 35.2949 6.69734C35.3727 6.61955 35.4602 6.58066 35.5575 6.58066H38.8537C39.0482 6.58066 39.1843 6.65844 39.2621 6.81402L46.7881 19.2406C46.827 19.299 46.8659 19.3282 46.9048 19.3282C46.9437 19.3087 46.9631 19.2601 46.9631 19.1823L46.934 6.9307ZM69.5479 6.9307C69.5479 6.83347 69.5771 6.75568 69.6354 6.69734C69.7132 6.61955 69.8007 6.58066 69.898 6.58066H73.3109C73.4082 6.58066 73.4859 6.61955 73.5443 6.69734C73.6221 6.75568 73.661 6.83347 73.661 6.9307V26.65C73.661 26.7472 73.6221 26.8347 73.5443 26.9125C73.4859 26.9708 73.4082 27 73.3109 27H69.898C69.8007 27 69.7132 26.9708 69.6354 26.9125C69.5771 26.8347 69.5479 26.7472 69.5479 26.65V18.5989C69.5479 18.5017 69.4993 18.453 69.4021 18.453H62.9554C62.8582 18.453 62.8095 18.5017 62.8095 18.5989V26.65C62.8095 26.7472 62.7706 26.8347 62.6929 26.9125C62.6345 26.9708 62.5567 27 62.4595 27H59.0465C58.9493 27 58.8618 26.9708 58.784 26.9125C58.7257 26.8347 58.6965 26.7472 58.6965 26.65V6.9307C58.6965 6.83347 58.7257 6.75568 58.784 6.69734C58.8618 6.61955 58.9493 6.58066 59.0465 6.58066H62.4595C62.5567 6.58066 62.6345 6.61955 62.6929 6.69734C62.7706 6.75568 62.8095 6.83347 62.8095 6.9307V14.7776C62.8095 14.8748 62.8582 14.9234 62.9554 14.9234H69.4021C69.4993 14.9234 69.5479 14.8748 69.5479 14.7776V6.9307ZM82.4976 27.2334C80.864 27.2334 79.4638 26.8055 78.297 25.9499C77.1302 25.0942 76.3329 23.9274 75.905 22.4494C75.6328 21.5354 75.4967 20.5436 75.4967 19.474C75.4967 18.3266 75.6328 17.2959 75.905 16.3819C76.3523 14.9429 77.1594 13.8149 78.3262 12.9982C79.493 12.1814 80.8932 11.773 82.5267 11.773C84.1214 11.773 85.4827 12.1814 86.6106 12.9982C87.7385 13.7955 88.5359 14.9137 89.0026 16.3528C89.3137 17.3251 89.4693 18.3461 89.4693 19.4157C89.4693 20.4658 89.3332 21.4479 89.0609 22.3619C88.6331 23.8788 87.8358 25.0747 86.6689 25.9499C85.5216 26.8055 84.1311 27.2334 82.4976 27.2334ZM82.4976 23.7037C83.1393 23.7037 83.6838 23.5093 84.1311 23.1203C84.5784 22.7314 84.8993 22.1966 85.0937 21.5159C85.2493 20.8936 85.3271 20.213 85.3271 19.474C85.3271 18.6572 85.2493 17.9669 85.0937 17.4029C84.8798 16.7417 84.5492 16.2264 84.1019 15.8569C83.6547 15.4874 83.1101 15.3026 82.4684 15.3026C81.8072 15.3026 81.253 15.4874 80.8057 15.8569C80.3778 16.2264 80.0667 16.7417 79.8722 17.4029C79.7166 17.8696 79.6389 18.56 79.6389 19.474C79.6389 20.3491 79.7069 21.0298 79.8431 21.5159C80.0375 22.1966 80.3584 22.7314 80.8057 23.1203C81.2724 23.5093 81.8364 23.7037 82.4976 23.7037ZM97.2182 27.2042C95.9152 27.2042 94.7776 27.0194 93.8052 26.65C92.8329 26.2805 92.0745 25.7651 91.5299 25.1039C91.0049 24.4427 90.7423 23.694 90.7423 22.8578V22.5661C90.7423 22.4689 90.7715 22.3911 90.8298 22.3327C90.9076 22.2549 90.9951 22.216 91.0924 22.216H94.3303C94.4275 22.216 94.5053 22.2549 94.5637 22.3327C94.6415 22.3911 94.6804 22.4689 94.6804 22.5661V22.5953C94.6804 23.0231 94.9137 23.3926 95.3804 23.7037C95.8666 23.9954 96.4695 24.1413 97.189 24.1413C97.8502 24.1413 98.385 24.0149 98.7934 23.7621C99.2018 23.4898 99.406 23.1592 99.406 22.7703C99.406 22.4202 99.2309 22.1577 98.8809 21.9827C98.5309 21.8077 97.9572 21.6229 97.1598 21.4284C96.2458 21.1951 95.5263 20.9714 95.0012 20.7575C93.7566 20.3297 92.7648 19.8046 92.0258 19.1823C91.2868 18.56 90.9174 17.6654 90.9174 16.4986C90.9174 15.0595 91.4716 13.9219 92.5801 13.0857C93.708 12.23 95.1957 11.8022 97.0432 11.8022C98.2878 11.8022 99.3768 12.0064 100.31 12.4148C101.244 12.8037 101.963 13.3579 102.469 14.0775C102.994 14.797 103.256 15.6138 103.256 16.5278C103.256 16.625 103.218 16.7125 103.14 16.7903C103.081 16.8487 103.004 16.8778 102.906 16.8778H99.7852C99.688 16.8778 99.6004 16.8487 99.5227 16.7903C99.4643 16.7125 99.4351 16.625 99.4351 16.5278C99.4351 16.1 99.2115 15.7402 98.7642 15.4485C98.3364 15.1568 97.7627 15.0109 97.0432 15.0109C96.4014 15.0109 95.8763 15.1276 95.468 15.361C95.0596 15.5943 94.8554 15.9152 94.8554 16.3236C94.8554 16.7125 95.0498 17.0042 95.4388 17.1987C95.8472 17.3932 96.5181 17.5974 97.4515 17.8113C97.6655 17.8696 97.9086 17.9377 98.1808 18.0155C98.4531 18.0738 98.7448 18.1516 99.0559 18.2489C100.437 18.6572 101.526 19.1823 102.323 19.8241C103.12 20.4658 103.519 21.3993 103.519 22.6244C103.519 24.0635 102.945 25.1914 101.798 26.0082C100.67 26.8055 99.1434 27.2042 97.2182 27.2042ZM113.582 14.9526C113.582 15.0498 113.543 15.1373 113.465 15.2151C113.407 15.2735 113.329 15.3026 113.232 15.3026H110.432C110.334 15.3026 110.286 15.3513 110.286 15.4485V21.6326C110.286 22.2744 110.412 22.7508 110.665 23.062C110.937 23.3731 111.365 23.5287 111.949 23.5287H112.911C113.008 23.5287 113.086 23.5676 113.145 23.6454C113.222 23.7037 113.261 23.7815 113.261 23.8788V26.65C113.261 26.8639 113.145 26.9903 112.911 27.0292C112.094 27.0681 111.511 27.0875 111.161 27.0875C109.547 27.0875 108.341 26.825 107.544 26.2999C106.747 25.7554 106.338 24.7441 106.319 23.2662V15.4485C106.319 15.3513 106.27 15.3026 106.173 15.3026H104.51C104.413 15.3026 104.325 15.2735 104.248 15.2151C104.189 15.1373 104.16 15.0498 104.16 14.9526V12.3564C104.16 12.2592 104.189 12.1814 104.248 12.123C104.325 12.0453 104.413 12.0064 104.51 12.0064H106.173C106.27 12.0064 106.319 11.9578 106.319 11.8605V8.38923C106.319 8.29199 106.348 8.2142 106.406 8.15586C106.484 8.07807 106.572 8.03918 106.669 8.03918H109.936C110.033 8.03918 110.111 8.07807 110.169 8.15586C110.247 8.2142 110.286 8.29199 110.286 8.38923V11.8605C110.286 11.9578 110.334 12.0064 110.432 12.0064H113.232C113.329 12.0064 113.407 12.0453 113.465 12.123C113.543 12.1814 113.582 12.2592 113.582 12.3564V14.9526ZM117.4 10.3145C116.739 10.3145 116.185 10.1006 115.737 9.67273C115.31 9.22545 115.096 8.67121 115.096 8.01001C115.096 7.32936 115.31 6.77513 115.737 6.34729C116.165 5.91946 116.719 5.70554 117.4 5.70554C118.081 5.70554 118.635 5.91946 119.063 6.34729C119.491 6.77513 119.705 7.32936 119.705 8.01001C119.705 8.67121 119.481 9.22545 119.034 9.67273C118.606 10.1006 118.061 10.3145 117.4 10.3145ZM115.65 27C115.553 27 115.465 26.9708 115.387 26.9125C115.329 26.8347 115.3 26.7472 115.3 26.65V12.3272C115.3 12.23 115.329 12.1522 115.387 12.0939C115.465 12.0161 115.553 11.9772 115.65 11.9772H119.063C119.16 11.9772 119.238 12.0161 119.296 12.0939C119.374 12.1522 119.413 12.23 119.413 12.3272V26.65C119.413 26.7472 119.374 26.8347 119.296 26.9125C119.238 26.9708 119.16 27 119.063 27H115.65ZM129.561 11.773C131.116 11.773 132.371 12.2495 133.324 13.2024C134.277 14.1553 134.753 15.4485 134.753 17.082V26.65C134.753 26.7472 134.714 26.8347 134.636 26.9125C134.578 26.9708 134.5 27 134.403 27H130.99C130.893 27 130.805 26.9708 130.728 26.9125C130.669 26.8347 130.64 26.7472 130.64 26.65V17.928C130.64 17.1501 130.416 16.5181 129.969 16.0319C129.541 15.5457 128.968 15.3026 128.248 15.3026C127.529 15.3026 126.945 15.5457 126.498 16.0319C126.07 16.5181 125.856 17.1501 125.856 17.928V26.65C125.856 26.7472 125.817 26.8347 125.739 26.9125C125.681 26.9708 125.603 27 125.506 27H122.093C121.996 27 121.908 26.9708 121.831 26.9125C121.772 26.8347 121.743 26.7472 121.743 26.65V12.3564C121.743 12.2592 121.772 12.1814 121.831 12.123C121.908 12.0453 121.996 12.0064 122.093 12.0064H125.506C125.603 12.0064 125.681 12.0453 125.739 12.123C125.817 12.1814 125.856 12.2592 125.856 12.3564V13.3774C125.856 13.4357 125.876 13.4746 125.914 13.4941C125.953 13.5135 125.982 13.5038 126.002 13.4649C126.799 12.337 127.986 11.773 129.561 11.773ZM145.98 12.3564C145.98 12.2592 146.009 12.1814 146.068 12.123C146.145 12.0453 146.233 12.0064 146.33 12.0064H149.743C149.84 12.0064 149.918 12.0453 149.976 12.123C150.054 12.1814 150.093 12.2592 150.093 12.3564V25.6582C150.093 28.2057 149.354 30.024 147.876 31.113C146.418 32.2021 144.531 32.7466 142.217 32.7466C141.536 32.7466 140.778 32.698 139.942 32.6007C139.747 32.5813 139.65 32.4549 139.65 32.2215L139.767 29.217C139.767 28.9641 139.903 28.8572 140.175 28.8961C140.875 29.0128 141.517 29.0711 142.1 29.0711C143.345 29.0711 144.298 28.7988 144.959 28.2543C145.64 27.7098 145.98 26.8347 145.98 25.629C145.98 25.5706 145.961 25.5415 145.922 25.5415C145.883 25.522 145.844 25.5318 145.805 25.5706C145.066 26.368 143.987 26.7666 142.567 26.7666C141.303 26.7666 140.136 26.4652 139.067 25.8624C138.017 25.24 137.268 24.2483 136.821 22.887C136.529 21.9924 136.383 20.8353 136.383 19.4157C136.383 17.8988 136.558 16.6639 136.908 15.711C137.316 14.5248 138.007 13.5719 138.979 12.8523C139.952 12.1328 141.079 11.773 142.363 11.773C143.86 11.773 145.008 12.2203 145.805 13.1148C145.844 13.1537 145.883 13.1732 145.922 13.1732C145.961 13.1537 145.98 13.1148 145.98 13.0565V12.3564ZM145.747 21.7785C145.902 21.1951 145.98 20.3977 145.98 19.3865C145.98 18.7836 145.961 18.3169 145.922 17.9863C145.883 17.6557 145.815 17.3446 145.718 17.0529C145.543 16.5278 145.251 16.1097 144.842 15.7985C144.434 15.4679 143.928 15.3026 143.326 15.3026C142.742 15.3026 142.246 15.4679 141.838 15.7985C141.429 16.1097 141.128 16.5278 140.934 17.0529C140.661 17.6363 140.525 18.4239 140.525 19.4157C140.525 20.5047 140.642 21.2826 140.875 21.7493C141.05 22.2744 141.352 22.7022 141.78 23.0328C142.227 23.344 142.752 23.4995 143.355 23.4995C143.977 23.4995 144.492 23.344 144.901 23.0328C145.309 22.7022 145.591 22.2841 145.747 21.7785Z" fill="white"/>
</svg>
