<svg width="1768" height="325" viewBox="0 0 1768 325" fill="none" xmlns="http://www.w3.org/2000/svg">
<g clip-path="url(#clip0_770_2)">
<path d="M145.859 127.705C144.458 128.405 144.458 129.106 145.859 129.806C168.04 141.247 179.13 160.276 179.13 186.892C179.13 209.54 171.426 226.701 156.016 238.375C140.606 249.816 120.41 255.536 95.4274 255.536H4.72C3.55259 255.536 2.50192 255.186 1.568 254.485C0.867555 253.551 0.517334 252.501 0.517334 251.333V14.5833C0.517334 13.4159 0.867555 12.482 1.568 11.7816C2.50192 10.8476 3.55259 10.3807 4.72 10.3807H92.6256C147.961 10.3807 175.628 32.7949 175.628 77.6232C175.628 100.971 165.705 117.665 145.859 127.705ZM51.6497 52.7575C50.4823 52.7575 49.8986 53.3412 49.8986 54.5086V109.143C49.8986 110.311 50.4823 110.894 51.6497 110.894H92.6256C103.599 110.894 112.121 108.326 118.192 103.189C124.262 98.0528 127.298 91.0484 127.298 82.1761C127.298 73.0703 124.262 65.9492 118.192 60.8126C112.121 55.4425 103.599 52.7575 92.6256 52.7575H51.6497ZM95.4274 212.809C106.168 212.809 114.573 210.124 120.643 204.754C126.714 199.15 129.749 191.562 129.749 181.989C129.749 172.417 126.714 164.945 120.643 159.575C114.573 153.972 106.051 151.17 95.0772 151.17H51.6497C50.4823 151.17 49.8986 151.753 49.8986 152.921V211.058C49.8986 212.225 50.4823 212.809 51.6497 212.809H95.4274Z" fill="white"/>
<path d="M352.531 127.705C351.13 128.405 351.13 129.106 352.531 129.806C374.712 141.247 385.802 160.276 385.802 186.892C385.802 209.54 378.097 226.701 362.688 238.375C347.278 249.816 327.082 255.536 302.099 255.536H211.392C210.224 255.536 209.174 255.186 208.24 254.485C207.539 253.551 207.189 252.501 207.189 251.333V14.5833C207.189 13.4159 207.539 12.482 208.24 11.7816C209.174 10.8476 210.224 10.3807 211.392 10.3807H299.297C354.632 10.3807 382.3 32.7949 382.3 77.6232C382.3 100.971 372.377 117.665 352.531 127.705ZM258.322 52.7575C257.154 52.7575 256.57 53.3412 256.57 54.5086V109.143C256.57 110.311 257.154 110.894 258.322 110.894H299.297C310.271 110.894 318.793 108.326 324.864 103.189C330.934 98.0528 333.969 91.0484 333.969 82.1761C333.969 73.0703 330.934 65.9492 324.864 60.8126C318.793 55.4425 310.271 52.7575 299.297 52.7575H258.322ZM302.099 212.809C312.839 212.809 321.245 210.124 327.315 204.754C333.386 199.15 336.421 191.562 336.421 181.989C336.421 172.417 333.386 164.945 327.315 159.575C321.245 153.972 312.723 151.17 301.749 151.17H258.322C257.154 151.17 256.57 151.753 256.57 152.921V211.058C256.57 212.225 257.154 212.809 258.322 212.809H302.099Z" fill="white"/>
<path d="M554.65 14.5833C554.65 13.4159 555 12.482 555.701 11.7816C556.635 10.8476 557.685 10.3807 558.853 10.3807H599.829C600.996 10.3807 601.93 10.8476 602.63 11.7816C603.564 12.482 604.031 13.4159 604.031 14.5833V251.333C604.031 252.501 603.564 253.551 602.63 254.485C601.93 255.186 600.996 255.536 599.829 255.536H560.254C557.919 255.536 556.285 254.602 555.351 252.734L464.643 102.839C464.176 102.139 463.709 101.905 463.242 102.139C462.775 102.139 462.542 102.606 462.542 103.54L463.242 251.333C463.242 252.501 462.775 253.551 461.841 254.485C461.141 255.186 460.207 255.536 459.04 255.536H418.064C416.896 255.536 415.846 255.186 414.912 254.485C414.211 253.551 413.861 252.501 413.861 251.333V14.5833C413.861 13.4159 414.211 12.482 414.912 11.7816C415.846 10.8476 416.896 10.3807 418.064 10.3807H457.639C459.974 10.3807 461.608 11.3146 462.542 13.1824L552.899 162.377C553.366 163.077 553.833 163.428 554.3 163.428C554.767 163.194 555 162.61 555 161.676L554.65 14.5833Z" fill="white"/>
<path d="M853.471 13.1824C854.639 11.3146 856.273 10.3807 858.374 10.3807H899.35C900.518 10.3807 901.452 10.8476 902.152 11.7816C903.086 12.482 903.553 13.4159 903.553 14.5833V251.333C903.553 252.501 903.086 253.551 902.152 254.485C901.452 255.186 900.518 255.536 899.35 255.536H858.374C857.207 255.536 856.156 255.186 855.222 254.485C854.522 253.551 854.172 252.501 854.172 251.333V96.8854C854.172 95.9515 853.938 95.4845 853.471 95.4845C853.004 95.4845 852.537 95.8348 852.07 96.5352L814.947 154.672C813.779 156.54 812.145 157.474 810.044 157.474H789.381C787.279 157.474 785.645 156.54 784.478 154.672L747.354 96.5352C746.887 95.8348 746.42 95.6013 745.953 95.8348C745.486 95.8348 745.253 96.3017 745.253 97.2356V251.333C745.253 252.501 744.786 253.551 743.852 254.485C743.151 255.186 742.218 255.536 741.05 255.536H700.074C698.907 255.536 697.856 255.186 696.922 254.485C696.222 253.551 695.872 252.501 695.872 251.333V14.5833C695.872 13.4159 696.222 12.482 696.922 11.7816C697.856 10.8476 698.907 10.3807 700.074 10.3807H741.05C743.151 10.3807 744.786 11.3146 745.953 13.1824L798.486 94.7841C799.187 96.185 799.887 96.185 800.588 94.7841L853.471 13.1824Z" fill="white"/>
<path d="M1037.63 79.7246C1037.63 78.5572 1037.98 77.6232 1038.68 76.9228C1039.62 75.9889 1040.67 75.5219 1041.84 75.5219H1082.81C1083.98 75.5219 1084.91 75.9889 1085.61 76.9228C1086.55 77.6232 1087.01 78.5572 1087.01 79.7246V251.333C1087.01 252.501 1086.55 253.551 1085.61 254.485C1084.91 255.186 1083.98 255.536 1082.81 255.536H1041.84C1040.67 255.536 1039.62 255.186 1038.68 254.485C1037.98 253.551 1037.63 252.501 1037.63 251.333V239.426C1037.63 238.725 1037.4 238.375 1036.93 238.375C1036.47 238.142 1036 238.375 1035.53 239.075C1026.19 251.683 1011.72 257.987 992.104 257.987C974.36 257.987 959.767 252.617 948.327 241.877C936.886 231.137 931.166 216.078 931.166 196.699V79.7246C931.166 78.5572 931.516 77.6232 932.216 76.9228C933.15 75.9889 934.201 75.5219 935.368 75.5219H975.994C977.162 75.5219 978.096 75.9889 978.796 76.9228C979.73 77.6232 980.197 78.5572 980.197 79.7246V184.441C980.197 193.78 982.648 201.368 987.552 207.205C992.688 213.042 999.693 215.961 1008.56 215.961C1016.5 215.961 1023.04 213.626 1028.18 208.956C1033.31 204.053 1036.47 197.749 1037.63 190.044V79.7246Z" fill="white"/>
<path d="M1184.7 257.987C1169.06 257.987 1155.4 255.769 1143.72 251.333C1132.05 246.897 1122.94 240.71 1116.41 232.771C1110.1 224.833 1106.95 215.844 1106.95 205.804V202.302C1106.95 201.135 1107.3 200.201 1108 199.5C1108.93 198.566 1109.98 198.1 1111.15 198.1H1150.03C1151.19 198.1 1152.13 198.566 1152.83 199.5C1153.76 200.201 1154.23 201.135 1154.23 202.302V202.652C1154.23 207.789 1157.03 212.225 1162.64 215.961C1168.47 219.463 1175.71 221.214 1184.35 221.214C1192.29 221.214 1198.71 219.696 1203.61 216.661C1208.51 213.393 1210.97 209.423 1210.97 204.754C1210.97 200.551 1208.86 197.399 1204.66 195.298C1200.46 193.196 1193.57 190.978 1184 188.644C1173.02 185.842 1164.39 183.157 1158.08 180.588C1143.14 175.452 1131.23 169.148 1122.36 161.676C1113.49 154.205 1109.05 143.465 1109.05 129.456C1109.05 112.178 1115.71 98.5198 1129.01 88.4801C1142.56 78.2069 1160.42 73.0704 1182.6 73.0704C1197.54 73.0704 1210.62 75.5219 1221.82 80.425C1233.03 85.0946 1241.67 91.7488 1247.74 100.388C1254.04 109.026 1257.19 118.833 1257.19 129.806C1257.19 130.974 1256.73 132.024 1255.79 132.958C1255.09 133.659 1254.16 134.009 1252.99 134.009H1215.52C1214.35 134.009 1213.3 133.659 1212.37 132.958C1211.67 132.024 1211.32 130.974 1211.32 129.806C1211.32 124.67 1208.63 120.35 1203.26 116.848C1198.12 113.346 1191.24 111.595 1182.6 111.595C1174.89 111.595 1168.59 112.996 1163.69 115.797C1158.78 118.599 1156.33 122.452 1156.33 127.355C1156.33 132.024 1158.67 135.527 1163.34 137.861C1168.24 140.196 1176.29 142.648 1187.5 145.216C1190.07 145.916 1192.99 146.734 1196.26 147.668C1199.52 148.368 1203.03 149.302 1206.76 150.469C1223.34 155.372 1236.41 161.676 1245.99 169.381C1255.56 177.086 1260.35 188.293 1260.35 203.003C1260.35 220.28 1253.46 233.822 1239.68 243.628C1226.14 253.201 1207.81 257.987 1184.7 257.987Z" fill="white"/>
<path d="M1304.81 55.209C1296.87 55.209 1290.22 52.6408 1284.85 47.5042C1279.71 42.1341 1277.14 35.4799 1277.14 27.5415C1277.14 19.3697 1279.71 12.7155 1284.85 7.57891C1289.98 2.44232 1296.64 -0.125977 1304.81 -0.125977C1312.98 -0.125977 1319.63 2.44232 1324.77 7.57891C1329.91 12.7155 1332.48 19.3697 1332.48 27.5415C1332.48 35.4799 1329.79 42.1341 1324.42 47.5042C1319.28 52.6408 1312.75 55.209 1304.81 55.209ZM1283.8 255.536C1282.63 255.536 1281.58 255.186 1280.64 254.485C1279.94 253.551 1279.59 252.501 1279.59 251.333V79.3743C1279.59 78.2069 1279.94 77.273 1280.64 76.5726C1281.58 75.6386 1282.63 75.1717 1283.8 75.1717H1324.77C1325.94 75.1717 1326.87 75.6386 1327.57 76.5726C1328.51 77.273 1328.97 78.2069 1328.97 79.3743V251.333C1328.97 252.501 1328.51 253.551 1327.57 254.485C1326.87 255.186 1325.94 255.536 1324.77 255.536H1283.8Z" fill="white"/>
<path d="M1436.1 258.338C1417.42 258.338 1401.2 253.668 1387.42 244.329C1373.88 234.99 1364.19 222.148 1358.35 205.804C1354.38 194.13 1352.4 180.355 1352.4 164.478C1352.4 148.835 1354.38 135.293 1358.35 123.853C1363.95 107.976 1373.64 95.4845 1387.42 86.3788C1401.2 77.273 1417.42 72.7201 1436.1 72.7201C1454.78 72.7201 1471.12 77.3898 1485.13 86.729C1499.37 96.0682 1508.83 107.859 1513.5 122.101C1515.37 127.705 1516.3 131.908 1516.3 134.709V135.41C1516.3 137.511 1515.13 138.795 1512.8 139.262L1472.52 145.216H1471.82C1469.72 145.216 1468.32 144.049 1467.62 141.714L1466.57 136.11C1464.94 130.04 1461.32 125.02 1455.71 121.051C1450.11 117.082 1443.46 115.097 1435.75 115.097C1428.28 115.097 1421.98 116.965 1416.84 120.701C1411.7 124.436 1408.08 129.573 1405.98 136.11C1403.41 143.115 1402.13 152.687 1402.13 164.828C1402.13 176.969 1403.3 186.542 1405.63 193.547C1407.73 200.551 1411.35 206.038 1416.49 210.007C1421.86 213.976 1428.28 215.961 1435.75 215.961C1442.99 215.961 1449.29 214.093 1454.66 210.357C1460.27 206.388 1464.12 201.018 1466.22 194.247C1466.45 193.78 1466.57 193.08 1466.57 192.146C1466.8 191.912 1466.92 191.562 1466.92 191.095C1467.15 188.293 1468.79 187.126 1471.82 187.593L1512.1 193.897C1514.43 194.364 1515.6 195.648 1515.6 197.749C1515.6 199.617 1514.9 203.119 1513.5 208.256C1508.6 223.899 1499.02 236.157 1484.78 245.029C1470.77 253.901 1454.55 258.338 1436.1 258.338Z" fill="white"/>
</g>
<defs>
<clipPath id="clip0_770_2">
<rect width="1768" height="325" fill="white"/>
</clipPath>
</defs>
</svg>
