<svg width="250" height="35" viewBox="0 0 250 35" fill="none" xmlns="http://www.w3.org/2000/svg">
<path d="M13.8852 18.3528C13.7685 18.4111 13.7685 18.4695 13.8852 18.5278C15.7326 19.4807 16.6564 21.0656 16.6564 23.2826C16.6564 25.1689 16.0146 26.5983 14.7311 27.5706C13.4476 28.5235 11.7654 29 9.6846 29H2.12945C2.03221 29 1.9447 28.9708 1.86691 28.9125C1.80857 28.8347 1.7794 28.7472 1.7794 28.65V8.9307C1.7794 8.83347 1.80857 8.75568 1.86691 8.69734C1.9447 8.61955 2.03221 8.58066 2.12945 8.58066H9.45124C14.0602 8.58066 16.3646 10.4476 16.3646 14.1814C16.3646 16.1261 15.5381 17.5165 13.8852 18.3528ZM6.03829 12.1103C5.94106 12.1103 5.89244 12.1589 5.89244 12.2561V16.8067C5.89244 16.904 5.94106 16.9526 6.03829 16.9526H9.45124C10.3652 16.9526 11.0751 16.7387 11.5807 16.3108C12.0863 15.883 12.3391 15.2996 12.3391 14.5606C12.3391 13.8022 12.0863 13.209 11.5807 12.7812C11.0751 12.3339 10.3652 12.1103 9.45124 12.1103H6.03829ZM9.6846 25.4412C10.5792 25.4412 11.2793 25.2176 11.7849 24.7703C12.2905 24.3036 12.5433 23.6715 12.5433 22.8742C12.5433 22.0769 12.2905 21.4546 11.7849 21.0073C11.2793 20.5406 10.5694 20.3072 9.65543 20.3072H6.03829C5.94106 20.3072 5.89244 20.3558 5.89244 20.453V25.2953C5.89244 25.3926 5.94106 25.4412 6.03829 25.4412H9.6846ZM31.0992 18.3528C30.9825 18.4111 30.9825 18.4695 31.0992 18.5278C32.9466 19.4807 33.8704 21.0656 33.8704 23.2826C33.8704 25.1689 33.2286 26.5983 31.9451 27.5706C30.6616 28.5235 28.9794 29 26.8986 29H19.3435C19.2462 29 19.1587 28.9708 19.0809 28.9125C19.0226 28.8347 18.9934 28.7472 18.9934 28.65V8.9307C18.9934 8.83347 19.0226 8.75568 19.0809 8.69734C19.1587 8.61955 19.2462 8.58066 19.3435 8.58066H26.6652C31.2742 8.58066 33.5787 10.4476 33.5787 14.1814C33.5787 16.1261 32.7522 17.5165 31.0992 18.3528ZM23.2523 12.1103C23.1551 12.1103 23.1064 12.1589 23.1064 12.2561V16.8067C23.1064 16.904 23.1551 16.9526 23.2523 16.9526H26.6652C27.5793 16.9526 28.2891 16.7387 28.7947 16.3108C29.3003 15.883 29.5531 15.2996 29.5531 14.5606C29.5531 13.8022 29.3003 13.209 28.7947 12.7812C28.2891 12.3339 27.5793 12.1103 26.6652 12.1103H23.2523ZM26.8986 25.4412C27.7932 25.4412 28.4933 25.2176 28.9989 24.7703C29.5045 24.3036 29.7573 23.6715 29.7573 22.8742C29.7573 22.0769 29.5045 21.4546 28.9989 21.0073C28.4933 20.5406 27.7835 20.3072 26.8694 20.3072H23.2523C23.1551 20.3072 23.1064 20.3558 23.1064 20.453V25.2953C23.1064 25.3926 23.1551 25.4412 23.2523 25.4412H26.8986ZM47.934 8.9307C47.934 8.83347 47.9631 8.75568 48.0215 8.69734C48.0993 8.61955 48.1868 8.58066 48.284 8.58066H51.6969C51.7942 8.58066 51.872 8.61955 51.9303 8.69734C52.0081 8.75568 52.047 8.83347 52.047 8.9307V28.65C52.047 28.7472 52.0081 28.8347 51.9303 28.9125C51.872 28.9708 51.7942 29 51.6969 29H48.4007C48.2062 29 48.0701 28.9222 47.9923 28.7666L40.4371 16.2817C40.3982 16.2233 40.3593 16.2039 40.3205 16.2233C40.2816 16.2233 40.2621 16.2622 40.2621 16.34L40.3205 28.65C40.3205 28.7472 40.2816 28.8347 40.2038 28.9125C40.1454 28.9708 40.0676 29 39.9704 29H36.5575C36.4602 29 36.3727 28.9708 36.2949 28.9125C36.2366 28.8347 36.2074 28.7472 36.2074 28.65V8.9307C36.2074 8.83347 36.2366 8.75568 36.2949 8.69734C36.3727 8.61955 36.4602 8.58066 36.5575 8.58066H39.8537C40.0482 8.58066 40.1843 8.65844 40.2621 8.81402L47.7881 21.2406C47.827 21.299 47.8659 21.3282 47.9048 21.3282C47.9437 21.3087 47.9631 21.2601 47.9631 21.1823L47.934 8.9307ZM72.8232 8.81402C72.9205 8.65844 73.0566 8.58066 73.2316 8.58066H76.6446C76.7418 8.58066 76.8196 8.61955 76.8779 8.69734C76.9557 8.75568 76.9946 8.83347 76.9946 8.9307V28.65C76.9946 28.7472 76.9557 28.8347 76.8779 28.9125C76.8196 28.9708 76.7418 29 76.6446 29H73.2316C73.1344 29 73.0469 28.9708 72.9691 28.9125C72.9107 28.8347 72.8816 28.7472 72.8816 28.65V15.7858C72.8816 15.708 72.8621 15.6691 72.8232 15.6691C72.7843 15.6691 72.7454 15.6983 72.7065 15.7566L69.6145 20.5989C69.5172 20.7545 69.3811 20.8323 69.2061 20.8323H67.485C67.31 20.8323 67.1739 20.7545 67.0766 20.5989L63.9846 15.7566C63.9457 15.6983 63.9068 15.6788 63.8679 15.6983C63.829 15.6983 63.8095 15.7371 63.8095 15.8149V28.65C63.8095 28.7472 63.7706 28.8347 63.6929 28.9125C63.6345 28.9708 63.5567 29 63.4595 29H60.0465C59.9493 29 59.8618 28.9708 59.784 28.9125C59.7257 28.8347 59.6965 28.7472 59.6965 28.65V8.9307C59.6965 8.83347 59.7257 8.75568 59.784 8.69734C59.8618 8.61955 59.9493 8.58066 60.0465 8.58066H63.4595C63.6345 8.58066 63.7706 8.65844 63.8679 8.81402L68.2435 15.6107C68.3018 15.7274 68.3601 15.7274 68.4185 15.6107L72.8232 8.81402ZM88.1623 14.3564C88.1623 14.2592 88.1915 14.1814 88.2498 14.123C88.3276 14.0453 88.4151 14.0064 88.5124 14.0064H91.9253C92.0226 14.0064 92.1004 14.0453 92.1587 14.123C92.2365 14.1814 92.2754 14.2592 92.2754 14.3564V28.65C92.2754 28.7472 92.2365 28.8347 92.1587 28.9125C92.1004 28.9708 92.0226 29 91.9253 29H88.5124C88.4151 29 88.3276 28.9708 88.2498 28.9125C88.1915 28.8347 88.1623 28.7472 88.1623 28.65V27.6582C88.1623 27.5998 88.1429 27.5706 88.104 27.5706C88.0651 27.5512 88.0262 27.5706 87.9873 27.629C87.2094 28.6791 86.0037 29.2042 84.3702 29.2042C82.8922 29.2042 81.6768 28.7569 80.7239 27.8624C79.771 26.9678 79.2945 25.7135 79.2945 24.0994V14.3564C79.2945 14.2592 79.3237 14.1814 79.382 14.123C79.4598 14.0453 79.5473 14.0064 79.6446 14.0064H83.0283C83.1256 14.0064 83.2034 14.0453 83.2617 14.123C83.3395 14.1814 83.3784 14.2592 83.3784 14.3564V23.0784C83.3784 23.8563 83.5826 24.4883 83.991 24.9745C84.4188 25.4606 85.0022 25.7037 85.7412 25.7037C86.4024 25.7037 86.9469 25.5093 87.3747 25.1203C87.8026 24.7119 88.0651 24.1869 88.1623 23.5451V14.3564ZM100.412 29.2042C99.1087 29.2042 97.9711 29.0194 96.9987 28.65C96.0264 28.2805 95.2679 27.7651 94.7234 27.1039C94.1983 26.4427 93.9358 25.694 93.9358 24.8578V24.5661C93.9358 24.4689 93.965 24.3911 94.0233 24.3327C94.1011 24.2549 94.1886 24.216 94.2859 24.216H97.5238C97.621 24.216 97.6988 24.2549 97.7571 24.3327C97.8349 24.3911 97.8738 24.4689 97.8738 24.5661V24.5953C97.8738 25.0231 98.1072 25.3926 98.5739 25.7037C99.0601 25.9954 99.663 26.1413 100.382 26.1413C101.044 26.1413 101.578 26.0149 101.987 25.7621C102.395 25.4898 102.599 25.1592 102.599 24.7703C102.599 24.4202 102.424 24.1577 102.074 23.9827C101.724 23.8077 101.151 23.6229 100.353 23.4284C99.4393 23.1951 98.7198 22.9714 98.1947 22.7575C96.9501 22.3297 95.9583 21.8046 95.2193 21.1823C94.4803 20.56 94.1108 19.6654 94.1108 18.4986C94.1108 17.0595 94.6651 15.9219 95.7736 15.0857C96.9015 14.23 98.3892 13.8022 100.237 13.8022C101.481 13.8022 102.57 14.0064 103.504 14.4148C104.437 14.8037 105.157 15.3579 105.662 16.0775C106.187 16.797 106.45 17.6138 106.45 18.5278C106.45 18.625 106.411 18.7125 106.333 18.7903C106.275 18.8487 106.197 18.8778 106.1 18.8778H102.979C102.881 18.8778 102.794 18.8487 102.716 18.7903C102.658 18.7125 102.629 18.625 102.629 18.5278C102.629 18.1 102.405 17.7402 101.958 17.4485C101.53 17.1568 100.956 17.0109 100.237 17.0109C99.5949 17.0109 99.0698 17.1276 98.6614 17.361C98.253 17.5943 98.0489 17.9152 98.0489 18.3236C98.0489 18.7125 98.2433 19.0042 98.6323 19.1987C99.0407 19.3932 99.7116 19.5974 100.645 19.8113C100.859 19.8696 101.102 19.9377 101.374 20.0155C101.647 20.0738 101.938 20.1516 102.249 20.2489C103.63 20.6572 104.719 21.1823 105.517 21.8241C106.314 22.4658 106.712 23.3993 106.712 24.6244C106.712 26.0635 106.139 27.1914 104.991 28.0082C103.864 28.8055 102.337 29.2042 100.412 29.2042ZM110.416 12.3145C109.755 12.3145 109.2 12.1006 108.753 11.6727C108.325 11.2254 108.111 10.6712 108.111 10.01C108.111 9.32936 108.325 8.77513 108.753 8.34729C109.181 7.91946 109.735 7.70554 110.416 7.70554C111.096 7.70554 111.651 7.91946 112.078 8.34729C112.506 8.77513 112.72 9.32936 112.72 10.01C112.72 10.6712 112.497 11.2254 112.049 11.6727C111.621 12.1006 111.077 12.3145 110.416 12.3145ZM108.666 29C108.568 29 108.481 28.9708 108.403 28.9125C108.345 28.8347 108.316 28.7472 108.316 28.65V14.3272C108.316 14.23 108.345 14.1522 108.403 14.0939C108.481 14.0161 108.568 13.9772 108.666 13.9772H112.078C112.176 13.9772 112.254 14.0161 112.312 14.0939C112.39 14.1522 112.429 14.23 112.429 14.3272V28.65C112.429 28.7472 112.39 28.8347 112.312 28.9125C112.254 28.9708 112.176 29 112.078 29H108.666ZM121.351 29.2334C119.796 29.2334 118.444 28.8444 117.297 28.0665C116.169 27.2887 115.362 26.2191 114.875 24.8578C114.545 23.8854 114.38 22.7381 114.38 21.4157C114.38 20.1127 114.545 18.9848 114.875 18.0319C115.342 16.7095 116.149 15.6691 117.297 14.9107C118.444 14.1522 119.796 13.773 121.351 13.773C122.907 13.773 124.268 14.1619 125.435 14.9398C126.621 15.7177 127.409 16.6998 127.798 17.886C127.954 18.3528 128.031 18.7028 128.031 18.9362V18.9945C128.031 19.1695 127.934 19.2765 127.74 19.3154L124.385 19.8113H124.327C124.152 19.8113 124.035 19.7141 123.977 19.5196L123.889 19.0529C123.753 18.5472 123.452 18.1291 122.985 17.7985C122.518 17.4679 121.964 17.3026 121.322 17.3026C120.7 17.3026 120.175 17.4582 119.747 17.7694C119.319 18.0805 119.018 18.5083 118.843 19.0529C118.629 19.6363 118.522 20.4336 118.522 21.4448C118.522 22.4561 118.619 23.2534 118.813 23.8368C118.988 24.4202 119.29 24.8772 119.718 25.2078C120.165 25.5384 120.7 25.7037 121.322 25.7037C121.925 25.7037 122.45 25.5482 122.897 25.237C123.364 24.9064 123.685 24.4591 123.86 23.8952C123.879 23.8563 123.889 23.7979 123.889 23.7201C123.909 23.7007 123.918 23.6715 123.918 23.6326C123.938 23.3993 124.074 23.302 124.327 23.3409L127.681 23.866C127.876 23.9049 127.973 24.0118 127.973 24.1869C127.973 24.3424 127.915 24.6341 127.798 25.062C127.39 26.3649 126.592 27.3859 125.406 28.1249C124.239 28.8639 122.888 29.2334 121.351 29.2334Z" fill="white"/>
</svg>
