<svg width="250" height="35" viewBox="0 0 250 35" fill="none" xmlns="http://www.w3.org/2000/svg">
<path d="M12.8852 16.3528C12.7685 16.4111 12.7685 16.4695 12.8852 16.5278C14.7326 17.4807 15.6564 19.0656 15.6564 21.2826C15.6564 23.1689 15.0146 24.5983 13.7311 25.5706C12.4476 26.5235 10.7654 27 8.6846 27H1.12945C1.03221 27 0.944699 26.9708 0.866911 26.9125C0.808571 26.8347 0.7794 26.7472 0.7794 26.65V6.9307C0.7794 6.83347 0.808571 6.75568 0.866911 6.69734C0.944699 6.61955 1.03221 6.58066 1.12945 6.58066H8.45124C13.0602 6.58066 15.3646 8.44757 15.3646 12.1814C15.3646 14.1261 14.5381 15.5165 12.8852 16.3528ZM5.03829 10.1103C4.94106 10.1103 4.89244 10.1589 4.89244 10.2561V14.8067C4.89244 14.904 4.94106 14.9526 5.03829 14.9526H8.45124C9.36525 14.9526 10.0751 14.7387 10.5807 14.3108C11.0863 13.883 11.3391 13.2996 11.3391 12.5606C11.3391 11.8022 11.0863 11.209 10.5807 10.7812C10.0751 10.3339 9.36525 10.1103 8.45124 10.1103H5.03829ZM8.6846 23.4412C9.57917 23.4412 10.2793 23.2176 10.7849 22.7703C11.2905 22.3036 11.5433 21.6715 11.5433 20.8742C11.5433 20.0769 11.2905 19.4546 10.7849 19.0073C10.2793 18.5406 9.56944 18.3072 8.65543 18.3072H5.03829C4.94106 18.3072 4.89244 18.3558 4.89244 18.453V23.2953C4.89244 23.3926 4.94106 23.4412 5.03829 23.4412H8.6846ZM30.0992 16.3528C29.9825 16.4111 29.9825 16.4695 30.0992 16.5278C31.9466 17.4807 32.8704 19.0656 32.8704 21.2826C32.8704 23.1689 32.2286 24.5983 30.9451 25.5706C29.6616 26.5235 27.9794 27 25.8986 27H18.3435C18.2462 27 18.1587 26.9708 18.0809 26.9125C18.0226 26.8347 17.9934 26.7472 17.9934 26.65V6.9307C17.9934 6.83347 18.0226 6.75568 18.0809 6.69734C18.1587 6.61955 18.2462 6.58066 18.3435 6.58066H25.6652C30.2742 6.58066 32.5787 8.44757 32.5787 12.1814C32.5787 14.1261 31.7522 15.5165 30.0992 16.3528ZM22.2523 10.1103C22.1551 10.1103 22.1064 10.1589 22.1064 10.2561V14.8067C22.1064 14.904 22.1551 14.9526 22.2523 14.9526H25.6652C26.5793 14.9526 27.2891 14.7387 27.7947 14.3108C28.3003 13.883 28.5531 13.2996 28.5531 12.5606C28.5531 11.8022 28.3003 11.209 27.7947 10.7812C27.2891 10.3339 26.5793 10.1103 25.6652 10.1103H22.2523ZM25.8986 23.4412C26.7932 23.4412 27.4933 23.2176 27.9989 22.7703C28.5045 22.3036 28.7573 21.6715 28.7573 20.8742C28.7573 20.0769 28.5045 19.4546 27.9989 19.0073C27.4933 18.5406 26.7835 18.3072 25.8694 18.3072H22.2523C22.1551 18.3072 22.1064 18.3558 22.1064 18.453V23.2953C22.1064 23.3926 22.1551 23.4412 22.2523 23.4412H25.8986ZM46.934 6.9307C46.934 6.83347 46.9631 6.75568 47.0215 6.69734C47.0993 6.61955 47.1868 6.58066 47.284 6.58066H50.6969C50.7942 6.58066 50.872 6.61955 50.9303 6.69734C51.0081 6.75568 51.047 6.83347 51.047 6.9307V26.65C51.047 26.7472 51.0081 26.8347 50.9303 26.9125C50.872 26.9708 50.7942 27 50.6969 27H47.4007C47.2062 27 47.0701 26.9222 46.9923 26.7666L39.4371 14.2817C39.3982 14.2233 39.3593 14.2039 39.3205 14.2233C39.2816 14.2233 39.2621 14.2622 39.2621 14.34L39.3205 26.65C39.3205 26.7472 39.2816 26.8347 39.2038 26.9125C39.1454 26.9708 39.0676 27 38.9704 27H35.5575C35.4602 27 35.3727 26.9708 35.2949 26.9125C35.2366 26.8347 35.2074 26.7472 35.2074 26.65V6.9307C35.2074 6.83347 35.2366 6.75568 35.2949 6.69734C35.3727 6.61955 35.4602 6.58066 35.5575 6.58066H38.8537C39.0482 6.58066 39.1843 6.65844 39.2621 6.81402L46.7881 19.2406C46.827 19.299 46.8659 19.3282 46.9048 19.3282C46.9437 19.3087 46.9631 19.2601 46.9631 19.1823L46.934 6.9307ZM71.8232 6.81402C71.9205 6.65844 72.0566 6.58066 72.2316 6.58066H75.6446C75.7418 6.58066 75.8196 6.61955 75.8779 6.69734C75.9557 6.75568 75.9946 6.83347 75.9946 6.9307V26.65C75.9946 26.7472 75.9557 26.8347 75.8779 26.9125C75.8196 26.9708 75.7418 27 75.6446 27H72.2316C72.1344 27 72.0469 26.9708 71.9691 26.9125C71.9107 26.8347 71.8816 26.7472 71.8816 26.65V13.7858C71.8816 13.708 71.8621 13.6691 71.8232 13.6691C71.7843 13.6691 71.7454 13.6983 71.7065 13.7566L68.6145 18.5989C68.5172 18.7545 68.3811 18.8323 68.2061 18.8323H66.485C66.31 18.8323 66.1739 18.7545 66.0766 18.5989L62.9846 13.7566C62.9457 13.6983 62.9068 13.6788 62.8679 13.6983C62.829 13.6983 62.8095 13.7371 62.8095 13.8149V26.65C62.8095 26.7472 62.7706 26.8347 62.6929 26.9125C62.6345 26.9708 62.5567 27 62.4595 27H59.0465C58.9493 27 58.8618 26.9708 58.784 26.9125C58.7257 26.8347 58.6965 26.7472 58.6965 26.65V6.9307C58.6965 6.83347 58.7257 6.75568 58.784 6.69734C58.8618 6.61955 58.9493 6.58066 59.0465 6.58066H62.4595C62.6345 6.58066 62.7706 6.65844 62.8679 6.81402L67.2435 13.6107C67.3018 13.7274 67.3601 13.7274 67.4185 13.6107L71.8232 6.81402ZM87.1623 12.3564C87.1623 12.2592 87.1915 12.1814 87.2498 12.123C87.3276 12.0453 87.4151 12.0064 87.5124 12.0064H90.9253C91.0226 12.0064 91.1004 12.0453 91.1587 12.123C91.2365 12.1814 91.2754 12.2592 91.2754 12.3564V26.65C91.2754 26.7472 91.2365 26.8347 91.1587 26.9125C91.1004 26.9708 91.0226 27 90.9253 27H87.5124C87.4151 27 87.3276 26.9708 87.2498 26.9125C87.1915 26.8347 87.1623 26.7472 87.1623 26.65V25.6582C87.1623 25.5998 87.1429 25.5706 87.104 25.5706C87.0651 25.5512 87.0262 25.5706 86.9873 25.629C86.2094 26.6791 85.0037 27.2042 83.3702 27.2042C81.8922 27.2042 80.6768 26.7569 79.7239 25.8624C78.771 24.9678 78.2945 23.7135 78.2945 22.0994V12.3564C78.2945 12.2592 78.3237 12.1814 78.382 12.123C78.4598 12.0453 78.5473 12.0064 78.6446 12.0064H82.0283C82.1256 12.0064 82.2034 12.0453 82.2617 12.123C82.3395 12.1814 82.3784 12.2592 82.3784 12.3564V21.0784C82.3784 21.8563 82.5826 22.4883 82.991 22.9745C83.4188 23.4606 84.0022 23.7037 84.7412 23.7037C85.4024 23.7037 85.9469 23.5093 86.3747 23.1203C86.8026 22.7119 87.0651 22.1869 87.1623 21.5451V12.3564ZM99.4117 27.2042C98.1087 27.2042 96.9711 27.0194 95.9987 26.65C95.0264 26.2805 94.2679 25.7651 93.7234 25.1039C93.1983 24.4427 92.9358 23.694 92.9358 22.8578V22.5661C92.9358 22.4689 92.965 22.3911 93.0233 22.3327C93.1011 22.2549 93.1886 22.216 93.2859 22.216H96.5238C96.621 22.216 96.6988 22.2549 96.7571 22.3327C96.8349 22.3911 96.8738 22.4689 96.8738 22.5661V22.5953C96.8738 23.0231 97.1072 23.3926 97.5739 23.7037C98.0601 23.9954 98.663 24.1413 99.3825 24.1413C100.044 24.1413 100.578 24.0149 100.987 23.7621C101.395 23.4898 101.599 23.1592 101.599 22.7703C101.599 22.4202 101.424 22.1577 101.074 21.9827C100.724 21.8077 100.151 21.6229 99.3533 21.4284C98.4393 21.1951 97.7198 20.9714 97.1947 20.7575C95.9501 20.3297 94.9583 19.8046 94.2193 19.1823C93.4803 18.56 93.1108 17.6654 93.1108 16.4986C93.1108 15.0595 93.6651 13.9219 94.7736 13.0857C95.9015 12.23 97.3892 11.8022 99.2366 11.8022C100.481 11.8022 101.57 12.0064 102.504 12.4148C103.437 12.8037 104.157 13.3579 104.662 14.0775C105.187 14.797 105.45 15.6138 105.45 16.5278C105.45 16.625 105.411 16.7125 105.333 16.7903C105.275 16.8487 105.197 16.8778 105.1 16.8778H101.979C101.881 16.8778 101.794 16.8487 101.716 16.7903C101.658 16.7125 101.629 16.625 101.629 16.5278C101.629 16.1 101.405 15.7402 100.958 15.4485C100.53 15.1568 99.9562 15.0109 99.2366 15.0109C98.5949 15.0109 98.0698 15.1276 97.6614 15.361C97.253 15.5943 97.0489 15.9152 97.0489 16.3236C97.0489 16.7125 97.2433 17.0042 97.6323 17.1987C98.0407 17.3932 98.7116 17.5974 99.645 17.8113C99.8589 17.8696 100.102 17.9377 100.374 18.0155C100.647 18.0738 100.938 18.1516 101.249 18.2489C102.63 18.6572 103.719 19.1823 104.517 19.8241C105.314 20.4658 105.712 21.3993 105.712 22.6244C105.712 24.0635 105.139 25.1914 103.991 26.0082C102.864 26.8055 101.337 27.2042 99.4117 27.2042ZM109.416 10.3145C108.755 10.3145 108.2 10.1006 107.753 9.67273C107.325 9.22545 107.111 8.67121 107.111 8.01001C107.111 7.32936 107.325 6.77513 107.753 6.34729C108.181 5.91946 108.735 5.70554 109.416 5.70554C110.096 5.70554 110.651 5.91946 111.078 6.34729C111.506 6.77513 111.72 7.32936 111.72 8.01001C111.72 8.67121 111.497 9.22545 111.049 9.67273C110.621 10.1006 110.077 10.3145 109.416 10.3145ZM107.666 27C107.568 27 107.481 26.9708 107.403 26.9125C107.345 26.8347 107.316 26.7472 107.316 26.65V12.3272C107.316 12.23 107.345 12.1522 107.403 12.0939C107.481 12.0161 107.568 11.9772 107.666 11.9772H111.078C111.176 11.9772 111.254 12.0161 111.312 12.0939C111.39 12.1522 111.429 12.23 111.429 12.3272V26.65C111.429 26.7472 111.39 26.8347 111.312 26.9125C111.254 26.9708 111.176 27 111.078 27H107.666ZM120.351 27.2334C118.796 27.2334 117.444 26.8444 116.297 26.0665C115.169 25.2887 114.362 24.2191 113.875 22.8578C113.545 21.8854 113.38 20.7381 113.38 19.4157C113.38 18.1127 113.545 16.9848 113.875 16.0319C114.342 14.7095 115.149 13.6691 116.297 12.9107C117.444 12.1522 118.796 11.773 120.351 11.773C121.907 11.773 123.268 12.1619 124.435 12.9398C125.621 13.7177 126.409 14.6998 126.798 15.886C126.954 16.3528 127.031 16.7028 127.031 16.9362V16.9945C127.031 17.1695 126.934 17.2765 126.74 17.3154L123.385 17.8113H123.327C123.152 17.8113 123.035 17.7141 122.977 17.5196L122.889 17.0529C122.753 16.5472 122.452 16.1291 121.985 15.7985C121.518 15.4679 120.964 15.3026 120.322 15.3026C119.7 15.3026 119.175 15.4582 118.747 15.7694C118.319 16.0805 118.018 16.5083 117.843 17.0529C117.629 17.6363 117.522 18.4336 117.522 19.4448C117.522 20.4561 117.619 21.2534 117.813 21.8368C117.988 22.4202 118.29 22.8772 118.718 23.2078C119.165 23.5384 119.7 23.7037 120.322 23.7037C120.925 23.7037 121.45 23.5482 121.897 23.237C122.364 22.9064 122.685 22.4591 122.86 21.8952C122.879 21.8563 122.889 21.7979 122.889 21.7201C122.909 21.7007 122.918 21.6715 122.918 21.6326C122.938 21.3993 123.074 21.302 123.327 21.3409L126.681 21.866C126.876 21.9049 126.973 22.0118 126.973 22.1869C126.973 22.3424 126.915 22.6341 126.798 23.062C126.39 24.3649 125.592 25.3859 124.406 26.1249C123.239 26.8639 121.888 27.2334 120.351 27.2334Z" fill="white"/>
</svg>
