<svg fill="none" xmlns="http://www.w3.org/2000/svg" viewBox="0 0 1073 615"><defs/><path d="M146 118c-2 0-2 1 0 2 22 11 33 30 33 57 0 22-8 40-23 51a99 99 0 01-61 17H5l-3-1-1-3V5l1-3 3-2h88c55 0 83 23 83 68 0 23-10 40-30 50zM52 43c-1 0-2 0-2 2v54l2 2h41c11 0 19-3 25-8s9-12 9-21-3-16-9-21c-6-6-14-8-25-8H52zm43 160c11 0 20-3 26-8 6-6 9-13 9-23s-3-17-9-22c-6-6-15-9-26-9H52l-2 2v58l2 2h43zm257-85v2c23 11 34 30 34 57 0 22-8 40-23 51a99 99 0 01-61 17h-91l-3-1-1-3V5l1-3 3-2h88c55 0 83 23 83 68 0 23-10 40-30 50zm-94-75c-1 0-2 0-2 2v54l2 2h41c11 0 20-3 26-8s9-12 9-21-3-16-9-21c-6-6-15-8-26-8h-41zm44 160c11 0 19-3 25-8 6-6 9-13 9-23s-3-17-9-22c-6-6-14-9-25-9h-44l-2 2v58l2 2h44zM554 5l1-3 4-2h41l2 2c1 1 2 1 2 3v236l-2 3-2 1h-40c-2 0-4 0-5-2L464 93l-1-1-1 2 1 147-1 3-3 1h-41l-3-1-1-3V5l1-3 3-2h39c3 0 4 1 5 3l91 149 1 1 1-1-1-147zM131 305l1-3 3-2h41l3 2 1 3v236l-1 3-3 1h-41l-3-1-1-3v-96c0-2-1-2-2-2H52c-1 0-2 0-2 2v96l-1 3-3 1H5l-3-1-1-3V305l1-3 3-2h41l3 2 1 3v94l2 2h77l2-2v-94zm155 243a77 77 0 01-79-57 130 130 0 010-73c5-17 15-31 29-41 14-9 31-14 51-14 19 0 35 5 49 14 13 10 23 23 28 41a120 120 0 011 72c-5 18-15 32-29 43a81 81 0 01-50 15zm0-42c8 0 14-2 20-7 5-5 9-11 11-19s3-16 3-25c0-10-1-18-3-25-2-8-6-14-12-18-5-5-11-7-19-7s-15 2-20 7c-5 4-9 10-11 18-2 6-3 14-3 25l2 25c3 8 6 14 12 19 5 5 12 7 20 7zm109 39l-3-1-1-3V305l1-3 3-2h41l3 2 1 3v236l-1 3-3 1h-41zm183-240l1-3 3-2h41l3 2 1 3v236l-1 3-3 1h-41l-3-1-1-3v-11l-1-1h-1a48 48 0 01-41 19c-16 0-30-4-42-13-12-10-20-22-25-38-4-12-6-26-6-42 0-17 2-31 6-44a69 69 0 0168-49c17 1 30 7 40 18l1 1 1-1v-75zm-8 186c5-9 7-21 7-36s-2-27-7-36c-6-9-14-14-24-14-11 0-19 5-25 14s-8 21-8 37c0 14 2 26 7 35 6 10 14 15 26 15 10 0 18-5 24-15zm110-146c-8 0-14-2-20-7-5-6-7-12-7-20 0-9 2-15 7-20 6-5 12-8 20-8s15 3 20 8 8 11 8 20a27 27 0 01-28 27zm-21 200l-3-1-1-3V369l1-2 3-2h41l3 2 1 2v172l-1 3-3 1h-41zm167-182c19 0 34 5 45 17 12 11 18 27 18 46v115l-2 3-3 1h-41l-3-1-1-3V437c0-10-3-17-8-23s-12-9-21-9c-8 0-15 3-21 9-5 6-7 13-7 23v104l-2 3-2 1h-41l-4-1-1-3V370l1-3 4-1h41l2 1 2 3v13h2c9-13 23-20 42-20zm197 7l1-3 3-1h41l3 1 2 3v159c0 31-9 53-27 66s-40 19-68 19l-27-1c-3-1-4-2-4-5l2-36c0-3 1-4 5-4 8 2 16 2 23 2 15 0 26-3 34-10 8-6 12-17 12-31v-1h-2c-9 10-22 15-39 15-15 0-29-4-42-11-12-8-21-20-27-36-3-11-5-25-5-42 0-18 2-33 6-44 5-14 14-26 25-34 12-9 25-13 41-13 18 0 32 5 41 16l2 1v-10zm-3 113a152 152 0 002-45l-2-12c-2-6-6-11-10-15-5-4-11-6-19-6-7 0-13 2-17 6-5 4-9 9-11 15-4 7-5 17-5 28 0 14 1 23 4 28 2 7 6 12 11 16s11 5 19 5c7 0 13-1 18-5s9-9 10-15z" fill="#FFFEFD"/></svg>