<svg width="250" height="35" viewBox="0 0 250 35" fill="none" xmlns="http://www.w3.org/2000/svg">
<path d="M12.8852 16.3528C12.7685 16.4111 12.7685 16.4695 12.8852 16.5278C14.7326 17.4807 15.6564 19.0656 15.6564 21.2826C15.6564 23.1689 15.0146 24.5983 13.7311 25.5706C12.4476 26.5235 10.7654 27 8.6846 27H1.12945C1.03221 27 0.944699 26.9708 0.866911 26.9125C0.808571 26.8347 0.7794 26.7472 0.7794 26.65V6.9307C0.7794 6.83347 0.808571 6.75568 0.866911 6.69734C0.944699 6.61955 1.03221 6.58066 1.12945 6.58066H8.45124C13.0602 6.58066 15.3646 8.44757 15.3646 12.1814C15.3646 14.1261 14.5381 15.5165 12.8852 16.3528ZM5.03829 10.1103C4.94106 10.1103 4.89244 10.1589 4.89244 10.2561V14.8067C4.89244 14.904 4.94106 14.9526 5.03829 14.9526H8.45124C9.36525 14.9526 10.0751 14.7387 10.5807 14.3108C11.0863 13.883 11.3391 13.2996 11.3391 12.5606C11.3391 11.8022 11.0863 11.209 10.5807 10.7812C10.0751 10.3339 9.36525 10.1103 8.45124 10.1103H5.03829ZM8.6846 23.4412C9.57917 23.4412 10.2793 23.2176 10.7849 22.7703C11.2905 22.3036 11.5433 21.6715 11.5433 20.8742C11.5433 20.0769 11.2905 19.4546 10.7849 19.0073C10.2793 18.5406 9.56944 18.3072 8.65543 18.3072H5.03829C4.94106 18.3072 4.89244 18.3558 4.89244 18.453V23.2953C4.89244 23.3926 4.94106 23.4412 5.03829 23.4412H8.6846ZM30.0992 16.3528C29.9825 16.4111 29.9825 16.4695 30.0992 16.5278C31.9466 17.4807 32.8704 19.0656 32.8704 21.2826C32.8704 23.1689 32.2286 24.5983 30.9451 25.5706C29.6616 26.5235 27.9794 27 25.8986 27H18.3435C18.2462 27 18.1587 26.9708 18.0809 26.9125C18.0226 26.8347 17.9934 26.7472 17.9934 26.65V6.9307C17.9934 6.83347 18.0226 6.75568 18.0809 6.69734C18.1587 6.61955 18.2462 6.58066 18.3435 6.58066H25.6652C30.2742 6.58066 32.5787 8.44757 32.5787 12.1814C32.5787 14.1261 31.7522 15.5165 30.0992 16.3528ZM22.2523 10.1103C22.1551 10.1103 22.1064 10.1589 22.1064 10.2561V14.8067C22.1064 14.904 22.1551 14.9526 22.2523 14.9526H25.6652C26.5793 14.9526 27.2891 14.7387 27.7947 14.3108C28.3003 13.883 28.5531 13.2996 28.5531 12.5606C28.5531 11.8022 28.3003 11.209 27.7947 10.7812C27.2891 10.3339 26.5793 10.1103 25.6652 10.1103H22.2523ZM25.8986 23.4412C26.7932 23.4412 27.4933 23.2176 27.9989 22.7703C28.5045 22.3036 28.7573 21.6715 28.7573 20.8742C28.7573 20.0769 28.5045 19.4546 27.9989 19.0073C27.4933 18.5406 26.7835 18.3072 25.8694 18.3072H22.2523C22.1551 18.3072 22.1064 18.3558 22.1064 18.453V23.2953C22.1064 23.3926 22.1551 23.4412 22.2523 23.4412H25.8986ZM46.934 6.9307C46.934 6.83347 46.9631 6.75568 47.0215 6.69734C47.0993 6.61955 47.1868 6.58066 47.284 6.58066H50.6969C50.7942 6.58066 50.872 6.61955 50.9303 6.69734C51.0081 6.75568 51.047 6.83347 51.047 6.9307V26.65C51.047 26.7472 51.0081 26.8347 50.9303 26.9125C50.872 26.9708 50.7942 27 50.6969 27H47.4007C47.2062 27 47.0701 26.9222 46.9923 26.7666L39.4371 14.2817C39.3982 14.2233 39.3593 14.2039 39.3205 14.2233C39.2816 14.2233 39.2621 14.2622 39.2621 14.34L39.3205 26.65C39.3205 26.7472 39.2816 26.8347 39.2038 26.9125C39.1454 26.9708 39.0676 27 38.9704 27H35.5575C35.4602 27 35.3727 26.9708 35.2949 26.9125C35.2366 26.8347 35.2074 26.7472 35.2074 26.65V6.9307C35.2074 6.83347 35.2366 6.75568 35.2949 6.69734C35.3727 6.61955 35.4602 6.58066 35.5575 6.58066H38.8537C39.0482 6.58066 39.1843 6.65844 39.2621 6.81402L46.7881 19.2406C46.827 19.299 46.8659 19.3282 46.9048 19.3282C46.9437 19.3087 46.9631 19.2601 46.9631 19.1823L46.934 6.9307ZM63.2179 27C63.004 27 62.8679 26.9028 62.8095 26.7083L57.6464 6.95987L57.6172 6.84319C57.6172 6.66817 57.7241 6.58066 57.9381 6.58066H61.5552C61.7497 6.58066 61.8761 6.67789 61.9344 6.87236L64.7056 18.7448C64.7251 18.8225 64.7542 18.8614 64.7931 18.8614C64.832 18.8614 64.8612 18.8225 64.8806 18.7448L67.5643 6.90153C67.6227 6.68761 67.7491 6.58066 67.9435 6.58066H71.4732C71.6871 6.58066 71.8232 6.67789 71.8816 6.87236L74.7986 18.7448C74.8181 18.8031 74.8472 18.842 74.8861 18.8614C74.925 18.8614 74.9542 18.8225 74.9736 18.7448L77.6573 6.90153C77.7157 6.68761 77.8421 6.58066 78.0365 6.58066H81.4787C81.7509 6.58066 81.8579 6.70706 81.7995 6.95987L77.0156 26.7083C76.9572 26.9028 76.8211 27 76.6072 27H73.1359C72.9414 27 72.815 26.9028 72.7567 26.7083L69.7813 14.0775C69.7618 13.9997 69.7327 13.9608 69.6938 13.9608C69.6549 13.9608 69.6257 13.9997 69.6063 14.0775L66.8351 26.6791C66.7962 26.893 66.6698 27 66.4558 27H63.2179ZM87.3823 11.773C88.6463 11.773 89.7742 11.9966 90.766 12.4439C91.7578 12.8718 92.526 13.4649 93.0705 14.2233C93.6345 14.9818 93.9165 15.8277 93.9165 16.7612V26.65C93.9165 26.7472 93.8776 26.8347 93.7998 26.9125C93.7414 26.9708 93.6636 27 93.5664 27H90.1535C90.0562 27 89.9687 26.9708 89.8909 26.9125C89.8326 26.8347 89.8034 26.7472 89.8034 26.65V25.6873C89.8034 25.629 89.784 25.5901 89.7451 25.5706C89.7062 25.5512 89.6673 25.5706 89.6284 25.629C88.8116 26.6986 87.4989 27.2334 85.6904 27.2334C84.1735 27.2334 82.9483 26.8639 82.0149 26.1249C81.0814 25.3859 80.6147 24.2969 80.6147 22.8578C80.6147 21.3604 81.1398 20.2033 82.1899 19.3865C83.2401 18.5503 84.7375 18.1322 86.6822 18.1322H89.6576C89.7548 18.1322 89.8034 18.0836 89.8034 17.9863V17.3446C89.8034 16.7028 89.6089 16.2069 89.22 15.8569C88.8311 15.4874 88.2477 15.3026 87.4698 15.3026C86.8669 15.3026 86.3613 15.4096 85.9529 15.6235C85.564 15.8374 85.3112 16.1389 85.1945 16.5278C85.1361 16.7417 85.0097 16.8389 84.8153 16.8195L81.2856 16.3528C81.0523 16.3139 80.9453 16.2264 80.9648 16.0902C81.0425 15.2735 81.3634 14.5345 81.9274 13.8733C82.5108 13.2121 83.2692 12.6967 84.2027 12.3272C85.1556 11.9578 86.2154 11.773 87.3823 11.773ZM86.7989 24.1705C87.6351 24.1705 88.3449 23.9468 88.9283 23.4995C89.5117 23.0523 89.8034 22.4786 89.8034 21.7785V20.7283C89.8034 20.6311 89.7548 20.5825 89.6576 20.5825H87.5573C86.6822 20.5825 85.9918 20.7478 85.4862 21.0784C85 21.409 84.7569 21.8757 84.7569 22.4786C84.7569 23.0036 84.9417 23.4218 85.3112 23.7329C85.6806 24.0246 86.1765 24.1705 86.7989 24.1705ZM96.2886 27C96.1914 27 96.1039 26.9708 96.0261 26.9125C95.9677 26.8347 95.9386 26.7472 95.9386 26.65V6.9307C95.9386 6.83347 95.9677 6.75568 96.0261 6.69734C96.1039 6.61955 96.1914 6.58066 96.2886 6.58066H99.7016C99.7988 6.58066 99.8766 6.61955 99.9349 6.69734C100.013 6.75568 100.052 6.83347 100.052 6.9307V26.65C100.052 26.7472 100.013 26.8347 99.9349 26.9125C99.8766 26.9708 99.7988 27 99.7016 27H96.2886ZM102.535 27C102.438 27 102.35 26.9708 102.273 26.9125C102.214 26.8347 102.185 26.7472 102.185 26.65V6.9307C102.185 6.83347 102.214 6.75568 102.273 6.69734C102.35 6.61955 102.438 6.58066 102.535 6.58066H105.948C106.045 6.58066 106.123 6.61955 106.181 6.69734C106.259 6.75568 106.298 6.83347 106.298 6.9307V26.65C106.298 26.7472 106.259 26.8347 106.181 26.9125C106.123 26.9708 106.045 27 105.948 27H102.535ZM121.704 17.9571C121.821 18.6961 121.86 19.5226 121.821 20.4366C121.802 20.67 121.675 20.7867 121.442 20.7867H112.428C112.311 20.7867 112.273 20.8353 112.311 20.9325C112.37 21.3215 112.477 21.7104 112.632 22.0994C113.138 23.1884 114.169 23.7329 115.724 23.7329C116.969 23.7135 117.951 23.2078 118.671 22.216C118.748 22.0994 118.836 22.041 118.933 22.041C118.991 22.041 119.06 22.0799 119.137 22.1577L121.238 24.2288C121.335 24.326 121.383 24.4135 121.383 24.4913C121.383 24.5302 121.345 24.608 121.267 24.7247C120.625 25.522 119.798 26.1443 118.787 26.5916C117.776 27.0194 116.668 27.2334 115.462 27.2334C113.789 27.2334 112.37 26.8541 111.203 26.0957C110.056 25.3373 109.229 24.2774 108.723 22.9161C108.315 21.9438 108.111 20.67 108.111 19.0948C108.111 18.0252 108.257 17.082 108.548 16.2653C108.996 14.8845 109.774 13.7858 110.882 12.969C112.01 12.1522 113.342 11.7438 114.878 11.7438C116.823 11.7438 118.379 12.3078 119.546 13.4357C120.732 14.5636 121.451 16.0708 121.704 17.9571ZM114.908 15.3026C113.682 15.3026 112.875 15.8763 112.486 17.0237C112.409 17.2765 112.341 17.5877 112.282 17.9571C112.282 18.0544 112.331 18.103 112.428 18.103H117.475C117.591 18.103 117.63 18.0544 117.591 17.9571C117.494 17.3932 117.445 17.1209 117.445 17.1404C117.27 16.557 116.959 16.1097 116.512 15.7985C116.084 15.4679 115.549 15.3026 114.908 15.3026ZM131.744 14.9526C131.744 15.0498 131.705 15.1373 131.628 15.2151C131.569 15.2735 131.491 15.3026 131.394 15.3026H128.594C128.497 15.3026 128.448 15.3513 128.448 15.4485V21.6326C128.448 22.2744 128.574 22.7508 128.827 23.062C129.099 23.3731 129.527 23.5287 130.111 23.5287H131.073C131.171 23.5287 131.248 23.5676 131.307 23.6454C131.384 23.7037 131.423 23.7815 131.423 23.8788V26.65C131.423 26.8639 131.307 26.9903 131.073 27.0292C130.256 27.0681 129.673 27.0875 129.323 27.0875C127.709 27.0875 126.503 26.825 125.706 26.2999C124.909 25.7554 124.5 24.7441 124.481 23.2662V15.4485C124.481 15.3513 124.432 15.3026 124.335 15.3026H122.672C122.575 15.3026 122.487 15.2735 122.41 15.2151C122.351 15.1373 122.322 15.0498 122.322 14.9526V12.3564C122.322 12.2592 122.351 12.1814 122.41 12.123C122.487 12.0453 122.575 12.0064 122.672 12.0064H124.335C124.432 12.0064 124.481 11.9578 124.481 11.8605V8.38923C124.481 8.29199 124.51 8.2142 124.568 8.15586C124.646 8.07807 124.734 8.03918 124.831 8.03918H128.098C128.195 8.03918 128.273 8.07807 128.331 8.15586C128.409 8.2142 128.448 8.29199 128.448 8.38923V11.8605C128.448 11.9578 128.497 12.0064 128.594 12.0064H131.394C131.491 12.0064 131.569 12.0453 131.628 12.123C131.705 12.1814 131.744 12.2592 131.744 12.3564V14.9526Z" fill="white"/>
</svg>
