<svg width="1250" height="1126" viewBox="0 0 1250 1126" fill="none" xmlns="http://www.w3.org/2000/svg">
<path d="M184.812 200.285C183.259 201.062 183.259 201.838 184.812 202.615C209.402 215.298 221.696 236.393 221.696 265.901C221.696 291.009 213.155 310.033 196.071 322.975C178.988 335.658 156.598 342 128.902 342H28.343C27.0488 342 25.884 341.612 24.8486 340.835C24.0721 339.8 23.6839 338.635 23.6839 337.341V74.8771C23.6839 73.5829 24.0721 72.5475 24.8486 71.771C25.884 70.7357 27.0488 70.218 28.343 70.218H125.796C187.141 70.218 217.814 95.0666 217.814 144.764C217.814 170.648 206.813 189.155 184.812 200.285ZM80.3698 117.197C79.0756 117.197 78.4285 117.845 78.4285 119.139V179.707C78.4285 181.002 79.0756 181.649 80.3698 181.649H125.796C137.962 181.649 147.409 178.801 154.139 173.107C160.869 167.412 164.234 159.647 164.234 149.811C164.234 139.717 160.869 131.822 154.139 126.127C147.409 120.174 137.962 117.197 125.796 117.197H80.3698ZM128.902 294.632C140.809 294.632 150.127 291.656 156.857 285.702C163.587 279.49 166.952 271.078 166.952 260.465C166.952 249.853 163.587 241.57 156.857 235.617C150.127 229.405 140.68 226.299 128.514 226.299H80.3698C79.0756 226.299 78.4285 226.946 78.4285 228.24V292.691C78.4285 293.985 79.0756 294.632 80.3698 294.632H128.902ZM413.931 200.285C412.378 201.062 412.378 201.838 413.931 202.615C438.52 215.298 450.815 236.393 450.815 265.901C450.815 291.009 442.274 310.033 425.19 322.975C408.107 335.658 385.717 342 358.021 342H257.462C256.168 342 255.003 341.612 253.968 340.835C253.191 339.8 252.803 338.635 252.803 337.341V74.8771C252.803 73.5829 253.191 72.5475 253.968 71.771C255.003 70.7357 256.168 70.218 257.462 70.218H354.915C416.26 70.218 446.933 95.0666 446.933 144.764C446.933 170.648 435.932 189.155 413.931 200.285ZM309.489 117.197C308.195 117.197 307.547 117.845 307.547 119.139V179.707C307.547 181.002 308.195 181.649 309.489 181.649H354.915C367.081 181.649 376.528 178.801 383.258 173.107C389.988 167.412 393.353 159.647 393.353 149.811C393.353 139.717 389.988 131.822 383.258 126.127C376.528 120.174 367.081 117.197 354.915 117.197H309.489ZM358.021 294.632C369.928 294.632 379.246 291.656 385.976 285.702C392.706 279.49 396.071 271.078 396.071 260.465C396.071 249.853 392.706 241.57 385.976 235.617C379.246 229.405 369.798 226.299 357.633 226.299H309.489C308.195 226.299 307.547 226.946 307.547 228.24V292.691C307.547 293.985 308.195 294.632 309.489 294.632H358.021ZM638.002 74.8771C638.002 73.5829 638.39 72.5475 639.167 71.771C640.202 70.7357 641.367 70.218 642.661 70.218H688.088C689.382 70.218 690.417 70.7357 691.194 71.771C692.229 72.5475 692.747 73.5829 692.747 74.8771V337.341C692.747 338.635 692.229 339.8 691.194 340.835C690.417 341.612 689.382 342 688.088 342H644.214C641.626 342 639.814 340.965 638.779 338.894L538.219 172.719C537.702 171.942 537.184 171.683 536.666 171.942C536.149 171.942 535.89 172.46 535.89 173.495L536.666 337.341C536.666 338.635 536.149 339.8 535.113 340.835C534.337 341.612 533.301 342 532.007 342H486.581C485.287 342 484.122 341.612 483.086 340.835C482.31 339.8 481.922 338.635 481.922 337.341V74.8771C481.922 73.5829 482.31 72.5475 483.086 71.771C484.122 70.7357 485.287 70.218 486.581 70.218H530.454C533.043 70.218 534.854 71.2533 535.89 73.3241L636.061 238.723C636.579 239.499 637.096 239.888 637.614 239.888C638.132 239.629 638.39 238.982 638.39 237.946L638.002 74.8771ZM119.196 720.106C99.2651 720.106 81.664 716.094 66.3925 708.07C51.1209 700.046 39.2143 688.916 30.6725 674.68C22.3897 660.185 18.2482 643.489 18.2482 624.594V537.624C18.2482 518.729 22.3897 502.033 30.6725 487.538C39.2143 473.043 51.1209 461.913 66.3925 454.148C81.664 446.124 99.2651 442.112 119.196 442.112C138.868 442.112 156.21 445.995 171.223 453.76C186.494 461.525 198.271 472.137 206.554 485.597C215.096 498.798 219.367 513.552 219.367 529.859V532.576C219.367 533.871 218.849 535.035 217.814 536.071C217.037 536.847 216.002 537.236 214.708 537.236H169.281C167.987 537.236 166.822 536.847 165.787 536.071C165.011 535.035 164.622 533.871 164.622 532.576V531.412C164.622 519.505 160.481 509.54 152.198 501.516C143.915 493.233 132.914 489.091 119.196 489.091C105.218 489.091 93.9589 493.492 85.4172 502.292C77.1343 510.834 72.9929 522.093 72.9929 536.071V626.147C72.9929 640.125 77.5226 651.513 86.582 660.314C95.6414 668.856 107.16 673.127 121.137 673.127C134.597 673.127 145.339 669.632 153.363 662.644C161.387 655.396 165.399 645.431 165.399 632.748V615.276C165.399 613.982 164.752 613.335 163.457 613.335H119.972C118.678 613.335 117.513 612.946 116.478 612.17C115.701 611.134 115.313 609.97 115.313 608.675V572.956C115.313 571.661 115.701 570.626 116.478 569.849C117.513 568.814 118.678 568.296 119.972 568.296H214.708C216.002 568.296 217.037 568.814 217.814 569.849C218.849 570.626 219.367 571.661 219.367 572.956V624.206C219.367 643.878 215.225 660.961 206.943 675.456C198.66 689.951 186.883 701.081 171.611 708.847C156.598 716.353 139.127 720.106 119.196 720.106ZM324.731 514.328C341.556 514.328 356.568 517.305 369.769 523.258C382.97 528.953 393.194 536.847 400.442 546.942C407.948 557.037 411.701 568.296 411.701 580.721V712.341C411.701 713.635 411.184 714.8 410.148 715.835C409.372 716.612 408.336 717 407.042 717H361.616C360.321 717 359.157 716.612 358.121 715.835C357.345 714.8 356.957 713.635 356.957 712.341V699.528C356.957 698.752 356.698 698.234 356.18 697.975C355.662 697.716 355.145 697.975 354.627 698.752C343.756 712.988 326.284 720.106 302.212 720.106C282.022 720.106 265.715 715.188 253.291 705.352C240.867 695.516 234.655 681.021 234.655 661.867C234.655 641.936 241.643 626.535 255.621 615.664C269.598 604.534 289.529 598.969 315.413 598.969H355.015C356.309 598.969 356.957 598.322 356.957 597.028V588.486C356.957 579.944 354.368 573.344 349.191 568.685C344.015 563.767 336.249 561.308 325.896 561.308C317.872 561.308 311.142 562.731 305.706 565.579C300.529 568.426 297.165 572.438 295.611 577.615C294.835 580.462 293.152 581.756 290.564 581.497L243.585 575.285C240.479 574.767 239.055 573.603 239.314 571.791C240.349 560.919 244.62 551.084 252.126 542.283C259.892 533.482 269.986 526.623 282.411 521.705C295.094 516.787 309.201 514.328 324.731 514.328ZM316.966 679.339C328.096 679.339 337.544 676.362 345.309 670.409C353.074 664.455 356.957 656.82 356.957 647.501V633.524C356.957 632.23 356.309 631.583 355.015 631.583H327.061C315.413 631.583 306.224 633.783 299.494 638.183C293.023 642.583 289.788 648.796 289.788 656.82C289.788 663.808 292.247 669.373 297.165 673.515C302.082 677.397 308.683 679.339 316.966 679.339ZM659.924 514.328C680.113 514.328 695.902 520.411 707.291 532.576C718.68 544.742 724.375 561.825 724.375 583.827V712.341C724.375 713.635 723.857 714.8 722.822 715.835C722.045 716.612 721.01 717 719.716 717H674.289C672.995 717 671.83 716.612 670.795 715.835C670.018 714.8 669.63 713.635 669.63 712.341V595.863C669.63 585.25 666.912 576.838 661.477 570.626C656.041 564.414 648.794 561.308 639.734 561.308C630.675 561.308 623.298 564.414 617.603 570.626C611.909 576.838 609.062 585.121 609.062 595.475V712.341C609.062 713.635 608.544 714.8 607.509 715.835C606.732 716.612 605.697 717 604.403 717H559.364C558.07 717 556.905 716.612 555.87 715.835C555.094 714.8 554.705 713.635 554.705 712.341V595.863C554.705 585.509 551.858 577.226 546.164 571.014C540.469 564.543 533.092 561.308 524.033 561.308C515.75 561.308 508.761 563.767 503.067 568.685C497.631 573.603 494.396 580.462 493.36 589.262V712.341C493.36 713.635 492.842 714.8 491.807 715.835C491.031 716.612 489.995 717 488.701 717H443.275C441.98 717 440.816 716.612 439.78 715.835C439.004 714.8 438.616 713.635 438.616 712.341V522.093C438.616 520.799 439.004 519.764 439.78 518.987C440.816 517.952 441.98 517.434 443.275 517.434H488.701C489.995 517.434 491.031 517.952 491.807 518.987C492.842 519.764 493.36 520.799 493.36 522.093V537.236C493.36 538.012 493.619 538.53 494.137 538.789C494.654 539.047 495.172 538.789 495.69 538.012C506.302 522.223 522.739 514.328 544.999 514.328C557.941 514.328 569.2 517.046 578.777 522.482C588.613 527.917 596.12 535.683 601.296 545.777C602.073 547.33 602.979 547.33 604.014 545.777C609.709 535.165 617.345 527.27 626.922 522.093C636.758 516.917 647.758 514.328 659.924 514.328ZM926.671 596.639C928.224 606.475 928.741 617.476 928.224 629.641C927.965 632.748 926.282 634.301 923.176 634.301H803.204C801.651 634.301 801.133 634.948 801.651 636.242C802.427 641.419 803.851 646.596 805.922 651.772C812.652 666.267 826.37 673.515 847.077 673.515C863.643 673.256 876.714 666.526 886.291 653.325C887.327 651.772 888.492 650.996 889.786 650.996C890.562 650.996 891.468 651.513 892.504 652.549L920.458 680.115C921.753 681.409 922.4 682.574 922.4 683.61C922.4 684.127 921.882 685.163 920.847 686.716C912.305 697.328 901.304 705.611 887.845 711.564C874.385 717.259 859.631 720.106 843.583 720.106C821.323 720.106 802.427 715.059 786.897 704.964C771.625 694.869 760.625 680.762 753.895 662.644C748.459 649.702 745.741 632.748 745.741 611.782C745.741 597.545 747.683 584.992 751.565 574.12C757.519 555.743 767.872 541.118 782.626 530.247C797.639 519.376 815.369 513.94 835.818 513.94C861.702 513.94 882.409 521.446 897.939 536.459C913.729 551.472 923.306 571.532 926.671 596.639ZM836.206 561.308C819.899 561.308 809.157 568.944 803.98 584.215C802.945 587.58 802.039 591.721 801.263 596.639C801.263 597.934 801.91 598.581 803.204 598.581H870.373C871.926 598.581 872.444 597.934 871.926 596.639C870.632 589.133 869.985 585.509 869.985 585.768C867.655 578.003 863.514 572.05 857.56 567.908C851.866 563.508 844.748 561.308 836.206 561.308ZM116.866 1094.11C96.1591 1094.11 78.0403 1090.87 62.5099 1084.4C46.9795 1077.67 34.9434 1068.22 26.4017 1056.06C18.1188 1043.63 13.9774 1029.27 13.9774 1012.96V1004.42C13.9774 1003.12 14.3656 1002.09 15.1421 1001.31C16.1775 1000.28 17.3423 999.759 18.6365 999.759H62.8981C64.1923 999.759 65.2277 1000.28 66.0042 1001.31C67.0396 1002.09 67.5572 1003.12 67.5572 1004.42V1010.24C67.5572 1020.6 72.3458 1029.4 81.9229 1036.64C91.4999 1043.63 104.442 1047.13 120.749 1047.13C134.467 1047.13 144.692 1044.28 151.421 1038.58C158.151 1032.63 161.516 1025.38 161.516 1016.84C161.516 1010.63 159.445 1005.45 155.304 1001.31C151.163 996.912 145.468 993.158 138.221 990.052C131.232 986.687 119.972 982.158 104.442 976.463C87.0997 970.51 72.3458 964.427 60.1803 958.215C48.2737 952.003 38.1789 943.591 29.896 932.978C21.872 922.107 17.86 908.777 17.86 892.987C17.86 877.457 21.872 863.868 29.896 852.22C37.9201 840.572 49.0502 831.642 63.2864 825.43C77.5226 819.218 93.9589 816.112 112.595 816.112C132.267 816.112 149.739 819.606 165.011 826.595C180.541 833.584 192.577 843.42 201.119 856.103C209.919 868.527 214.32 883.022 214.32 899.588V905.412C214.32 906.706 213.802 907.871 212.766 908.906C211.99 909.683 210.955 910.071 209.66 910.071H165.011C163.716 910.071 162.552 909.683 161.516 908.906C160.74 907.871 160.351 906.706 160.351 905.412V902.306C160.351 891.434 155.822 882.246 146.762 874.739C137.962 866.974 125.796 863.091 110.266 863.091C98.1004 863.091 88.5233 865.68 81.5346 870.857C74.8048 876.033 71.4398 883.151 71.4398 892.211C71.4398 898.682 73.3811 904.118 77.2637 908.518C81.4052 912.918 87.3585 916.93 95.1237 920.554C103.148 923.919 115.443 928.578 132.008 934.531C150.386 941.261 164.752 947.214 175.105 952.391C185.718 957.568 195.165 965.333 203.448 975.687C211.99 985.782 216.261 998.982 216.261 1015.29C216.261 1039.62 207.331 1058.9 189.471 1073.14C171.611 1087.12 147.409 1094.11 116.866 1094.11ZM353.987 930.649C353.987 931.943 353.469 933.108 352.434 934.143C351.657 934.919 350.622 935.308 349.328 935.308H312.055C310.761 935.308 310.114 935.955 310.114 937.249V1019.56C310.114 1028.1 311.796 1034.44 315.161 1038.58C318.785 1042.73 324.479 1044.8 332.244 1044.8H345.057C346.351 1044.8 347.387 1045.31 348.163 1046.35C349.198 1047.13 349.716 1048.16 349.716 1049.46V1086.34C349.716 1089.19 348.163 1090.87 345.057 1091.39C334.186 1091.91 326.421 1092.16 321.761 1092.16C300.278 1092.16 284.23 1088.67 273.617 1081.68C263.005 1074.43 257.569 1060.97 257.31 1041.3V937.249C257.31 935.955 256.663 935.308 255.369 935.308H233.238C231.944 935.308 230.779 934.919 229.744 934.143C228.967 933.108 228.579 931.943 228.579 930.649V896.093C228.579 894.799 228.967 893.764 229.744 892.987C230.779 891.952 231.944 891.434 233.238 891.434H255.369C256.663 891.434 257.31 890.787 257.31 889.493V843.29C257.31 841.996 257.698 840.961 258.475 840.184C259.51 839.149 260.675 838.631 261.969 838.631H305.454C306.749 838.631 307.784 839.149 308.561 840.184C309.596 840.961 310.114 841.996 310.114 843.29V889.493C310.114 890.787 310.761 891.434 312.055 891.434H349.328C350.622 891.434 351.657 891.952 352.434 892.987C353.469 893.764 353.987 894.799 353.987 896.093V930.649ZM491.774 896.093C491.774 894.799 492.162 893.764 492.939 892.987C493.974 891.952 495.139 891.434 496.433 891.434H541.859C543.154 891.434 544.189 891.952 544.965 892.987C546.001 893.764 546.518 894.799 546.518 896.093V1086.34C546.518 1087.64 546.001 1088.8 544.965 1089.84C544.189 1090.61 543.154 1091 541.859 1091H496.433C495.139 1091 493.974 1090.61 492.939 1089.84C492.162 1088.8 491.774 1087.64 491.774 1086.34V1073.14C491.774 1072.36 491.515 1071.98 490.997 1071.98C490.48 1071.72 489.962 1071.98 489.444 1072.75C479.091 1086.73 463.043 1093.72 441.3 1093.72C421.628 1093.72 405.451 1087.76 392.767 1075.86C380.084 1063.95 373.743 1047.26 373.743 1025.77V896.093C373.743 894.799 374.131 893.764 374.907 892.987C375.943 891.952 377.108 891.434 378.402 891.434H423.44C424.734 891.434 425.77 891.952 426.546 892.987C427.581 893.764 428.099 894.799 428.099 896.093V1012.18C428.099 1022.54 430.817 1030.95 436.253 1037.42C441.947 1043.89 449.712 1047.13 459.548 1047.13C468.349 1047.13 475.596 1044.54 481.291 1039.36C486.985 1033.93 490.48 1026.94 491.774 1018.4V896.093ZM699.074 823.877C699.074 822.583 699.463 821.548 700.239 820.771C701.274 819.736 702.439 819.218 703.733 819.218H749.16C750.454 819.218 751.489 819.736 752.266 820.771C753.301 821.548 753.819 822.583 753.819 823.877V1086.34C753.819 1087.64 753.301 1088.8 752.266 1089.84C751.489 1090.61 750.454 1091 749.16 1091H703.733C702.439 1091 701.274 1090.61 700.239 1089.84C699.463 1088.8 699.074 1087.64 699.074 1086.34V1073.53C699.074 1072.75 698.815 1072.36 698.298 1072.36C697.78 1072.1 697.262 1072.23 696.745 1072.75C685.873 1086.99 670.99 1094.11 652.095 1094.11C633.976 1094.11 618.316 1089.06 605.115 1078.96C592.173 1068.87 582.855 1055.02 577.161 1037.42C572.76 1023.96 570.56 1008.3 570.56 990.441C570.56 972.063 572.89 956.015 577.549 942.296C583.502 925.731 592.82 912.659 605.504 903.082C618.446 893.246 634.364 888.328 653.26 888.328C671.896 888.328 686.391 894.799 696.745 907.741C697.262 908.518 697.78 908.777 698.298 908.518C698.815 908.259 699.074 907.741 699.074 906.965V823.877ZM690.921 1030.43C696.098 1020.85 698.686 1007.78 698.686 991.217C698.686 973.875 695.839 960.286 690.144 950.45C684.191 940.355 675.52 935.308 664.131 935.308C651.965 935.308 642.777 940.355 636.564 950.45C630.093 960.545 626.858 974.263 626.858 991.605C626.858 1007.14 629.576 1020.08 635.011 1030.43C641.482 1041.56 651.059 1047.13 663.743 1047.13C675.39 1047.13 684.45 1041.56 690.921 1030.43ZM812.992 868.915C804.192 868.915 796.815 866.068 790.861 860.374C785.167 854.42 782.32 847.043 782.32 838.243C782.32 829.183 785.167 821.806 790.861 816.112C796.556 810.417 803.933 807.57 812.992 807.57C822.052 807.57 829.429 810.417 835.123 816.112C840.818 821.806 843.665 829.183 843.665 838.243C843.665 847.043 840.688 854.42 834.735 860.374C829.04 866.068 821.793 868.915 812.992 868.915ZM789.697 1091C788.402 1091 787.238 1090.61 786.202 1089.84C785.426 1088.8 785.037 1087.64 785.037 1086.34V895.705C785.037 894.411 785.426 893.376 786.202 892.599C787.238 891.564 788.402 891.046 789.697 891.046H835.123C836.417 891.046 837.453 891.564 838.229 892.599C839.264 893.376 839.782 894.411 839.782 895.705V1086.34C839.782 1087.64 839.264 1088.8 838.229 1089.84C837.453 1090.61 836.417 1091 835.123 1091H789.697ZM958.932 1094.11C937.19 1094.11 918.553 1088.41 903.023 1077.02C887.493 1065.63 876.88 1050.1 871.186 1030.43C867.562 1018.27 865.75 1005.07 865.75 990.829C865.75 975.557 867.562 961.839 871.186 949.673C877.139 930.519 887.881 915.506 903.411 904.635C918.942 893.764 937.578 888.328 959.321 888.328C980.546 888.328 998.664 893.764 1013.68 904.635C1028.69 915.248 1039.3 930.131 1045.51 949.285C1049.66 962.227 1051.73 975.816 1051.73 990.052C1051.73 1004.03 1049.91 1017.1 1046.29 1029.27C1040.6 1049.46 1029.98 1065.37 1014.45 1077.02C999.182 1088.41 980.675 1094.11 958.932 1094.11ZM958.932 1047.13C967.474 1047.13 974.722 1044.54 980.675 1039.36C986.628 1034.18 990.899 1027.07 993.488 1018.01C995.558 1009.72 996.594 1000.66 996.594 990.829C996.594 979.958 995.558 970.769 993.488 963.262C990.64 954.462 986.24 947.603 980.287 942.685C974.333 937.767 967.086 935.308 958.544 935.308C949.744 935.308 942.367 937.767 936.413 942.685C930.719 947.603 926.577 954.462 923.989 963.262C921.918 969.475 920.883 978.663 920.883 990.829C920.883 1002.48 921.789 1011.54 923.601 1018.01C926.189 1027.07 930.46 1034.18 936.413 1039.36C942.626 1044.54 950.132 1047.13 958.932 1047.13ZM1154.86 1093.72C1137.52 1093.72 1122.38 1091.26 1109.44 1086.34C1096.5 1081.42 1086.4 1074.56 1079.15 1065.76C1072.16 1056.96 1068.67 1047 1068.67 1035.87V1031.98C1068.67 1030.69 1069.06 1029.65 1069.84 1028.88C1070.87 1027.84 1072.04 1027.33 1073.33 1027.33H1116.43C1117.72 1027.33 1118.76 1027.84 1119.53 1028.88C1120.57 1029.65 1121.09 1030.69 1121.09 1031.98V1032.37C1121.09 1038.07 1124.19 1042.99 1130.4 1047.13C1136.87 1051.01 1144.9 1052.95 1154.48 1052.95C1163.28 1052.95 1170.39 1051.27 1175.83 1047.9C1181.27 1044.28 1183.98 1039.88 1183.98 1034.7C1183.98 1030.04 1181.65 1026.55 1177 1024.22C1172.34 1021.89 1164.7 1019.43 1154.09 1016.84C1141.92 1013.74 1132.35 1010.76 1125.36 1007.91C1108.79 1002.22 1095.59 995.229 1085.75 986.946C1075.92 978.663 1071 966.757 1071 951.226C1071 932.072 1078.38 916.93 1093.13 905.8C1108.14 894.411 1127.94 888.717 1152.53 888.717C1169.1 888.717 1183.6 891.434 1196.02 896.87C1208.44 902.047 1218.02 909.424 1224.75 919.001C1231.74 928.578 1235.23 939.449 1235.23 951.615C1235.23 952.909 1234.72 954.074 1233.68 955.109C1232.9 955.886 1231.87 956.274 1230.57 956.274H1189.03C1187.74 956.274 1186.57 955.886 1185.54 955.109C1184.76 954.074 1184.37 952.909 1184.37 951.615C1184.37 945.92 1181.4 941.132 1175.44 937.249C1169.75 933.366 1162.11 931.425 1152.53 931.425C1143.99 931.425 1137 932.978 1131.57 936.084C1126.13 939.19 1123.42 943.461 1123.42 948.897C1123.42 954.074 1126 957.956 1131.18 960.545C1136.62 963.133 1145.55 965.851 1157.97 968.698C1160.82 969.475 1164.05 970.381 1167.68 971.416C1171.3 972.192 1175.18 973.228 1179.32 974.522C1197.7 979.958 1212.2 986.946 1222.81 995.488C1233.42 1004.03 1238.73 1016.45 1238.73 1032.76C1238.73 1051.92 1231.09 1066.93 1215.82 1077.8C1200.81 1088.41 1180.49 1093.72 1154.86 1093.72Z" fill="url(#paint0_linear)"/>
<defs>
<linearGradient id="paint0_linear" x1="574" y1="-162.5" x2="581.55" y2="1486.98" gradientUnits="userSpaceOnUse">
<stop offset="0.0716886" stop-color="#F19D2D"/>
<stop offset="0.310529" stop-color="#E47526"/>
<stop offset="0.349554" stop-color="#33FE00"/>
<stop offset="0.845844" stop-color="#003E15"/>
</linearGradient>
</defs>
</svg>
