<svg width="1250" height="820" viewBox="0 0 1250 820" fill="none" xmlns="http://www.w3.org/2000/svg">
<path d="M183.26 198.475C181.72 199.245 181.72 200.015 183.26 200.785C207.643 213.362 219.835 234.28 219.835 263.54C219.835 288.437 211.365 307.302 194.425 320.135C177.485 332.712 155.283 339 127.82 339H28.105C26.8217 339 25.6667 338.615 24.64 337.845C23.87 336.818 23.485 335.663 23.485 334.38V74.12C23.485 72.8367 23.87 71.81 24.64 71.04C25.6667 70.0133 26.8217 69.5 28.105 69.5H124.74C185.57 69.5 215.985 94.14 215.985 143.42C215.985 169.087 205.077 187.438 183.26 198.475ZM79.695 116.085C78.4117 116.085 77.77 116.727 77.77 118.01V178.07C77.77 179.353 78.4117 179.995 79.695 179.995H124.74C136.803 179.995 146.172 177.172 152.845 171.525C159.518 165.878 162.855 158.178 162.855 148.425C162.855 138.415 159.518 130.587 152.845 124.94C146.172 119.037 136.803 116.085 124.74 116.085H79.695ZM127.82 292.03C139.627 292.03 148.867 289.078 155.54 283.175C162.213 277.015 165.55 268.673 165.55 258.15C165.55 247.627 162.213 239.413 155.54 233.51C148.867 227.35 139.498 224.27 127.435 224.27H79.695C78.4117 224.27 77.77 224.912 77.77 226.195V290.105C77.77 291.388 78.4117 292.03 79.695 292.03H127.82ZM410.455 198.475C408.915 199.245 408.915 200.015 410.455 200.785C434.838 213.362 447.03 234.28 447.03 263.54C447.03 288.437 438.56 307.302 421.62 320.135C404.68 332.712 382.478 339 355.015 339H255.3C254.017 339 252.862 338.615 251.835 337.845C251.065 336.818 250.68 335.663 250.68 334.38V74.12C250.68 72.8367 251.065 71.81 251.835 71.04C252.862 70.0133 254.017 69.5 255.3 69.5H351.935C412.765 69.5 443.18 94.14 443.18 143.42C443.18 169.087 432.272 187.438 410.455 198.475ZM306.89 116.085C305.607 116.085 304.965 116.727 304.965 118.01V178.07C304.965 179.353 305.607 179.995 306.89 179.995H351.935C363.998 179.995 373.367 177.172 380.04 171.525C386.713 165.878 390.05 158.178 390.05 148.425C390.05 138.415 386.713 130.587 380.04 124.94C373.367 119.037 363.998 116.085 351.935 116.085H306.89ZM355.015 292.03C366.822 292.03 376.062 289.078 382.735 283.175C389.408 277.015 392.745 268.673 392.745 258.15C392.745 247.627 389.408 239.413 382.735 233.51C376.062 227.35 366.693 224.27 354.63 224.27H306.89C305.607 224.27 304.965 224.912 304.965 226.195V290.105C304.965 291.388 305.607 292.03 306.89 292.03H355.015ZM632.645 74.12C632.645 72.8367 633.03 71.81 633.8 71.04C634.827 70.0133 635.982 69.5 637.265 69.5H682.31C683.594 69.5 684.62 70.0133 685.39 71.04C686.417 71.81 686.93 72.8367 686.93 74.12V334.38C686.93 335.663 686.417 336.818 685.39 337.845C684.62 338.615 683.594 339 682.31 339H638.805C636.239 339 634.442 337.973 633.415 335.92L533.7 171.14C533.187 170.37 532.674 170.113 532.16 170.37C531.647 170.37 531.39 170.883 531.39 171.91L532.16 334.38C532.16 335.663 531.647 336.818 530.62 337.845C529.85 338.615 528.824 339 527.54 339H482.495C481.212 339 480.057 338.615 479.03 337.845C478.26 336.818 477.875 335.663 477.875 334.38V74.12C477.875 72.8367 478.26 71.81 479.03 71.04C480.057 70.0133 481.212 69.5 482.495 69.5H526C528.567 69.5 530.364 70.5267 531.39 72.58L630.72 236.59C631.234 237.36 631.747 237.745 632.26 237.745C632.774 237.488 633.03 236.847 633.03 235.82L632.645 74.12ZM166.705 444.12C166.705 442.837 167.09 441.81 167.86 441.04C168.887 440.013 170.042 439.5 171.325 439.5H216.37C217.653 439.5 218.68 440.013 219.45 441.04C220.477 441.81 220.99 442.837 220.99 444.12V704.38C220.99 705.663 220.477 706.818 219.45 707.845C218.68 708.615 217.653 709 216.37 709H171.325C170.042 709 168.887 708.615 167.86 707.845C167.09 706.818 166.705 705.663 166.705 704.38V598.12C166.705 596.837 166.063 596.195 164.78 596.195H79.695C78.4117 596.195 77.77 596.837 77.77 598.12V704.38C77.77 705.663 77.2567 706.818 76.23 707.845C75.46 708.615 74.4333 709 73.15 709H28.105C26.8217 709 25.6667 708.615 24.64 707.845C23.87 706.818 23.485 705.663 23.485 704.38V444.12C23.485 442.837 23.87 441.81 24.64 441.04C25.6667 440.013 26.8217 439.5 28.105 439.5H73.15C74.4333 439.5 75.46 440.013 76.23 441.04C77.2567 441.81 77.77 442.837 77.77 444.12V547.685C77.77 548.968 78.4117 549.61 79.695 549.61H164.78C166.063 549.61 166.705 548.968 166.705 547.685V444.12ZM337.618 712.08C316.058 712.08 297.578 706.433 282.178 695.14C266.778 683.847 256.255 668.447 250.608 648.94C247.015 636.877 245.218 623.787 245.218 609.67C245.218 594.527 247.015 580.923 250.608 568.86C256.511 549.867 267.163 534.98 282.563 524.2C297.963 513.42 316.443 508.03 338.003 508.03C359.05 508.03 377.016 513.42 391.903 524.2C406.79 534.723 417.313 549.482 423.473 568.475C427.58 581.308 429.633 594.783 429.633 608.9C429.633 622.76 427.836 635.722 424.243 647.785C418.596 667.805 408.073 683.59 392.673 695.14C377.53 706.433 359.178 712.08 337.618 712.08ZM337.618 665.495C346.088 665.495 353.275 662.928 359.178 657.795C365.081 652.662 369.316 645.603 371.883 636.62C373.936 628.407 374.963 619.423 374.963 609.67C374.963 598.89 373.936 589.778 371.883 582.335C369.06 573.608 364.696 566.807 358.793 561.93C352.89 557.053 345.703 554.615 337.233 554.615C328.506 554.615 321.191 557.053 315.288 561.93C309.641 566.807 305.535 573.608 302.968 582.335C300.915 588.495 299.888 597.607 299.888 609.67C299.888 621.22 300.786 630.203 302.583 636.62C305.15 645.603 309.385 652.662 315.288 657.795C321.448 662.928 328.891 665.495 337.618 665.495ZM531.905 711.695C514.708 711.695 499.693 709.257 486.86 704.38C474.026 699.503 464.016 692.702 456.83 683.975C449.9 675.248 446.435 665.367 446.435 654.33V650.48C446.435 649.197 446.82 648.17 447.59 647.4C448.616 646.373 449.771 645.86 451.055 645.86H493.79C495.073 645.86 496.1 646.373 496.87 647.4C497.896 648.17 498.41 649.197 498.41 650.48V650.865C498.41 656.512 501.49 661.388 507.65 665.495C514.066 669.345 522.023 671.27 531.52 671.27C540.246 671.27 547.305 669.602 552.695 666.265C558.085 662.672 560.78 658.308 560.78 653.175C560.78 648.555 558.47 645.09 553.85 642.78C549.23 640.47 541.658 638.032 531.135 635.465C519.071 632.385 509.575 629.433 502.645 626.61C486.218 620.963 473.128 614.033 463.375 605.82C453.621 597.607 448.745 585.8 448.745 570.4C448.745 551.407 456.06 536.392 470.69 525.355C485.576 514.062 505.211 508.415 529.595 508.415C546.021 508.415 560.395 511.11 572.715 516.5C585.035 521.633 594.531 528.948 601.205 538.445C608.135 547.942 611.6 558.722 611.6 570.785C611.6 572.068 611.086 573.223 610.06 574.25C609.29 575.02 608.263 575.405 606.98 575.405H565.785C564.501 575.405 563.346 575.02 562.32 574.25C561.55 573.223 561.165 572.068 561.165 570.785C561.165 565.138 558.213 560.39 552.31 556.54C546.663 552.69 539.091 550.765 529.595 550.765C521.125 550.765 514.195 552.305 508.805 555.385C503.415 558.465 500.72 562.7 500.72 568.09C500.72 573.223 503.286 577.073 508.42 579.64C513.81 582.207 522.665 584.902 534.985 587.725C537.808 588.495 541.016 589.393 544.61 590.42C548.203 591.19 552.053 592.217 556.16 593.5C574.383 598.89 588.756 605.82 599.28 614.29C609.803 622.76 615.065 635.08 615.065 651.25C615.065 670.243 607.493 685.13 592.35 695.91C577.463 706.433 557.315 711.695 531.905 711.695ZM747.881 549.995C747.881 551.278 747.367 552.433 746.341 553.46C745.571 554.23 744.544 554.615 743.261 554.615H706.301C705.017 554.615 704.376 555.257 704.376 556.54V638.16C704.376 646.63 706.044 652.918 709.381 657.025C712.974 661.132 718.621 663.185 726.321 663.185H739.026C740.309 663.185 741.336 663.698 742.106 664.725C743.132 665.495 743.646 666.522 743.646 667.805V704.38C743.646 707.203 742.106 708.872 739.026 709.385C728.246 709.898 720.546 710.155 715.926 710.155C694.622 710.155 678.709 706.69 668.186 699.76C657.662 692.573 652.272 679.227 652.016 659.72V556.54C652.016 555.257 651.374 554.615 650.091 554.615H628.146C626.862 554.615 625.707 554.23 624.681 553.46C623.911 552.433 623.526 551.278 623.526 549.995V515.73C623.526 514.447 623.911 513.42 624.681 512.65C625.707 511.623 626.862 511.11 628.146 511.11H650.091C651.374 511.11 652.016 510.468 652.016 509.185V463.37C652.016 462.087 652.401 461.06 653.171 460.29C654.197 459.263 655.352 458.75 656.636 458.75H699.756C701.039 458.75 702.066 459.263 702.836 460.29C703.862 461.06 704.376 462.087 704.376 463.37V509.185C704.376 510.468 705.017 511.11 706.301 511.11H743.261C744.544 511.11 745.571 511.623 746.341 512.65C747.367 513.42 747.881 514.447 747.881 515.73V549.995ZM798.27 488.78C789.544 488.78 782.229 485.957 776.325 480.31C770.679 474.407 767.855 467.092 767.855 458.365C767.855 449.382 770.679 442.067 776.325 436.42C781.972 430.773 789.287 427.95 798.27 427.95C807.254 427.95 814.569 430.773 820.215 436.42C825.862 442.067 828.685 449.382 828.685 458.365C828.685 467.092 825.734 474.407 819.83 480.31C814.184 485.957 806.997 488.78 798.27 488.78ZM775.17 709C773.887 709 772.732 708.615 771.705 707.845C770.935 706.818 770.55 705.663 770.55 704.38V515.345C770.55 514.062 770.935 513.035 771.705 512.265C772.732 511.238 773.887 510.725 775.17 510.725H820.215C821.499 510.725 822.525 511.238 823.295 512.265C824.322 513.035 824.835 514.062 824.835 515.345V704.38C824.835 705.663 824.322 706.818 823.295 707.845C822.525 708.615 821.499 709 820.215 709H775.17ZM958.77 508.03C979.304 508.03 995.859 514.318 1008.44 526.895C1021.01 539.472 1027.3 556.54 1027.3 578.1V704.38C1027.3 705.663 1026.79 706.818 1025.76 707.845C1024.99 708.615 1023.96 709 1022.68 709H977.635C976.352 709 975.197 708.615 974.17 707.845C973.4 706.818 973.015 705.663 973.015 704.38V589.265C973.015 578.998 970.064 570.657 964.16 564.24C958.514 557.823 950.942 554.615 941.445 554.615C931.949 554.615 924.249 557.823 918.345 564.24C912.699 570.657 909.875 578.998 909.875 589.265V704.38C909.875 705.663 909.362 706.818 908.335 707.845C907.565 708.615 906.539 709 905.255 709H860.21C858.927 709 857.772 708.615 856.745 707.845C855.975 706.818 855.59 705.663 855.59 704.38V515.73C855.59 514.447 855.975 513.42 856.745 512.65C857.772 511.623 858.927 511.11 860.21 511.11H905.255C906.539 511.11 907.565 511.623 908.335 512.65C909.362 513.42 909.875 514.447 909.875 515.73V529.205C909.875 529.975 910.132 530.488 910.645 530.745C911.159 531.002 911.544 530.873 911.8 530.36C922.324 515.473 937.98 508.03 958.77 508.03ZM1175.48 515.73C1175.48 514.447 1175.86 513.42 1176.63 512.65C1177.66 511.623 1178.81 511.11 1180.1 511.11H1225.14C1226.43 511.11 1227.45 511.623 1228.22 512.65C1229.25 513.42 1229.76 514.447 1229.76 515.73V691.29C1229.76 724.913 1220.01 748.912 1200.5 763.285C1181.25 777.658 1156.36 784.845 1125.81 784.845C1116.83 784.845 1106.82 784.203 1095.78 782.92C1093.22 782.663 1091.93 780.995 1091.93 777.915L1093.47 738.26C1093.47 734.923 1095.27 733.512 1098.86 734.025C1108.1 735.565 1116.57 736.335 1124.27 736.335C1140.7 736.335 1153.28 732.742 1162 725.555C1170.99 718.368 1175.48 706.818 1175.48 690.905C1175.48 690.135 1175.22 689.75 1174.71 689.75C1174.19 689.493 1173.68 689.622 1173.17 690.135C1163.41 700.658 1149.17 705.92 1130.43 705.92C1113.75 705.92 1098.35 701.942 1084.23 693.985C1070.37 685.772 1060.49 672.682 1054.59 654.715C1050.74 642.908 1048.81 627.637 1048.81 608.9C1048.81 588.88 1051.12 572.582 1055.74 560.005C1061.13 544.348 1070.24 531.772 1083.08 522.275C1095.91 512.778 1110.8 508.03 1127.74 508.03C1147.5 508.03 1162.64 513.933 1173.17 525.74C1173.68 526.253 1174.19 526.51 1174.71 526.51C1175.22 526.253 1175.48 525.74 1175.48 524.97V515.73ZM1172.4 640.085C1174.45 632.385 1175.48 621.862 1175.48 608.515C1175.48 600.558 1175.22 594.398 1174.71 590.035C1174.19 585.672 1173.3 581.565 1172.01 577.715C1169.7 570.785 1165.85 565.267 1160.46 561.16C1155.07 556.797 1148.4 554.615 1140.44 554.615C1132.74 554.615 1126.2 556.797 1120.81 561.16C1115.42 565.267 1111.44 570.785 1108.87 577.715C1105.28 585.415 1103.48 595.81 1103.48 608.9C1103.48 623.273 1105.02 633.54 1108.1 639.7C1110.41 646.63 1114.39 652.277 1120.04 656.64C1125.94 660.747 1132.87 662.8 1140.83 662.8C1149.04 662.8 1155.84 660.747 1161.23 656.64C1166.62 652.277 1170.34 646.758 1172.4 640.085Z" fill="url(#paint0_linear)"/>
<defs>
<linearGradient id="paint0_linear" x1="606.526" y1="-133.726" x2="563.94" y2="725.527" gradientUnits="userSpaceOnUse">
<stop stop-color="#F19D2D"/>
<stop offset="0.601216" stop-color="#E47526"/>
<stop offset="0.635417" stop-color="#28A9F1"/>
<stop offset="1" stop-color="#5D7B9E"/>
</linearGradient>
</defs>
</svg>
