<svg width="1267" height="652" viewBox="0 0 1267 652" fill="none" xmlns="http://www.w3.org/2000/svg">
<path d="M124.42 154.325C123.24 154.915 123.24 155.505 124.42 156.095C143.103 165.732 152.445 181.76 152.445 204.18C152.445 223.257 145.955 237.712 132.975 247.545C119.995 257.182 102.983 262 81.94 262H5.535C4.55167 262 3.66667 261.705 2.88 261.115C2.29 260.328 1.995 259.443 1.995 258.46V59.04C1.995 58.0567 2.29 57.27 2.88 56.68C3.66667 55.8933 4.55167 55.5 5.535 55.5H79.58C126.19 55.5 149.495 74.38 149.495 112.14C149.495 131.807 141.137 145.868 124.42 154.325ZM45.065 91.195C44.0817 91.195 43.59 91.6867 43.59 92.67V138.69C43.59 139.673 44.0817 140.165 45.065 140.165H79.58C88.8233 140.165 96.0017 138.002 101.115 133.675C106.228 129.348 108.785 123.448 108.785 115.975C108.785 108.305 106.228 102.307 101.115 97.98C96.0017 93.4567 88.8233 91.195 79.58 91.195H45.065ZM81.94 226.01C90.9867 226.01 98.0667 223.748 103.18 219.225C108.293 214.505 110.85 208.113 110.85 200.05C110.85 191.987 108.293 185.693 103.18 181.17C98.0667 176.45 90.8883 174.09 81.645 174.09H45.065C44.0817 174.09 43.59 174.582 43.59 175.565V224.535C43.59 225.518 44.0817 226.01 45.065 226.01H81.94ZM298.505 154.325C297.325 154.915 297.325 155.505 298.505 156.095C317.188 165.732 326.53 181.76 326.53 204.18C326.53 223.257 320.04 237.712 307.06 247.545C294.08 257.182 277.068 262 256.025 262H179.62C178.636 262 177.751 261.705 176.965 261.115C176.375 260.328 176.08 259.443 176.08 258.46V59.04C176.08 58.0567 176.375 57.27 176.965 56.68C177.751 55.8933 178.636 55.5 179.62 55.5H253.665C300.275 55.5 323.58 74.38 323.58 112.14C323.58 131.807 315.221 145.868 298.505 154.325ZM219.15 91.195C218.166 91.195 217.675 91.6867 217.675 92.67V138.69C217.675 139.673 218.166 140.165 219.15 140.165H253.665C262.908 140.165 270.086 138.002 275.2 133.675C280.313 129.348 282.87 123.448 282.87 115.975C282.87 108.305 280.313 102.307 275.2 97.98C270.086 93.4567 262.908 91.195 253.665 91.195H219.15ZM256.025 226.01C265.071 226.01 272.151 223.748 277.265 219.225C282.378 214.505 284.935 208.113 284.935 200.05C284.935 191.987 282.378 185.693 277.265 181.17C272.151 176.45 264.973 174.09 255.73 174.09H219.15C218.166 174.09 217.675 174.582 217.675 175.565V224.535C217.675 225.518 218.166 226.01 219.15 226.01H256.025ZM468.754 59.04C468.754 58.0567 469.049 57.27 469.639 56.68C470.426 55.8933 471.311 55.5 472.294 55.5H506.809C507.792 55.5 508.579 55.8933 509.169 56.68C509.956 57.27 510.349 58.0567 510.349 59.04V258.46C510.349 259.443 509.956 260.328 509.169 261.115C508.579 261.705 507.792 262 506.809 262H473.474C471.507 262 470.131 261.213 469.344 259.64L392.939 133.38C392.546 132.79 392.152 132.593 391.759 132.79C391.366 132.79 391.169 133.183 391.169 133.97L391.759 258.46C391.759 259.443 391.366 260.328 390.579 261.115C389.989 261.705 389.202 262 388.219 262H353.704C352.721 262 351.836 261.705 351.049 261.115C350.459 260.328 350.164 259.443 350.164 258.46V59.04C350.164 58.0567 350.459 57.27 351.049 56.68C351.836 55.8933 352.721 55.5 353.704 55.5H387.039C389.006 55.5 390.382 56.2867 391.169 57.86L467.279 183.53C467.672 184.12 468.066 184.415 468.459 184.415C468.852 184.218 469.049 183.727 469.049 182.94L468.754 59.04ZM87.25 343.205C100.23 343.205 111.637 345.86 121.47 351.17C131.303 356.48 138.875 364.052 144.185 373.885C149.692 383.522 152.445 394.633 152.445 407.22C152.445 419.61 149.593 430.525 143.89 439.965C138.383 449.405 130.517 456.78 120.29 462.09C110.26 467.203 98.6567 469.76 85.48 469.76H43.59C42.6067 469.76 42.115 470.252 42.115 471.235V546.46C42.115 547.443 41.7217 548.328 40.935 549.115C40.345 549.705 39.5583 550 38.575 550H4.06C3.07667 550 2.19167 549.705 1.405 549.115C0.815001 548.328 0.520001 547.443 0.520001 546.46V346.745C0.520001 345.762 0.815001 344.975 1.405 344.385C2.19167 343.598 3.07667 343.205 4.06 343.205H87.25ZM81.055 436.425C90.1017 436.425 97.3783 433.868 102.885 428.755C108.392 423.445 111.145 416.562 111.145 408.105C111.145 399.452 108.392 392.47 102.885 387.16C97.3783 381.85 90.1017 379.195 81.055 379.195H43.59C42.6067 379.195 42.115 379.687 42.115 380.67V434.95C42.115 435.933 42.6067 436.425 43.59 436.425H81.055ZM255.011 401.91C255.011 400.927 255.306 400.14 255.896 399.55C256.682 398.763 257.567 398.37 258.551 398.37H293.066C294.049 398.37 294.836 398.763 295.426 399.55C296.212 400.14 296.606 400.927 296.606 401.91V546.46C296.606 547.443 296.212 548.328 295.426 549.115C294.836 549.705 294.049 550 293.066 550H258.551C257.567 550 256.682 549.705 255.896 549.115C255.306 548.328 255.011 547.443 255.011 546.46V536.43C255.011 535.84 254.814 535.545 254.421 535.545C254.027 535.348 253.634 535.545 253.241 536.135C245.374 546.755 233.181 552.065 216.661 552.065C201.714 552.065 189.422 547.542 179.786 538.495C170.149 529.448 165.331 516.763 165.331 500.44V401.91C165.331 400.927 165.626 400.14 166.216 399.55C167.002 398.763 167.887 398.37 168.871 398.37H203.091C204.074 398.37 204.861 398.763 205.451 399.55C206.237 400.14 206.631 400.927 206.631 401.91V490.115C206.631 497.982 208.696 504.373 212.826 509.29C217.152 514.207 223.052 516.665 230.526 516.665C237.212 516.665 242.719 514.698 247.046 510.765C251.372 506.635 254.027 501.325 255.011 494.835V401.91ZM452.637 437.015C456.374 447.242 458.242 459.435 458.242 473.595C458.242 487.165 456.571 499.063 453.227 509.29C448.704 522.663 441.427 533.185 431.397 540.855C421.564 548.525 409.862 552.36 396.292 552.36C381.936 552.36 370.627 546.952 362.367 536.135C361.974 535.742 361.581 535.643 361.187 535.84C360.794 535.84 360.597 536.135 360.597 536.725V546.46C360.597 547.443 360.204 548.328 359.417 549.115C358.827 549.705 358.041 550 357.057 550H322.542C321.559 550 320.674 549.705 319.887 549.115C319.297 548.328 319.002 547.443 319.002 546.46V347.04C319.002 346.057 319.297 345.27 319.887 344.68C320.674 343.893 321.559 343.5 322.542 343.5H357.057C358.041 343.5 358.827 343.893 359.417 344.68C360.204 345.27 360.597 346.057 360.597 347.04V410.17C360.597 410.76 360.794 411.153 361.187 411.35C361.581 411.547 361.974 411.35 362.367 410.76C370.037 400.927 380.952 396.01 395.112 396.01C409.469 396.01 421.466 399.747 431.102 407.22C440.936 414.497 448.114 424.428 452.637 437.015ZM408.977 503.98C413.107 496.507 415.172 486.673 415.172 474.48C415.172 460.91 412.812 450.487 408.092 443.21C403.372 435.54 396.391 431.705 387.147 431.705C378.494 431.705 371.906 435.54 367.382 443.21C363.056 450.683 360.892 461.008 360.892 474.185C360.892 487.362 362.859 497.293 366.792 503.98C371.512 512.437 378.396 516.665 387.442 516.665C397.079 516.665 404.257 512.437 408.977 503.98ZM480.192 550C479.209 550 478.324 549.705 477.537 549.115C476.947 548.328 476.652 547.443 476.652 546.46V347.04C476.652 346.057 476.947 345.27 477.537 344.68C478.324 343.893 479.209 343.5 480.192 343.5H514.707C515.691 343.5 516.477 343.893 517.067 344.68C517.854 345.27 518.247 346.057 518.247 347.04V546.46C518.247 547.443 517.854 548.328 517.067 549.115C516.477 549.705 515.691 550 514.707 550H480.192ZM562.244 381.26C555.557 381.26 549.952 379.097 545.429 374.77C541.102 370.247 538.939 364.642 538.939 357.955C538.939 351.072 541.102 345.467 545.429 341.14C549.755 336.813 555.36 334.65 562.244 334.65C569.127 334.65 574.732 336.813 579.059 341.14C583.385 345.467 585.549 351.072 585.549 357.955C585.549 364.642 583.287 370.247 578.764 374.77C574.437 379.097 568.93 381.26 562.244 381.26ZM544.544 550C543.56 550 542.675 549.705 541.889 549.115C541.299 548.328 541.004 547.443 541.004 546.46V401.615C541.004 400.632 541.299 399.845 541.889 399.255C542.675 398.468 543.56 398.075 544.544 398.075H579.059C580.042 398.075 580.829 398.468 581.419 399.255C582.205 399.845 582.599 400.632 582.599 401.615V546.46C582.599 547.443 582.205 548.328 581.419 549.115C580.829 549.705 580.042 550 579.059 550H544.544ZM666.639 552.065C653.463 552.065 641.958 550.197 632.124 546.46C622.291 542.723 614.621 537.512 609.114 530.825C603.804 524.138 601.149 516.567 601.149 508.11V505.16C601.149 504.177 601.444 503.39 602.034 502.8C602.821 502.013 603.706 501.62 604.689 501.62H637.434C638.418 501.62 639.204 502.013 639.794 502.8C640.581 503.39 640.974 504.177 640.974 505.16V505.455C640.974 509.782 643.334 513.518 648.054 516.665C652.971 519.615 659.068 521.09 666.344 521.09C673.031 521.09 678.439 519.812 682.569 517.255C686.699 514.502 688.764 511.158 688.764 507.225C688.764 503.685 686.994 501.03 683.454 499.26C679.914 497.49 674.113 495.622 666.049 493.655C656.806 491.295 649.529 489.033 644.219 486.87C631.633 482.543 621.603 477.233 614.129 470.94C606.656 464.647 602.919 455.6 602.919 443.8C602.919 429.247 608.524 417.742 619.734 409.285C631.141 400.632 646.186 396.305 664.869 396.305C677.456 396.305 688.469 398.37 697.909 402.5C707.349 406.433 714.626 412.038 719.739 419.315C725.049 426.592 727.704 434.852 727.704 444.095C727.704 445.078 727.311 445.963 726.524 446.75C725.934 447.34 725.148 447.635 724.164 447.635H692.599C691.616 447.635 690.731 447.34 689.944 446.75C689.354 445.963 689.059 445.078 689.059 444.095C689.059 439.768 686.798 436.13 682.274 433.18C677.948 430.23 672.146 428.755 664.869 428.755C658.379 428.755 653.069 429.935 648.939 432.295C644.809 434.655 642.744 437.9 642.744 442.03C642.744 445.963 644.711 448.913 648.644 450.88C652.774 452.847 659.559 454.912 668.999 457.075C671.163 457.665 673.621 458.353 676.374 459.14C679.128 459.73 682.078 460.517 685.224 461.5C699.188 465.63 710.201 470.94 718.264 477.43C726.328 483.92 730.359 493.36 730.359 505.75C730.359 520.303 724.558 531.71 712.954 539.97C701.548 548.033 686.109 552.065 666.639 552.065ZM824.45 396.01C840.184 396.01 852.869 400.828 862.505 410.465C872.142 420.102 876.96 433.18 876.96 449.7V546.46C876.96 547.443 876.567 548.328 875.78 549.115C875.19 549.705 874.404 550 873.42 550H838.905C837.922 550 837.037 549.705 836.25 549.115C835.66 548.328 835.365 547.443 835.365 546.46V458.255C835.365 450.388 833.104 443.997 828.58 439.08C824.254 434.163 818.452 431.705 811.175 431.705C803.899 431.705 797.999 434.163 793.475 439.08C789.149 443.997 786.985 450.388 786.985 458.255V546.46C786.985 547.443 786.592 548.328 785.805 549.115C785.215 549.705 784.429 550 783.445 550H748.93C747.947 550 747.062 549.705 746.275 549.115C745.685 548.328 745.39 547.443 745.39 546.46V347.04C745.39 346.057 745.685 345.27 746.275 344.68C747.062 343.893 747.947 343.5 748.93 343.5H783.445C784.429 343.5 785.215 343.893 785.805 344.68C786.592 345.27 786.985 346.057 786.985 347.04V412.235C786.985 412.825 787.182 413.218 787.575 413.415C787.969 413.612 788.264 413.513 788.46 413.12C796.524 401.713 808.52 396.01 824.45 396.01ZM920.289 381.26C913.602 381.26 907.997 379.097 903.474 374.77C899.147 370.247 896.984 364.642 896.984 357.955C896.984 351.072 899.147 345.467 903.474 341.14C907.8 336.813 913.405 334.65 920.289 334.65C927.172 334.65 932.777 336.813 937.104 341.14C941.43 345.467 943.594 351.072 943.594 357.955C943.594 364.642 941.332 370.247 936.809 374.77C932.482 379.097 926.975 381.26 920.289 381.26ZM902.589 550C901.605 550 900.72 549.705 899.934 549.115C899.344 548.328 899.049 547.443 899.049 546.46V401.615C899.049 400.632 899.344 399.845 899.934 399.255C900.72 398.468 901.605 398.075 902.589 398.075H937.104C938.087 398.075 938.874 398.468 939.464 399.255C940.25 399.845 940.644 400.632 940.644 401.615V546.46C940.644 547.443 940.25 548.328 939.464 549.115C938.874 549.705 938.087 550 937.104 550H902.589ZM1043.27 396.01C1059 396.01 1071.69 400.828 1081.32 410.465C1090.96 420.102 1095.78 433.18 1095.78 449.7V546.46C1095.78 547.443 1095.39 548.328 1094.6 549.115C1094.01 549.705 1093.22 550 1092.24 550H1057.72C1056.74 550 1055.86 549.705 1055.07 549.115C1054.48 548.328 1054.18 547.443 1054.18 546.46V458.255C1054.18 450.388 1051.92 443.997 1047.4 439.08C1043.07 434.163 1037.27 431.705 1029.99 431.705C1022.72 431.705 1016.82 434.163 1012.29 439.08C1007.97 443.997 1005.8 450.388 1005.8 458.255V546.46C1005.8 547.443 1005.41 548.328 1004.62 549.115C1004.03 549.705 1003.25 550 1002.26 550H967.749C966.766 550 965.881 549.705 965.094 549.115C964.504 548.328 964.209 547.443 964.209 546.46V401.91C964.209 400.927 964.504 400.14 965.094 399.55C965.881 398.763 966.766 398.37 967.749 398.37H1002.26C1003.25 398.37 1004.03 398.763 1004.62 399.55C1005.41 400.14 1005.8 400.927 1005.8 401.91V412.235C1005.8 412.825 1006 413.218 1006.39 413.415C1006.79 413.612 1007.08 413.513 1007.28 413.12C1015.34 401.713 1027.34 396.01 1043.27 396.01ZM1209.32 401.91C1209.32 400.927 1209.61 400.14 1210.2 399.55C1210.99 398.763 1211.87 398.37 1212.86 398.37H1247.37C1248.36 398.37 1249.14 398.763 1249.73 399.55C1250.52 400.14 1250.91 400.927 1250.91 401.91V536.43C1250.91 562.193 1243.44 580.582 1228.49 591.595C1213.74 602.608 1194.67 608.115 1171.26 608.115C1164.38 608.115 1156.71 607.623 1148.25 606.64C1146.29 606.443 1145.3 605.165 1145.3 602.805L1146.48 572.42C1146.48 569.863 1147.86 568.782 1150.61 569.175C1157.69 570.355 1164.18 570.945 1170.08 570.945C1182.67 570.945 1192.31 568.192 1198.99 562.685C1205.88 557.178 1209.32 548.328 1209.32 536.135C1209.32 535.545 1209.12 535.25 1208.73 535.25C1208.33 535.053 1207.94 535.152 1207.55 535.545C1200.07 543.608 1189.16 547.64 1174.8 547.64C1162.02 547.64 1150.22 544.592 1139.4 538.495C1128.78 532.202 1121.21 522.172 1116.69 508.405C1113.74 499.358 1112.26 487.657 1112.26 473.3C1112.26 457.96 1114.03 445.472 1117.57 435.835C1121.7 423.838 1128.68 414.202 1138.52 406.925C1148.35 399.648 1159.76 396.01 1172.74 396.01C1187.88 396.01 1199.48 400.533 1207.55 409.58C1207.94 409.973 1208.33 410.17 1208.73 410.17C1209.12 409.973 1209.32 409.58 1209.32 408.99V401.91ZM1206.96 497.195C1208.53 491.295 1209.32 483.232 1209.32 473.005C1209.32 466.908 1209.12 462.188 1208.73 458.845C1208.33 455.502 1207.65 452.355 1206.66 449.405C1204.89 444.095 1201.94 439.867 1197.81 436.72C1193.68 433.377 1188.57 431.705 1182.47 431.705C1176.57 431.705 1171.56 433.377 1167.43 436.72C1163.3 439.867 1160.25 444.095 1158.28 449.405C1155.53 455.305 1154.15 463.27 1154.15 473.3C1154.15 484.313 1155.33 492.18 1157.69 496.9C1159.46 502.21 1162.51 506.537 1166.84 509.88C1171.36 513.027 1176.67 514.6 1182.77 514.6C1189.06 514.6 1194.27 513.027 1198.4 509.88C1202.53 506.537 1205.38 502.308 1206.96 497.195Z" fill="url(#paint0_linear)"/>
<defs>
<linearGradient id="paint0_linear" x1="606.539" y1="-106.328" x2="599.645" y2="863.647" gradientUnits="userSpaceOnUse">
<stop stop-color="#F19D2D"/>
<stop offset="0.396858" stop-color="#E47526"/>
<stop offset="0.432292" stop-color="#0500FE"/>
<stop offset="0.8125" stop-color="#3B459C"/>
</linearGradient>
</defs>
</svg>
