<svg width="1250" height="947" viewBox="0 0 1250 947" fill="none" xmlns="http://www.w3.org/2000/svg">
<path d="M244.412 253.583C242.358 254.61 242.358 255.637 244.412 256.664C276.931 273.438 293.191 301.336 293.191 340.36C293.191 373.564 281.895 398.724 259.302 415.84C236.71 432.613 207.1 441 170.472 441H37.4833C35.7717 441 34.2313 440.487 32.8621 439.46C31.8351 438.09 31.3217 436.55 31.3217 434.838V87.7326C31.3217 86.0211 31.8351 84.6518 32.8621 83.6249C34.2313 82.2556 35.7717 81.571 37.4833 81.571H166.364C247.493 81.571 288.057 114.433 288.057 180.157C288.057 214.389 273.508 238.864 244.412 253.583ZM106.288 143.701C104.577 143.701 103.721 144.557 103.721 146.268V226.37C103.721 228.081 104.577 228.937 106.288 228.937H166.364C182.453 228.937 194.947 225.171 203.848 217.641C212.748 210.11 217.198 199.84 217.198 186.832C217.198 173.482 212.748 163.042 203.848 155.511C194.947 147.637 182.453 143.701 166.364 143.701H106.288ZM170.472 378.357C186.218 378.357 198.542 374.42 207.442 366.547C216.342 358.331 220.792 347.206 220.792 333.171C220.792 319.136 216.342 308.182 207.442 300.309C198.542 292.094 186.047 287.986 169.959 287.986H106.288C104.577 287.986 103.721 288.842 103.721 290.553V375.789C103.721 377.501 104.577 378.357 106.288 378.357H170.472ZM547.419 253.583C545.365 254.61 545.365 255.637 547.419 256.664C579.939 273.438 596.199 301.336 596.199 340.36C596.199 373.564 584.902 398.724 562.31 415.84C539.717 432.613 510.107 441 473.479 441H340.491C338.779 441 337.239 440.487 335.87 439.46C334.843 438.09 334.329 436.55 334.329 434.838V87.7326C334.329 86.0211 334.843 84.6518 335.87 83.6249C337.239 82.2556 338.779 81.571 340.491 81.571H469.372C550.5 81.571 591.064 114.433 591.064 180.157C591.064 214.389 576.516 238.864 547.419 253.583ZM409.296 143.701C407.584 143.701 406.728 144.557 406.728 146.268V226.37C406.728 228.081 407.584 228.937 409.296 228.937H469.372C485.46 228.937 497.955 225.171 506.855 217.641C515.755 210.11 520.205 199.84 520.205 186.832C520.205 173.482 515.755 163.042 506.855 155.511C497.955 147.637 485.46 143.701 469.372 143.701H409.296ZM473.479 378.357C489.226 378.357 501.549 374.42 510.449 366.547C519.349 358.331 523.8 347.206 523.8 333.171C523.8 319.136 519.349 308.182 510.449 300.309C501.549 292.094 489.055 287.986 472.966 287.986H409.296C407.584 287.986 406.728 288.842 406.728 290.553V375.789C406.728 377.501 407.584 378.357 409.296 378.357H473.479ZM843.752 87.7326C843.752 86.0211 844.265 84.6518 845.292 83.6249C846.661 82.2556 848.202 81.571 849.913 81.571H909.989C911.701 81.571 913.07 82.2556 914.097 83.6249C915.466 84.6518 916.151 86.0211 916.151 87.7326V434.838C916.151 436.55 915.466 438.09 914.097 439.46C913.07 440.487 911.701 441 909.989 441H851.967C848.544 441 846.148 439.631 844.778 436.892L711.79 217.127C711.105 216.1 710.42 215.758 709.736 216.1C709.051 216.1 708.709 216.785 708.709 218.154L709.736 434.838C709.736 436.55 709.051 438.09 707.682 439.46C706.655 440.487 705.286 441 703.574 441H643.498C641.787 441 640.246 440.487 638.877 439.46C637.85 438.09 637.337 436.55 637.337 434.838V87.7326C637.337 86.0211 637.85 84.6518 638.877 83.6249C640.246 82.2556 641.787 81.571 643.498 81.571H701.52C704.943 81.571 707.34 82.9403 708.709 85.6788L841.184 304.417C841.869 305.444 842.553 305.957 843.238 305.957C843.923 305.615 844.265 304.759 844.265 303.39L843.752 87.7326ZM262.383 557.679C264.095 554.94 266.491 553.571 269.572 553.571H329.648C331.359 553.571 332.729 554.256 333.755 555.625C335.125 556.652 335.809 558.021 335.809 559.733V906.838C335.809 908.55 335.125 910.09 333.755 911.46C332.729 912.487 331.359 913 329.648 913H269.572C267.86 913 266.32 912.487 264.951 911.46C263.924 910.09 263.41 908.55 263.41 906.838V680.398C263.41 679.029 263.068 678.344 262.383 678.344C261.699 678.344 261.014 678.858 260.329 679.885L205.901 765.121C204.19 767.859 201.794 769.228 198.713 769.228H168.418C165.337 769.228 162.941 767.859 161.23 765.121L106.802 679.885C106.117 678.858 105.433 678.515 104.748 678.858C104.063 678.858 103.721 679.542 103.721 680.912V906.838C103.721 908.55 103.036 910.09 101.667 911.46C100.64 912.487 99.2709 913 97.5593 913H37.4833C35.7717 913 34.2313 912.487 32.8621 911.46C31.8351 910.09 31.3217 908.55 31.3217 906.838V559.733C31.3217 558.021 31.8351 556.652 32.8621 555.625C34.2313 554.256 35.7717 553.571 37.4833 553.571H97.5593C100.64 553.571 103.036 554.94 104.748 557.679L181.768 677.317C182.795 679.371 183.822 679.371 184.849 677.317L262.383 557.679ZM532.388 655.238C532.388 653.526 532.902 652.157 533.929 651.13C535.298 649.761 536.838 649.076 538.55 649.076H598.626C600.337 649.076 601.707 649.761 602.734 651.13C604.103 652.157 604.787 653.526 604.787 655.238V906.838C604.787 908.55 604.103 910.09 602.734 911.46C601.707 912.487 600.337 913 598.626 913H538.55C536.838 913 535.298 912.487 533.929 911.46C532.902 910.09 532.388 908.55 532.388 906.838V889.38C532.388 888.353 532.046 887.84 531.361 887.84C530.677 887.498 529.992 887.84 529.307 888.867C515.615 907.352 494.391 916.594 465.637 916.594C439.621 916.594 418.227 908.721 401.453 892.975C384.68 877.228 376.293 855.149 376.293 826.737V655.238C376.293 653.526 376.807 652.157 377.834 651.13C379.203 649.761 380.743 649.076 382.455 649.076H442.017C443.729 649.076 445.098 649.761 446.125 651.13C447.494 652.157 448.179 653.526 448.179 655.238V808.766C448.179 822.458 451.773 833.583 458.962 842.141C466.493 850.699 476.762 854.978 489.77 854.978C501.409 854.978 510.994 851.555 518.524 844.708C526.055 837.52 530.677 828.277 532.388 816.981V655.238ZM748.005 916.594C725.07 916.594 705.045 913.342 687.929 906.838C670.814 900.334 657.464 891.263 647.879 879.624C638.636 867.986 634.015 854.807 634.015 840.087V834.953C634.015 833.241 634.529 831.872 635.556 830.845C636.925 829.476 638.465 828.791 640.177 828.791H697.172C698.883 828.791 700.253 829.476 701.28 830.845C702.649 831.872 703.334 833.241 703.334 834.953V835.466C703.334 842.997 707.441 849.501 715.657 854.978C724.215 860.113 734.826 862.68 747.492 862.68C759.131 862.68 768.544 860.455 775.733 856.005C782.921 851.212 786.516 845.393 786.516 838.547C786.516 832.385 783.435 827.764 777.273 824.683C771.112 821.602 761.013 818.35 746.978 814.927C730.89 810.819 718.224 806.883 708.982 803.117C687.074 795.587 669.616 786.344 656.608 775.39C643.6 764.436 637.096 748.69 637.096 728.151C637.096 702.82 646.852 682.794 666.364 668.075C686.218 653.013 712.405 645.482 744.925 645.482C766.833 645.482 786.002 649.076 802.433 656.265C818.864 663.111 831.53 672.867 840.43 685.533C849.672 698.198 854.294 712.576 854.294 728.664C854.294 730.376 853.609 731.916 852.24 733.285C851.213 734.312 849.844 734.826 848.132 734.826H793.191C791.479 734.826 789.939 734.312 788.57 733.285C787.543 731.916 787.029 730.376 787.029 728.664C787.029 721.133 783.093 714.801 775.219 709.666C767.688 704.531 757.59 701.964 744.925 701.964C733.628 701.964 724.386 704.018 717.197 708.125C710.009 712.233 706.414 717.881 706.414 725.07C706.414 731.916 709.837 737.051 716.684 740.474C723.872 743.897 735.682 747.492 752.113 751.257C755.879 752.284 760.158 753.482 764.95 754.851C769.742 755.878 774.877 757.247 780.354 758.959C804.658 766.148 823.828 775.39 837.863 786.686C851.898 797.983 858.915 814.414 858.915 835.98C858.915 861.311 848.817 881.165 828.62 895.542C808.766 909.577 781.894 916.594 748.005 916.594ZM924.102 619.295C912.463 619.295 902.707 615.53 894.834 607.999C887.303 600.126 883.537 590.37 883.537 578.731C883.537 566.75 887.303 556.994 894.834 549.463C902.365 541.932 912.121 538.167 924.102 538.167C936.083 538.167 945.838 541.932 953.369 549.463C960.9 556.994 964.666 566.75 964.666 578.731C964.666 590.37 960.729 600.126 952.856 607.999C945.325 615.53 935.74 619.295 924.102 619.295ZM893.293 913C891.582 913 890.041 912.487 888.672 911.46C887.645 910.09 887.132 908.55 887.132 906.838V654.725C887.132 653.013 887.645 651.644 888.672 650.617C890.041 649.248 891.582 648.563 893.293 648.563H953.369C955.081 648.563 956.45 649.248 957.477 650.617C958.846 651.644 959.531 653.013 959.531 654.725V906.838C959.531 908.55 958.846 910.09 957.477 911.46C956.45 912.487 955.081 913 953.369 913H893.293ZM1116.59 917.108C1089.21 917.108 1065.42 910.261 1045.22 896.569C1025.37 882.876 1011.16 864.049 1002.6 840.087C996.783 822.972 993.873 802.775 993.873 779.498C993.873 756.563 996.783 736.709 1002.6 719.935C1010.82 696.658 1025.02 678.344 1045.22 664.994C1065.42 651.644 1089.21 644.969 1116.59 644.969C1143.98 644.969 1167.94 651.815 1188.48 665.507C1209.36 679.2 1223.22 696.487 1230.07 717.368C1232.81 725.583 1234.18 731.745 1234.18 735.853V736.88C1234.18 739.961 1232.47 741.843 1229.04 742.528L1169.99 751.257H1168.97C1165.89 751.257 1163.83 749.545 1162.8 746.122L1161.26 737.907C1158.87 729.007 1153.56 721.647 1145.35 715.828C1137.13 710.008 1127.38 707.099 1116.08 707.099C1105.13 707.099 1095.88 709.837 1088.35 715.314C1080.82 720.791 1075.52 728.322 1072.43 737.907C1068.67 748.176 1066.79 762.211 1066.79 780.011C1066.79 797.812 1068.5 811.846 1071.92 822.116C1075 832.385 1080.31 840.43 1087.84 846.249C1095.71 852.068 1105.13 854.978 1116.08 854.978C1126.69 854.978 1135.93 852.239 1143.81 846.762C1152.02 840.943 1157.67 833.07 1160.75 823.143C1161.09 822.458 1161.26 821.431 1161.26 820.062C1161.61 819.72 1161.78 819.206 1161.78 818.522C1162.12 814.414 1164.52 812.702 1168.97 813.387L1228.02 822.629C1231.44 823.314 1233.15 825.197 1233.15 828.277C1233.15 831.016 1232.12 836.151 1230.07 843.682C1222.88 866.617 1208.85 884.588 1187.96 897.596C1167.43 910.604 1143.64 917.108 1116.59 917.108Z" fill="url(#paint0_linear)"/>
<defs>
<linearGradient id="paint0_linear" x1="536.958" y1="-232.066" x2="1299.79" y2="945.184" gradientUnits="userSpaceOnUse">
<stop stop-color="#F19D2D"/>
<stop offset="1" stop-color="#DB5721"/>
</linearGradient>
</defs>
</svg>
