<svg width="1250" height="1078" viewBox="0 0 1250 1078" fill="none" xmlns="http://www.w3.org/2000/svg">
<path d="M300.356 285.685C297.832 286.947 297.832 288.209 300.356 289.471C340.319 310.084 360.301 344.368 360.301 392.324C360.301 433.129 346.419 464.048 318.655 485.081C290.891 505.694 254.503 516 209.492 516H46.063C43.9597 516 42.0667 515.369 40.384 514.107C39.122 512.424 38.491 510.531 38.491 508.428V81.872C38.491 79.7687 39.122 78.086 40.384 76.824C42.0667 75.1413 43.9597 74.3 46.063 74.3H204.444C304.142 74.3 353.991 114.684 353.991 195.452C353.991 237.519 336.113 267.596 300.356 285.685ZM130.617 150.651C128.514 150.651 127.462 151.703 127.462 153.806V252.242C127.462 254.345 128.514 255.397 130.617 255.397H204.444C224.215 255.397 239.57 250.77 250.507 241.515C261.444 232.26 266.913 219.64 266.913 203.655C266.913 187.249 261.444 174.419 250.507 165.164C239.57 155.489 224.215 150.651 204.444 150.651H130.617ZM209.492 439.018C228.843 439.018 243.987 434.18 254.924 424.505C265.861 414.409 271.33 400.737 271.33 383.49C271.33 366.243 265.861 352.781 254.924 343.106C243.987 333.01 228.632 327.962 208.861 327.962H130.617C128.514 327.962 127.462 329.014 127.462 331.117V435.863C127.462 437.966 128.514 439.018 130.617 439.018H209.492ZM672.72 285.685C670.196 286.947 670.196 288.209 672.72 289.471C712.683 310.084 732.665 344.368 732.665 392.324C732.665 433.129 718.783 464.048 691.019 485.081C663.255 505.694 626.867 516 581.856 516H418.427C416.324 516 414.431 515.369 412.748 514.107C411.486 512.424 410.855 510.531 410.855 508.428V81.872C410.855 79.7687 411.486 78.086 412.748 76.824C414.431 75.1413 416.324 74.3 418.427 74.3H576.808C676.506 74.3 726.355 114.684 726.355 195.452C726.355 237.519 708.477 267.596 672.72 285.685ZM502.981 150.651C500.878 150.651 499.826 151.703 499.826 153.806V252.242C499.826 254.345 500.878 255.397 502.981 255.397H576.808C596.579 255.397 611.934 250.77 622.871 241.515C633.808 232.26 639.277 219.64 639.277 203.655C639.277 187.249 633.808 174.419 622.871 165.164C611.934 155.489 596.579 150.651 576.808 150.651H502.981ZM581.856 439.018C601.207 439.018 616.351 434.18 627.288 424.505C638.225 414.409 643.694 400.737 643.694 383.49C643.694 366.243 638.225 352.781 627.288 343.106C616.351 333.01 600.996 327.962 581.225 327.962H502.981C500.878 327.962 499.826 329.014 499.826 331.117V435.863C499.826 437.966 500.878 439.018 502.981 439.018H581.856ZM1036.88 81.872C1036.88 79.7687 1037.51 78.086 1038.77 76.824C1040.46 75.1413 1042.35 74.3 1044.45 74.3H1118.28C1120.38 74.3 1122.07 75.1413 1123.33 76.824C1125.01 78.086 1125.85 79.7687 1125.85 81.872V508.428C1125.85 510.531 1125.01 512.424 1123.33 514.107C1122.07 515.369 1120.38 516 1118.28 516H1046.98C1042.77 516 1039.83 514.317 1038.14 510.952L874.714 240.884C873.873 239.622 873.031 239.201 872.19 239.622C871.349 239.622 870.928 240.463 870.928 242.146L872.19 508.428C872.19 510.531 871.349 512.424 869.666 514.107C868.404 515.369 866.721 516 864.618 516H790.791C788.688 516 786.795 515.369 785.112 514.107C783.85 512.424 783.219 510.531 783.219 508.428V81.872C783.219 79.7687 783.85 78.086 785.112 76.824C786.795 75.1413 788.688 74.3 790.791 74.3H862.094C866.301 74.3 869.245 75.9826 870.928 79.348L1033.73 348.154C1034.57 349.416 1035.41 350.047 1036.25 350.047C1037.09 349.626 1037.51 348.575 1037.51 346.892L1036.88 81.872ZM193.717 1048.05C160.905 1048.05 132.089 1041.74 107.27 1029.12C82.4507 1016.08 63.3103 997.989 49.849 974.852C36.3877 951.715 29.657 925.003 29.657 894.715V748.954C29.657 718.666 36.3877 691.954 49.849 668.817C63.3103 645.68 82.4507 627.802 107.27 615.182C132.089 602.562 160.905 596.252 193.717 596.252C226.108 596.252 254.503 602.352 278.902 614.551C303.721 626.33 322.862 643.367 336.323 665.662C350.205 687.537 357.146 712.987 357.146 742.013C357.146 745.799 354.622 748.113 349.574 748.954L275.747 753.371H274.485C270.278 753.371 268.175 751.057 268.175 746.43C268.175 724.135 261.234 706.256 247.352 692.795C233.891 679.334 216.012 672.603 193.717 672.603C171.001 672.603 152.702 679.334 138.82 692.795C125.359 706.256 118.628 724.135 118.628 746.43V898.501C118.628 920.376 125.359 938.044 138.82 951.505C152.702 964.966 171.001 971.697 193.717 971.697C216.012 971.697 233.891 964.966 247.352 951.505C261.234 938.044 268.175 920.376 268.175 898.501C268.175 893.874 270.699 891.56 275.747 891.56L349.574 894.715C351.677 894.715 353.36 895.346 354.622 896.608C356.305 897.87 357.146 899.342 357.146 901.025C357.146 930.051 350.205 955.712 336.323 978.007C322.862 1000.3 303.721 1017.55 278.902 1029.75C254.503 1041.95 226.108 1048.05 193.717 1048.05ZM525.288 713.618C552.631 713.618 577.03 718.456 598.484 728.131C619.938 737.386 636.554 750.216 648.333 766.622C660.532 783.028 666.632 801.327 666.632 821.519V1035.43C666.632 1037.53 665.79 1039.42 664.108 1041.11C662.846 1042.37 661.163 1043 659.06 1043H585.233C583.129 1043 581.236 1042.37 579.554 1041.11C578.292 1039.42 577.661 1037.53 577.661 1035.43V1014.6C577.661 1013.34 577.24 1012.5 576.399 1012.08C575.557 1011.66 574.716 1012.08 573.875 1013.34C556.207 1036.48 527.812 1048.05 488.69 1048.05C455.878 1048.05 429.376 1040.06 409.184 1024.07C388.992 1008.08 378.896 984.527 378.896 953.398C378.896 921.007 390.254 895.977 412.97 878.309C435.686 860.22 468.077 851.176 510.144 851.176H574.506C576.609 851.176 577.661 850.124 577.661 848.021V834.139C577.661 820.257 573.454 809.53 565.041 801.958C556.627 793.965 544.007 789.969 527.181 789.969C514.14 789.969 503.203 792.283 494.369 796.91C485.955 801.537 480.487 808.058 477.963 816.471C476.701 821.098 473.966 823.202 469.76 822.781L393.409 812.685C388.361 811.844 386.047 809.951 386.468 807.006C388.15 789.338 395.091 773.353 407.291 759.05C419.911 744.747 436.317 733.6 456.509 725.607C477.121 717.614 500.048 713.618 525.288 713.618ZM512.668 981.793C530.756 981.793 546.111 976.955 558.731 967.28C571.351 957.605 577.661 945.195 577.661 930.051V907.335C577.661 905.232 576.609 904.18 574.506 904.18H529.074C510.144 904.18 495.21 907.756 484.273 914.907C473.756 922.058 468.498 932.154 468.498 945.195C468.498 956.553 472.494 965.597 480.487 972.328C488.479 978.638 499.206 981.793 512.668 981.793ZM871.909 714.249C887.053 714.249 899.042 717.194 907.876 723.083C911.241 724.766 912.503 727.921 911.662 732.548L898.411 804.482C897.99 809.53 895.046 811.002 889.577 808.899C883.267 806.796 875.905 805.744 867.492 805.744C864.127 805.744 859.499 806.165 853.61 807.006C838.466 808.268 825.636 813.947 815.119 824.043C804.602 833.718 799.344 846.759 799.344 863.165V1035.43C799.344 1037.53 798.503 1039.42 796.82 1041.11C795.558 1042.37 793.875 1043 791.772 1043H717.945C715.842 1043 713.949 1042.37 712.266 1041.11C711.004 1039.42 710.373 1037.53 710.373 1035.43V726.238C710.373 724.135 711.004 722.452 712.266 721.19C713.949 719.507 715.842 718.666 717.945 718.666H791.772C793.875 718.666 795.558 719.507 796.82 721.19C798.503 722.452 799.344 724.135 799.344 726.238V750.216C799.344 751.478 799.765 752.319 800.606 752.74C801.447 753.161 802.078 752.95 802.499 752.109C819.746 726.869 842.883 714.249 871.909 714.249ZM1126.28 608.872C1126.28 606.769 1126.91 605.086 1128.17 603.824C1129.85 602.141 1131.74 601.3 1133.85 601.3H1207.67C1209.78 601.3 1211.46 602.141 1212.72 603.824C1214.41 605.086 1215.25 606.769 1215.25 608.872V1035.43C1215.25 1037.53 1214.41 1039.42 1212.72 1041.11C1211.46 1042.37 1209.78 1043 1207.67 1043H1133.85C1131.74 1043 1129.85 1042.37 1128.17 1041.11C1126.91 1039.42 1126.28 1037.53 1126.28 1035.43V1014.6C1126.28 1013.34 1125.86 1012.71 1125.01 1012.71C1124.17 1012.29 1123.33 1012.5 1122.49 1013.34C1104.82 1036.48 1080.63 1048.05 1049.92 1048.05C1020.48 1048.05 995.028 1039.84 973.574 1023.44C952.541 1007.03 937.397 984.527 928.142 955.922C920.991 934.047 917.415 908.597 917.415 879.571C917.415 849.704 921.201 823.622 928.773 801.327C938.448 774.404 953.592 753.161 974.205 737.596C995.238 721.611 1021.11 713.618 1051.82 713.618C1082.11 713.618 1105.66 724.135 1122.49 745.168C1123.33 746.43 1124.17 746.851 1125.01 746.43C1125.86 746.009 1126.28 745.168 1126.28 743.906V608.872ZM1113.02 944.564C1121.44 928.999 1125.64 907.756 1125.64 880.833C1125.64 852.648 1121.02 830.563 1111.76 814.578C1102.09 798.172 1088 789.969 1069.49 789.969C1049.71 789.969 1034.78 798.172 1024.68 814.578C1014.17 830.984 1008.91 853.279 1008.91 881.464C1008.91 906.704 1013.33 927.737 1022.16 944.564C1032.68 962.653 1048.24 971.697 1068.85 971.697C1087.78 971.697 1102.51 962.653 1113.02 944.564Z" fill="url(#paint0_linear)"/>
<defs>
<linearGradient id="paint0_linear" x1="606.526" y1="-175.8" x2="587.186" y2="1427.78" gradientUnits="userSpaceOnUse">
<stop stop-color="#F19D2D"/>
<stop offset="0.435749" stop-color="#E47526"/>
<stop offset="0.47343" stop-color="#FE0000"/>
<stop offset="0.8125" stop-color="#B00000"/>
</linearGradient>
</defs>
</svg>
