<svg width="75" height="67" viewBox="0 0 75 67" fill="none" xmlns="http://www.w3.org/2000/svg">
<path d="M17.651 13.6972C17.4942 13.7756 17.4942 13.8539 17.651 13.9323C20.1327 15.2124 21.3736 17.3415 21.3736 20.3196C21.3736 22.8536 20.5115 24.7737 18.7873 26.0799C17.0632 27.36 14.8035 28 12.0082 28H1.8591C1.72848 28 1.61092 27.9608 1.50642 27.8824C1.42805 27.7779 1.38887 27.6604 1.38887 27.5298V1.0402C1.38887 0.909582 1.42805 0.805087 1.50642 0.726714C1.61092 0.622219 1.72848 0.569971 1.8591 0.569971H11.6947C17.8861 0.569971 20.9817 3.07786 20.9817 8.09364C20.9817 10.706 19.8715 12.5739 17.651 13.6972ZM7.10999 5.31145C6.97937 5.31145 6.91406 5.37676 6.91406 5.50738V11.6204C6.91406 11.751 6.97937 11.8163 7.10999 11.8163H11.6947C12.9225 11.8163 13.8761 11.5289 14.5553 10.9542C15.2345 10.3795 15.5741 9.59576 15.5741 8.60305C15.5741 7.58422 15.2345 6.78744 14.5553 6.21272C13.8761 5.61187 12.9225 5.31145 11.6947 5.31145H7.10999ZM12.0082 23.2193C13.2099 23.2193 14.1504 22.9189 14.8296 22.3181C15.5088 21.6911 15.8484 20.8421 15.8484 19.771C15.8484 18.6999 15.5088 17.864 14.8296 17.2631C14.1504 16.6361 13.1968 16.3226 11.969 16.3226H7.10999C6.97937 16.3226 6.91406 16.388 6.91406 16.5186V23.0234C6.91406 23.154 6.97937 23.2193 7.10999 23.2193H12.0082ZM40.7751 13.6972C40.6184 13.7756 40.6184 13.8539 40.7751 13.9323C43.2569 15.2124 44.4978 17.3415 44.4978 20.3196C44.4978 22.8536 43.6357 24.7737 41.9115 26.0799C40.1874 27.36 37.9276 28 35.1324 28H24.9833C24.8527 28 24.7351 27.9608 24.6306 27.8824C24.5522 27.7779 24.5131 27.6604 24.5131 27.5298V1.0402C24.5131 0.909582 24.5522 0.805087 24.6306 0.726714C24.7351 0.622219 24.8527 0.569971 24.9833 0.569971H34.8189C41.0103 0.569971 44.1059 3.07786 44.1059 8.09364C44.1059 10.706 42.9957 12.5739 40.7751 13.6972ZM30.2342 5.31145C30.1036 5.31145 30.0382 5.37676 30.0382 5.50738V11.6204C30.0382 11.751 30.1036 11.8163 30.2342 11.8163H34.8189C36.0467 11.8163 37.0002 11.5289 37.6795 10.9542C38.3587 10.3795 38.6983 9.59576 38.6983 8.60305C38.6983 7.58422 38.3587 6.78744 37.6795 6.21272C37.0002 5.61187 36.0467 5.31145 34.8189 5.31145H30.2342ZM35.1324 23.2193C36.3341 23.2193 37.2745 22.9189 37.9538 22.3181C38.633 21.6911 38.9726 20.8421 38.9726 19.771C38.9726 18.6999 38.633 17.864 37.9538 17.2631C37.2745 16.6361 36.321 16.3226 35.0932 16.3226H30.2342C30.1036 16.3226 30.0382 16.388 30.0382 16.5186V23.0234C30.0382 23.154 30.1036 23.2193 30.2342 23.2193H35.1324ZM63.3899 1.0402C63.3899 0.909582 63.4291 0.805087 63.5075 0.726714C63.612 0.622219 63.7295 0.569971 63.8601 0.569971H68.4449C68.5755 0.569971 68.68 0.622219 68.7584 0.726714C68.8629 0.805087 68.9151 0.909582 68.9151 1.0402V27.5298C68.9151 27.6604 68.8629 27.7779 68.7584 27.8824C68.68 27.9608 68.5755 28 68.4449 28H64.0169C63.7556 28 63.5728 27.8955 63.4683 27.6865L53.3192 10.915C53.2669 10.8366 53.2147 10.8105 53.1624 10.8366C53.1102 10.8366 53.0841 10.8889 53.0841 10.9934L53.1624 27.5298C53.1624 27.6604 53.1102 27.7779 53.0057 27.8824C52.9273 27.9608 52.8228 28 52.6922 28H48.1075C47.9768 28 47.8593 27.9608 47.7548 27.8824C47.6764 27.7779 47.6372 27.6604 47.6372 27.5298V1.0402C47.6372 0.909582 47.6764 0.805087 47.7548 0.726714C47.8593 0.622219 47.9768 0.569971 48.1075 0.569971H52.5355C52.7967 0.569971 52.9796 0.674467 53.0841 0.883458L63.194 17.5766C63.2462 17.655 63.2985 17.6941 63.3507 17.6941C63.403 17.668 63.4291 17.6027 63.4291 17.4982L63.3899 1.0402ZM11.0286 66.3135C8.9909 66.3135 7.20142 65.9216 5.66011 65.1379C4.11881 64.3281 2.93017 63.2047 2.09421 61.7679C1.25825 60.3311 0.840266 58.6723 0.840266 56.7913V47.7394C0.840266 45.8585 1.25825 44.1997 2.09421 42.7628C2.93017 41.326 4.11881 40.2158 5.66011 39.4321C7.20142 38.6483 8.9909 38.2565 11.0286 38.2565C13.0401 38.2565 14.8035 38.6353 16.3186 39.3929C17.8599 40.1243 19.0486 41.1824 19.8845 42.5669C20.7466 43.9254 21.1777 45.5059 21.1777 47.3084C21.1777 47.5435 21.0209 47.6872 20.7074 47.7394L16.1227 48.0137H16.0443C15.7831 48.0137 15.6525 47.8701 15.6525 47.5827C15.6525 46.1981 15.2214 45.0879 14.3594 44.2519C13.5234 43.4159 12.4131 42.998 11.0286 42.998C9.61787 42.998 8.48149 43.4159 7.6194 44.2519C6.78344 45.0879 6.36546 46.1981 6.36546 47.5827V57.0265C6.36546 58.3849 6.78344 59.4821 7.6194 60.3181C8.48149 61.154 9.61787 61.572 11.0286 61.572C12.4131 61.572 13.5234 61.154 14.3594 60.3181C15.2214 59.4821 15.6525 58.3849 15.6525 57.0265C15.6525 56.7391 15.8092 56.5954 16.1227 56.5954L20.7074 56.7913C20.8381 56.7913 20.9426 56.8305 21.0209 56.9089C21.1254 56.9873 21.1777 57.0787 21.1777 57.1832C21.1777 58.9858 20.7466 60.5793 19.8845 61.9639C19.0486 63.3484 17.8599 64.4195 16.3186 65.1771C14.8035 65.9347 13.0401 66.3135 11.0286 66.3135ZM31.6194 45.545C33.3175 45.545 34.8327 45.8455 36.165 46.4463C37.4973 47.021 38.5292 47.8178 39.2607 48.8366C40.0183 49.8555 40.3971 50.9919 40.3971 52.2458V65.5298C40.3971 65.6604 40.3448 65.7779 40.2403 65.8824C40.1619 65.9608 40.0574 66 39.9268 66H35.3421C35.2115 66 35.0939 65.9608 34.9894 65.8824C34.9111 65.7779 34.8719 65.6604 34.8719 65.5298V64.2366C34.8719 64.1583 34.8457 64.106 34.7935 64.0799C34.7412 64.0538 34.689 64.0799 34.6368 64.1583C33.5396 65.5951 31.7762 66.3135 29.3467 66.3135C27.309 66.3135 25.6632 65.8171 24.4093 64.8244C23.1553 63.8317 22.5284 62.3688 22.5284 60.4356C22.5284 58.4241 23.2337 56.8697 24.6444 55.7725C26.0551 54.6492 28.0666 54.0875 30.679 54.0875H34.6759C34.8066 54.0875 34.8719 54.0222 34.8719 53.8916V53.0295C34.8719 52.1674 34.6106 51.5013 34.0882 51.031C33.5657 50.5347 32.782 50.2865 31.737 50.2865C30.9272 50.2865 30.2479 50.4302 29.6993 50.7176C29.1769 51.0049 28.8373 51.4098 28.6805 51.9323C28.6021 52.2197 28.4323 52.3503 28.1711 52.3242L23.4296 51.6972C23.1161 51.645 22.9725 51.5274 22.9986 51.3445C23.1031 50.2473 23.5341 49.2546 24.2917 48.3664C25.0754 47.4782 26.0943 46.7859 27.3482 46.2896C28.6283 45.7932 30.052 45.545 31.6194 45.545ZM30.8357 62.199C31.9591 62.199 32.9126 61.8986 33.6963 61.2977C34.48 60.6969 34.8719 59.9262 34.8719 58.9858V57.5751C34.8719 57.4444 34.8066 57.3791 34.6759 57.3791H31.8546C30.679 57.3791 29.7516 57.6012 29.0724 58.0453C28.4193 58.4894 28.0927 59.1164 28.0927 59.9262C28.0927 60.6316 28.3409 61.1932 28.8373 61.6112C29.3336 62.0031 29.9998 62.199 30.8357 62.199ZM53.145 45.5842C54.0854 45.5842 54.83 45.7671 55.3786 46.1328C55.5876 46.2373 55.6659 46.4332 55.6137 46.7206L54.7908 51.1878C54.7647 51.5013 54.5818 51.5927 54.2422 51.4621C53.8503 51.3315 53.3932 51.2662 52.8707 51.2662C52.6617 51.2662 52.3743 51.2923 52.0086 51.3445C51.0681 51.4229 50.2714 51.7756 49.6183 52.4025C48.9652 53.0034 48.6386 53.8132 48.6386 54.8321V65.5298C48.6386 65.6604 48.5864 65.7779 48.4819 65.8824C48.4035 65.9608 48.299 66 48.1684 66H43.5837C43.453 66 43.3355 65.9608 43.231 65.8824C43.1526 65.7779 43.1134 65.6604 43.1134 65.5298V46.3288C43.1134 46.1981 43.1526 46.0936 43.231 46.0153C43.3355 45.9108 43.453 45.8585 43.5837 45.8585H48.1684C48.299 45.8585 48.4035 45.9108 48.4819 46.0153C48.5864 46.0936 48.6386 46.1981 48.6386 46.3288V47.8178C48.6386 47.8962 48.6647 47.9484 48.717 47.9746C48.7692 48.0007 48.8084 47.9876 48.8345 47.9354C49.9056 46.3679 51.3424 45.5842 53.145 45.5842ZM68.9414 39.0402C68.9414 38.9096 68.9806 38.8051 69.059 38.7267C69.1635 38.6222 69.281 38.57 69.4117 38.57H73.9964C74.127 38.57 74.2315 38.6222 74.3099 38.7267C74.4144 38.8051 74.4666 38.9096 74.4666 39.0402V65.5298C74.4666 65.6604 74.4144 65.7779 74.3099 65.8824C74.2315 65.9608 74.127 66 73.9964 66H69.4117C69.281 66 69.1635 65.9608 69.059 65.8824C68.9806 65.7779 68.9414 65.6604 68.9414 65.5298V64.2366C68.9414 64.1583 68.9153 64.1191 68.8631 64.1191C68.8108 64.093 68.7586 64.106 68.7063 64.1583C67.6091 65.5951 66.107 66.3135 64.2 66.3135C62.3713 66.3135 60.7908 65.8041 59.4585 64.7852C58.1523 63.7664 57.2118 62.3688 56.6371 60.5924C56.193 59.2339 55.9709 57.6534 55.9709 55.8509C55.9709 53.9961 56.2061 52.3764 56.6763 50.9919C57.2771 49.3199 58.2176 48.0007 59.4977 47.0341C60.8039 46.0414 62.4105 45.545 64.3175 45.545C66.1984 45.545 67.6614 46.1981 68.7063 47.5043C68.7586 47.5827 68.8108 47.6088 68.8631 47.5827C68.9153 47.5566 68.9414 47.5043 68.9414 47.426V39.0402ZM68.1185 59.887C68.641 58.9204 68.9022 57.6012 68.9022 55.9293C68.9022 54.179 68.6149 52.8075 68.0402 51.8148C67.4393 50.7959 66.5642 50.2865 65.4147 50.2865C64.1869 50.2865 63.2595 50.7959 62.6325 51.8148C61.9794 52.8336 61.6529 54.2181 61.6529 55.9684C61.6529 57.5359 61.9272 58.8421 62.4758 59.887C63.1289 61.0103 64.0955 61.572 65.3755 61.572C66.5511 61.572 67.4654 61.0103 68.1185 59.887Z" fill="url(#paint0_linear_1019_204)"/>
<defs>
<linearGradient id="paint0_linear_1019_204" x1="49.5276" y1="-18.5572" x2="48.3431" y2="95.9887" gradientUnits="userSpaceOnUse">
<stop stop-color="#F19D2D"/>
<stop offset="0.432292" stop-color="#E47526"/>
<stop offset="0.463542" stop-color="#FE0000"/>
<stop offset="0.8125" stop-color="#B00000"/>
</linearGradient>
</defs>
</svg>
