<svg width="124" height="105" viewBox="0 0 124 105" fill="none" xmlns="http://www.w3.org/2000/svg">
<path d="M17.8173 13.7404C17.661 13.8185 17.661 13.8967 17.8173 13.9748C20.2915 15.251 21.5287 17.3737 21.5287 20.3428C21.5287 22.8692 20.6692 24.7835 18.9502 26.0857C17.2312 27.3619 14.9784 28 12.1916 28H2.07311C1.94289 28 1.82568 27.9609 1.7215 27.8828C1.64337 27.7786 1.6043 27.6614 1.6043 27.5312V1.12165C1.6043 0.991423 1.64337 0.887243 1.7215 0.809108C1.82568 0.704928 1.94289 0.652838 2.07311 0.652838H11.879C18.0517 0.652838 21.138 3.15315 21.138 8.15377C21.138 10.7583 20.0311 12.6205 17.8173 13.7404ZM7.30814 5.37999C7.17791 5.37999 7.1128 5.4451 7.1128 5.57533V11.6698C7.1128 11.8001 7.17791 11.8652 7.30814 11.8652H11.879C13.1031 11.8652 14.0538 11.5787 14.7309 11.0057C15.4081 10.4327 15.7467 9.65136 15.7467 8.66165C15.7467 7.6459 15.4081 6.85153 14.7309 6.27854C14.0538 5.67951 13.1031 5.37999 11.879 5.37999H7.30814ZM12.1916 23.2338C13.3896 23.2338 14.3272 22.9343 15.0044 22.3352C15.6816 21.7102 16.0202 20.8637 16.0202 19.7959C16.0202 18.728 15.6816 17.8946 15.0044 17.2955C14.3272 16.6705 13.3766 16.3579 12.1525 16.3579H7.30814C7.17791 16.3579 7.1128 16.423 7.1128 16.5533V23.0384C7.1128 23.1687 7.17791 23.2338 7.30814 23.2338H12.1916ZM40.8716 13.7404C40.7153 13.8185 40.7153 13.8967 40.8716 13.9748C43.3459 15.251 44.583 17.3737 44.583 20.3428C44.583 22.8692 43.7235 24.7835 42.0045 26.0857C40.2856 27.3619 38.0327 28 35.2459 28H25.1274C24.9972 28 24.88 27.9609 24.7758 27.8828C24.6977 27.7786 24.6586 27.6614 24.6586 27.5312V1.12165C24.6586 0.991423 24.6977 0.887243 24.7758 0.809108C24.88 0.704928 24.9972 0.652838 25.1274 0.652838H34.9333C41.106 0.652838 44.1923 3.15315 44.1923 8.15377C44.1923 10.7583 43.0854 12.6205 40.8716 13.7404ZM30.3625 5.37999C30.2322 5.37999 30.1671 5.4451 30.1671 5.57533V11.6698C30.1671 11.8001 30.2322 11.8652 30.3625 11.8652H34.9333C36.1575 11.8652 37.1081 11.5787 37.7853 11.0057C38.4624 10.4327 38.801 9.65136 38.801 8.66165C38.801 7.6459 38.4624 6.85153 37.7853 6.27854C37.1081 5.67951 36.1575 5.37999 34.9333 5.37999H30.3625ZM35.2459 23.2338C36.444 23.2338 37.3816 22.9343 38.0587 22.3352C38.7359 21.7102 39.0745 20.8637 39.0745 19.7959C39.0745 18.728 38.7359 17.8946 38.0587 17.2955C37.3816 16.6705 36.4309 16.3579 35.2068 16.3579H30.3625C30.2322 16.3579 30.1671 16.423 30.1671 16.5533V23.0384C30.1671 23.1687 30.2322 23.2338 30.3625 23.2338H35.2459ZM63.418 1.12165C63.418 0.991423 63.4571 0.887243 63.5352 0.809108C63.6394 0.704928 63.7566 0.652838 63.8868 0.652838H68.4577C68.588 0.652838 68.6921 0.704928 68.7703 0.809108C68.8744 0.887243 68.9265 0.991423 68.9265 1.12165V27.5312C68.9265 27.6614 68.8744 27.7786 68.7703 27.8828C68.6921 27.9609 68.588 28 68.4577 28H64.0431C63.7827 28 63.6004 27.8958 63.4962 27.6875L53.3777 10.9666C53.3256 10.8885 53.2735 10.8624 53.2215 10.8885C53.1694 10.8885 53.1433 10.9406 53.1433 11.0448L53.2215 27.5312C53.2215 27.6614 53.1694 27.7786 53.0652 27.8828C52.9871 27.9609 52.8829 28 52.7526 28H48.1818C48.0515 28 47.9343 27.9609 47.8302 27.8828C47.752 27.7786 47.713 27.6614 47.713 27.5312V1.12165C47.713 0.991423 47.752 0.887243 47.8302 0.809108C47.9343 0.704928 48.0515 0.652838 48.1818 0.652838H52.5964C52.8568 0.652838 53.0391 0.757018 53.1433 0.965378L63.2227 17.6081C63.2748 17.6862 63.3269 17.7253 63.379 17.7253C63.4311 17.6992 63.4571 17.6341 63.4571 17.5299L63.418 1.12165ZM11.2149 66.3125C9.20942 66.3125 7.43836 65.9088 5.90171 65.1015C4.36506 64.2941 3.167 63.1741 2.30751 61.7417C1.47408 60.2831 1.05736 58.6032 1.05736 56.702V47.9509C1.05736 46.0496 1.47408 44.3697 2.30751 42.9112C3.167 41.4527 4.36506 40.3327 5.90171 39.5514C7.43836 38.744 9.20942 38.3403 11.2149 38.3403C13.1943 38.3403 14.9393 38.731 16.4499 39.5123C17.9866 40.2937 19.1716 41.3615 20.005 42.7158C20.8645 44.0441 21.2943 45.5287 21.2943 47.1695V47.443C21.2943 47.5732 21.2422 47.6904 21.138 47.7946C21.0599 47.8727 20.9557 47.9118 20.8254 47.9118H16.2546C16.1243 47.9118 16.0071 47.8727 15.903 47.7946C15.8248 47.6904 15.7858 47.5732 15.7858 47.443V47.3258C15.7858 46.1277 15.369 45.125 14.5356 44.3176C13.7022 43.4842 12.5953 43.0675 11.2149 43.0675C9.80845 43.0675 8.6755 43.5102 7.81601 44.3957C6.98258 45.2552 6.56586 46.3882 6.56586 47.7946V56.8582C6.56586 58.2647 7.02164 59.4106 7.93322 60.2962C8.84479 61.1556 10.0038 61.5854 11.4102 61.5854C12.7645 61.5854 13.8454 61.2338 14.6528 60.5306C15.4602 59.8013 15.8639 58.7986 15.8639 57.5224V55.7643C15.8639 55.6341 15.7988 55.569 15.6686 55.569H11.293C11.1628 55.569 11.0456 55.5299 10.9414 55.4518C10.8633 55.3476 10.8242 55.2304 10.8242 55.1002V51.506C10.8242 51.3758 10.8633 51.2716 10.9414 51.1935C11.0456 51.0893 11.1628 51.0372 11.293 51.0372H20.8254C20.9557 51.0372 21.0599 51.0893 21.138 51.1935C21.2422 51.2716 21.2943 51.3758 21.2943 51.506V56.6629C21.2943 58.6423 20.8775 60.3613 20.0441 61.8198C19.2107 63.2783 18.0256 64.3982 16.489 65.1796C14.9784 65.9349 13.2203 66.3125 11.2149 66.3125ZM31.8962 45.6068C33.5891 45.6068 35.0997 45.9063 36.428 46.5054C37.7563 47.0784 38.785 47.8727 39.5143 48.8885C40.2696 49.9042 40.6473 51.0372 40.6473 52.2874V65.5312C40.6473 65.6614 40.5952 65.7786 40.491 65.8828C40.4129 65.9609 40.3087 66 40.1784 66H35.6076C35.4773 66 35.3601 65.9609 35.256 65.8828C35.1778 65.7786 35.1388 65.6614 35.1388 65.5312V64.242C35.1388 64.1638 35.1127 64.1117 35.0606 64.0857C35.0085 64.0597 34.9564 64.0857 34.9044 64.1638C33.8105 65.5963 32.0524 66.3125 29.6303 66.3125C27.5988 66.3125 25.9579 65.8177 24.7078 64.828C23.4576 63.8383 22.8325 62.3798 22.8325 60.4524C22.8325 58.447 23.5357 56.8973 24.9422 55.8034C26.3486 54.6835 28.3541 54.1235 30.9585 54.1235H34.9434C35.0736 54.1235 35.1388 54.0584 35.1388 53.9282V53.0687C35.1388 52.2092 34.8783 51.5451 34.3574 51.0763C33.8365 50.5814 33.0552 50.334 32.0134 50.334C31.206 50.334 30.5288 50.4772 29.9819 50.7637C29.461 51.0502 29.1224 51.4539 28.9661 51.9748C28.888 52.2613 28.7187 52.3915 28.4582 52.3655L23.7311 51.7404C23.4185 51.6883 23.2753 51.5711 23.3013 51.3888C23.4055 50.2949 23.8353 49.3052 24.5906 48.4197C25.3719 47.5342 26.3877 46.844 27.6378 46.3491C28.914 45.8543 30.3335 45.6068 31.8962 45.6068ZM31.1148 62.2105C32.2347 62.2105 33.1854 61.9109 33.9667 61.3119C34.7481 60.7129 35.1388 59.9446 35.1388 59.0069V57.6005C35.1388 57.4703 35.0736 57.4052 34.9434 57.4052H32.1306C30.9585 57.4052 30.034 57.6266 29.3568 58.0693C28.7057 58.5121 28.3801 59.1372 28.3801 59.9446C28.3801 60.6478 28.6275 61.2077 29.1224 61.6245C29.6172 62.0151 30.2814 62.2105 31.1148 62.2105ZM65.6238 45.6068C67.6553 45.6068 69.2441 46.2189 70.39 47.443C71.536 48.6671 72.109 50.3861 72.109 52.5999V65.5312C72.109 65.6614 72.0569 65.7786 71.9527 65.8828C71.8746 65.9609 71.7704 66 71.6402 66H67.0693C66.9391 66 66.8219 65.9609 66.7177 65.8828C66.6396 65.7786 66.6005 65.6614 66.6005 65.5312V53.811C66.6005 52.7431 66.327 51.8967 65.7801 51.2716C65.2331 50.6465 64.5039 50.334 63.5923 50.334C62.6807 50.334 61.9385 50.6465 61.3655 51.2716C60.7925 51.8967 60.506 52.7301 60.506 53.7719V65.5312C60.506 65.6614 60.4539 65.7786 60.3497 65.8828C60.2716 65.9609 60.1674 66 60.0372 66H55.5054C55.3751 66 55.2579 65.9609 55.1538 65.8828C55.0756 65.7786 55.0366 65.6614 55.0366 65.5312V53.811C55.0366 52.7692 54.7501 51.9357 54.1771 51.3107C53.6041 50.6595 52.8618 50.334 51.9502 50.334C51.1168 50.334 50.4136 50.5814 49.8406 51.0763C49.2937 51.5711 48.9681 52.2613 48.8639 53.1468V65.5312C48.8639 65.6614 48.8118 65.7786 48.7076 65.8828C48.6295 65.9609 48.5253 66 48.3951 66H43.8242C43.694 66 43.5768 65.9609 43.4726 65.8828C43.3945 65.7786 43.3554 65.6614 43.3554 65.5312V46.3882C43.3554 46.258 43.3945 46.1538 43.4726 46.0756C43.5768 45.9715 43.694 45.9194 43.8242 45.9194H48.3951C48.5253 45.9194 48.6295 45.9715 48.7076 46.0756C48.8118 46.1538 48.8639 46.258 48.8639 46.3882V47.9118C48.8639 47.9899 48.89 48.042 48.9421 48.0681C48.9941 48.0941 49.0462 48.0681 49.0983 47.9899C50.1662 46.4012 51.82 45.6068 54.0599 45.6068C55.3621 45.6068 56.4951 45.8803 57.4587 46.4272C58.4484 46.9742 59.2037 47.7555 59.7246 48.7713C59.8028 48.9276 59.8939 48.9276 59.9981 48.7713C60.5711 47.7034 61.3394 46.9091 62.3031 46.3882C63.2928 45.8673 64.3997 45.6068 65.6238 45.6068ZM92.4643 53.8891C92.6206 54.8788 92.6727 55.9857 92.6206 57.2098C92.5945 57.5224 92.4253 57.6786 92.1127 57.6786H80.0409C79.8846 57.6786 79.8325 57.7438 79.8846 57.874C79.9628 58.3949 80.106 58.9158 80.3144 59.4367C80.9915 60.8952 82.3719 61.6245 84.4555 61.6245C86.1224 61.5984 87.4377 60.9212 88.4013 59.593C88.5055 59.4367 88.6227 59.3585 88.7529 59.3585C88.8311 59.3585 88.9222 59.4106 89.0264 59.5148L91.8392 62.2886C91.9695 62.4188 92.0346 62.536 92.0346 62.6402C92.0346 62.6923 91.9825 62.7965 91.8783 62.9527C91.0188 64.0206 89.9119 64.854 88.5576 65.4531C87.2033 66.026 85.7187 66.3125 84.1039 66.3125C81.864 66.3125 79.9628 65.8047 78.4001 64.7889C76.8634 63.7732 75.7565 62.3537 75.0793 60.5306C74.5324 59.2283 74.2589 57.5224 74.2589 55.4127C74.2589 53.9803 74.4543 52.7171 74.8449 51.6232C75.444 49.774 76.4858 48.3025 77.9703 47.2086C79.4809 46.1147 81.265 45.5678 83.3226 45.5678C85.9271 45.5678 88.0106 46.3231 89.5733 47.8337C91.1621 49.3443 92.1257 51.3628 92.4643 53.8891ZM83.3616 50.334C81.7208 50.334 80.6399 51.1023 80.119 52.639C80.0149 52.9775 79.9237 53.3943 79.8456 53.8891C79.8456 54.0193 79.9107 54.0845 80.0409 54.0845H86.7996C86.9558 54.0845 87.0079 54.0193 86.9558 53.8891C86.8256 53.1338 86.7605 52.7692 86.7605 52.7952C86.5261 52.0139 86.1094 51.4148 85.5103 50.9981C84.9373 50.5554 84.2211 50.334 83.3616 50.334ZM10.9805 104.313C8.89688 104.313 7.07373 103.987 5.51104 103.336C3.94834 102.659 2.73725 101.708 1.87777 100.484C1.04434 99.2338 0.627617 97.7883 0.627617 96.1475V95.288C0.627617 95.1578 0.666684 95.0536 0.744819 94.9754C0.848999 94.8713 0.966201 94.8192 1.09643 94.8192H5.55011C5.68033 94.8192 5.78451 94.8713 5.86264 94.9754C5.96682 95.0536 6.01891 95.1578 6.01891 95.288V95.874C6.01891 96.9158 6.50075 97.8013 7.46441 98.5306C8.42807 99.2338 9.73031 99.5854 11.3711 99.5854C12.7515 99.5854 13.7803 99.2989 14.4575 98.7259C15.1346 98.1269 15.4732 97.3976 15.4732 96.5381C15.4732 95.9131 15.2649 95.3922 14.8481 94.9754C14.4314 94.5327 13.8584 94.155 13.1292 93.8425C12.426 93.5039 11.293 93.0481 9.73032 92.4751C7.98531 91.8761 6.50075 91.264 5.27663 90.639C4.07857 90.0139 3.06282 89.1674 2.22938 88.0996C1.42199 87.0057 1.01829 85.6644 1.01829 84.0756C1.01829 82.5129 1.42199 81.1456 2.22938 79.9736C3.03677 78.8015 4.1567 77.903 5.58917 77.2779C7.02164 76.6528 8.6755 76.3403 10.5507 76.3403C12.5301 76.3403 14.2882 76.6919 15.8248 77.3951C17.3875 78.0983 18.5986 79.088 19.4581 80.3642C20.3436 81.6144 20.7864 83.0729 20.7864 84.7398V85.3258C20.7864 85.456 20.7343 85.5732 20.6301 85.6774C20.552 85.7555 20.4478 85.7946 20.3176 85.7946H15.8248C15.6946 85.7946 15.5774 85.7555 15.4732 85.6774C15.3951 85.5732 15.356 85.456 15.356 85.3258V85.0133C15.356 83.9194 14.9002 82.9948 13.9887 82.2395C13.1031 81.4581 11.879 81.0675 10.3163 81.0675C9.09221 81.0675 8.12855 81.3279 7.42534 81.8488C6.74817 82.3697 6.40959 83.0859 6.40959 83.9975C6.40959 84.6486 6.60493 85.1956 6.9956 85.6383C7.41232 86.0811 8.01135 86.4848 8.7927 86.8494C9.60009 87.188 10.8372 87.6568 12.5041 88.2558C14.3533 88.933 15.7988 89.532 16.8406 90.0529C17.9084 90.5738 18.8591 91.3552 19.6925 92.397C20.552 93.4127 20.9817 94.741 20.9817 96.3819C20.9817 98.8301 20.0832 100.77 18.2861 102.203C16.489 103.609 14.0538 104.313 10.9805 104.313ZM34.84 87.8652C34.84 87.9954 34.7879 88.1126 34.6837 88.2168C34.6055 88.2949 34.5014 88.334 34.3711 88.334H30.6207C30.4905 88.334 30.4253 88.3991 30.4253 88.5293V96.8116C30.4253 97.6711 30.5946 98.3092 30.9332 98.7259C31.2978 99.1426 31.8708 99.351 32.6522 99.351H33.9414C34.0716 99.351 34.1758 99.4031 34.2539 99.5073C34.3581 99.5854 34.4102 99.6896 34.4102 99.8198V103.531C34.4102 103.818 34.2539 103.987 33.9414 104.039C32.8475 104.091 32.0662 104.117 31.5974 104.117C29.4356 104.117 27.8208 103.766 26.753 103.062C25.6852 102.333 25.1382 100.979 25.1122 98.9994V88.5293C25.1122 88.3991 25.0471 88.334 24.9168 88.334H22.69C22.5598 88.334 22.4426 88.2949 22.3384 88.2168C22.2603 88.1126 22.2212 87.9954 22.2212 87.8652V84.3882C22.2212 84.258 22.2603 84.1538 22.3384 84.0756C22.4426 83.9715 22.5598 83.9194 22.69 83.9194H24.9168C25.0471 83.9194 25.1122 83.8543 25.1122 83.724V79.075C25.1122 78.9448 25.1512 78.8406 25.2294 78.7625C25.3336 78.6583 25.4508 78.6062 25.581 78.6062H29.9565C30.0868 78.6062 30.1909 78.6583 30.2691 78.7625C30.3732 78.8406 30.4253 78.9448 30.4253 79.075V83.724C30.4253 83.8543 30.4905 83.9194 30.6207 83.9194H34.3711C34.5014 83.9194 34.6055 83.9715 34.6837 84.0756C34.7879 84.1538 34.84 84.258 34.84 84.3882V87.8652ZM48.7043 84.3882C48.7043 84.258 48.7434 84.1538 48.8215 84.0756C48.9257 83.9715 49.0429 83.9194 49.1731 83.9194H53.744C53.8742 83.9194 53.9784 83.9715 54.0565 84.0756C54.1607 84.1538 54.2128 84.258 54.2128 84.3882V103.531C54.2128 103.661 54.1607 103.779 54.0565 103.883C53.9784 103.961 53.8742 104 53.744 104H49.1731C49.0429 104 48.9257 103.961 48.8215 103.883C48.7434 103.779 48.7043 103.661 48.7043 103.531V102.203C48.7043 102.125 48.6782 102.086 48.6262 102.086C48.5741 102.06 48.522 102.086 48.4699 102.164C47.4281 103.57 45.8133 104.273 43.6255 104.273C41.6461 104.273 40.0183 103.674 38.7421 102.476C37.4659 101.278 36.8278 99.5984 36.8278 97.4367V84.3882C36.8278 84.258 36.8669 84.1538 36.945 84.0756C37.0492 83.9715 37.1664 83.9194 37.2966 83.9194H41.8284C41.9587 83.9194 42.0628 83.9715 42.141 84.0756C42.2452 84.1538 42.2972 84.258 42.2972 84.3882V96.0693C42.2972 97.1111 42.5707 97.9576 43.1177 98.6087C43.6906 99.2598 44.472 99.5854 45.4617 99.5854C46.3472 99.5854 47.0765 99.3249 47.6495 98.804C48.2225 98.2571 48.5741 97.5539 48.7043 96.6944V84.3882ZM69.5632 77.1216C69.5632 76.9914 69.6023 76.8872 69.6804 76.8091C69.7846 76.7049 69.9018 76.6528 70.032 76.6528H74.6029C74.7331 76.6528 74.8373 76.7049 74.9154 76.8091C75.0196 76.8872 75.0717 76.9914 75.0717 77.1216V103.531C75.0717 103.661 75.0196 103.779 74.9154 103.883C74.8373 103.961 74.7331 104 74.6029 104H70.032C69.9018 104 69.7846 103.961 69.6804 103.883C69.6023 103.779 69.5632 103.661 69.5632 103.531V102.242C69.5632 102.164 69.5372 102.125 69.4851 102.125C69.433 102.099 69.3809 102.112 69.3288 102.164C68.2349 103.596 66.7373 104.313 64.8361 104.313C63.0129 104.313 61.4372 103.805 60.1089 102.789C58.8067 101.773 57.869 100.38 57.2961 98.6087C56.8533 97.2544 56.6319 95.6786 56.6319 93.8816C56.6319 92.0324 56.8663 90.4176 57.3351 89.0372C57.9342 87.3703 58.8718 86.0551 60.148 85.0914C61.4502 84.1017 63.052 83.6068 64.9533 83.6068C66.8285 83.6068 68.287 84.258 69.3288 85.5602C69.3809 85.6383 69.433 85.6644 69.4851 85.6383C69.5372 85.6123 69.5632 85.5602 69.5632 85.4821V77.1216ZM68.7428 97.9055C69.2637 96.9418 69.5241 95.6266 69.5241 93.9597C69.5241 92.2147 69.2377 90.8473 68.6647 89.8576C68.0656 88.8419 67.1931 88.334 66.0472 88.334C64.823 88.334 63.8984 88.8419 63.2734 89.8576C62.6222 90.8734 62.2967 92.2537 62.2967 93.9988C62.2967 95.5614 62.5702 96.8637 63.1171 97.9055C63.7682 99.0254 64.7319 99.5854 66.0081 99.5854C67.1801 99.5854 68.0917 99.0254 68.7428 97.9055ZM81.0258 81.6535C80.1403 81.6535 79.398 81.367 78.799 80.794C78.226 80.1949 77.9395 79.4527 77.9395 78.5671C77.9395 77.6556 78.226 76.9133 78.799 76.3403C79.372 75.7673 80.1143 75.4808 81.0258 75.4808C81.9374 75.4808 82.6797 75.7673 83.2527 76.3403C83.8257 76.9133 84.1121 77.6556 84.1121 78.5671C84.1121 79.4527 83.8126 80.1949 83.2136 80.794C82.6406 81.367 81.9114 81.6535 81.0258 81.6535ZM78.6818 104C78.5516 104 78.4344 103.961 78.3302 103.883C78.252 103.779 78.213 103.661 78.213 103.531V84.3491C78.213 84.2189 78.252 84.1147 78.3302 84.0366C78.4344 83.9324 78.5516 83.8803 78.6818 83.8803H83.2527C83.3829 83.8803 83.4871 83.9324 83.5652 84.0366C83.6694 84.1147 83.7215 84.2189 83.7215 84.3491V103.531C83.7215 103.661 83.6694 103.779 83.5652 103.883C83.4871 103.961 83.3829 104 83.2527 104H78.6818ZM95.7106 104.313C93.5228 104.313 91.6476 103.74 90.0849 102.594C88.5222 101.448 87.4543 99.8849 86.8814 97.9055C86.5167 96.6814 86.3344 95.3531 86.3344 93.9206C86.3344 92.384 86.5167 91.0036 86.8814 89.7795C87.4804 87.8522 88.5613 86.3415 90.1239 85.2477C91.6866 84.1538 93.5619 83.6068 95.7496 83.6068C97.8853 83.6068 99.7085 84.1538 101.219 85.2477C102.73 86.3155 103.798 87.8131 104.423 89.7404C104.839 91.0427 105.048 92.41 105.048 93.8425C105.048 95.2489 104.865 96.5642 104.501 97.7883C103.928 99.8198 102.86 101.422 101.297 102.594C99.7606 103.74 97.8984 104.313 95.7106 104.313ZM95.7106 99.5854C96.5701 99.5854 97.2993 99.3249 97.8984 98.804C98.4974 98.2831 98.9271 97.5669 99.1876 96.6553C99.3959 95.8219 99.5001 94.9103 99.5001 93.9206C99.5001 92.8267 99.3959 91.9021 99.1876 91.1468C98.9011 90.2613 98.4583 89.5711 97.8593 89.0763C97.2603 88.5814 96.531 88.334 95.6715 88.334C94.786 88.334 94.0437 88.5814 93.4447 89.0763C92.8717 89.5711 92.455 90.2613 92.1945 91.1468C91.9862 91.7719 91.882 92.6965 91.882 93.9206C91.882 95.0926 91.9731 96.0042 92.1554 96.6553C92.4159 97.5669 92.8456 98.2831 93.4447 98.804C94.0698 99.3249 94.8251 99.5854 95.7106 99.5854ZM115.426 104.273C113.681 104.273 112.157 104.026 110.855 103.531C109.552 103.036 108.537 102.346 107.807 101.461C107.104 100.575 106.753 99.5724 106.753 98.4524V98.0618C106.753 97.9315 106.792 97.8274 106.87 97.7492C106.974 97.645 107.091 97.593 107.221 97.593H111.558C111.688 97.593 111.792 97.645 111.87 97.7492C111.975 97.8274 112.027 97.9315 112.027 98.0618V98.1008C112.027 98.6738 112.339 99.1687 112.964 99.5854C113.615 99.9761 114.423 100.171 115.386 100.171C116.272 100.171 116.988 100.002 117.535 99.6635C118.082 99.2989 118.356 98.8561 118.356 98.3352C118.356 97.8664 118.121 97.5148 117.652 97.2804C117.184 97.046 116.415 96.7986 115.347 96.5381C114.123 96.2256 113.16 95.9261 112.456 95.6396C110.79 95.0666 109.461 94.3634 108.472 93.5299C107.482 92.6965 106.987 91.4984 106.987 89.9357C106.987 88.0084 107.729 86.4848 109.214 85.3649C110.724 84.2189 112.717 83.6459 115.191 83.6459C116.858 83.6459 118.317 83.9194 119.567 84.4663C120.817 84.9872 121.781 85.7295 122.458 86.6932C123.161 87.6568 123.513 88.7507 123.513 89.9748C123.513 90.105 123.46 90.2222 123.356 90.3264C123.278 90.4046 123.174 90.4436 123.044 90.4436H118.863C118.733 90.4436 118.616 90.4046 118.512 90.3264C118.434 90.2222 118.395 90.105 118.395 89.9748C118.395 89.4018 118.095 88.92 117.496 88.5293C116.923 88.1386 116.155 87.9433 115.191 87.9433C114.332 87.9433 113.628 88.0996 113.082 88.4121C112.535 88.7247 112.261 89.1544 112.261 89.7013C112.261 90.2222 112.522 90.6129 113.042 90.8734C113.589 91.1338 114.488 91.4073 115.738 91.6938C116.025 91.7719 116.35 91.8631 116.715 91.9672C117.079 92.0454 117.47 92.1496 117.887 92.2798C119.736 92.8267 121.195 93.5299 122.262 94.3894C123.33 95.2489 123.864 96.4991 123.864 98.1399C123.864 100.067 123.096 101.578 121.559 102.672C120.049 103.74 118.004 104.273 115.426 104.273Z" fill="url(#paint0_linear_1019_203)"/>
<defs>
<linearGradient id="paint0_linear_1019_203" x1="56.978" y1="-22.3077" x2="57.7337" y2="143.226" gradientUnits="userSpaceOnUse">
<stop offset="0.0716886" stop-color="#F19D2D"/>
<stop offset="0.310529" stop-color="#E47526"/>
<stop offset="0.349554" stop-color="#33FE00"/>
<stop offset="0.845844" stop-color="#003E15"/>
</linearGradient>
</defs>
</svg>
