<svg width="213" height="124" viewBox="0 0 213 124" fill="none" xmlns="http://www.w3.org/2000/svg">
<g style="mix-blend-mode:hard-light">
<path d="M28.9473 23.3297C28.6769 23.4648 28.6769 23.6 28.9473 23.7352C33.228 25.9431 35.3683 29.6155 35.3683 34.7524C35.3683 39.1232 33.8813 42.4351 30.9074 44.6881C27.9334 46.896 24.0357 48 19.2143 48H1.70848C1.48318 48 1.28041 47.9324 1.10017 47.7972C0.964994 47.617 0.897404 47.4142 0.897404 47.1889V1.49808C0.897404 1.27278 0.964994 1.09254 1.10017 0.95736C1.28041 0.77712 1.48318 0.686999 1.70848 0.686999H18.6736C29.3528 0.686999 34.6924 5.01276 34.6924 13.6643C34.6924 18.1703 32.7774 21.3921 28.9473 23.3297ZM10.7655 8.86539C10.5402 8.86539 10.4276 8.97804 10.4276 9.20334V19.7474C10.4276 19.9727 10.5402 20.0853 10.7655 20.0853H18.6736C20.7914 20.0853 22.4361 19.5897 23.6076 18.5983C24.7792 17.607 25.365 16.2552 25.365 14.5429C25.365 12.7856 24.7792 11.4113 23.6076 10.42C22.4361 9.38358 20.7914 8.86539 18.6736 8.86539H10.7655ZM19.2143 39.754C21.2871 39.754 22.9092 39.2358 24.0808 38.1994C25.2523 37.118 25.8381 35.6536 25.8381 33.8061C25.8381 31.9586 25.2523 30.5167 24.0808 29.4803C22.9092 28.3989 21.2645 27.8582 19.1467 27.8582H10.7655C10.5402 27.8582 10.4276 27.9708 10.4276 28.1961V39.4161C10.4276 39.6414 10.5402 39.754 10.7655 39.754H19.2143ZM68.8333 23.3297C68.5629 23.4648 68.5629 23.6 68.8333 23.7352C73.114 25.9431 75.2543 29.6155 75.2543 34.7524C75.2543 39.1232 73.7673 42.4351 70.7934 44.6881C67.8194 46.896 63.9217 48 59.1003 48H41.5945C41.3692 48 41.1664 47.9324 40.9862 47.7972C40.851 47.617 40.7834 47.4142 40.7834 47.1889V1.49808C40.7834 1.27278 40.851 1.09254 40.9862 0.95736C41.1664 0.77712 41.3692 0.686999 41.5945 0.686999H58.5596C69.2388 0.686999 74.5784 5.01276 74.5784 13.6643C74.5784 18.1703 72.6634 21.3921 68.8333 23.3297ZM50.6516 8.86539C50.4263 8.86539 50.3136 8.97804 50.3136 9.20334V19.7474C50.3136 19.9727 50.4263 20.0853 50.6516 20.0853H58.5596C60.6774 20.0853 62.3221 19.5897 63.4937 18.5983C64.6652 17.607 65.251 16.2552 65.251 14.5429C65.251 12.7856 64.6652 11.4113 63.4937 10.42C62.3221 9.38358 60.6774 8.86539 58.5596 8.86539H50.6516ZM59.1003 39.754C61.1731 39.754 62.7952 39.2358 63.9668 38.1994C65.1384 37.118 65.7241 35.6536 65.7241 33.8061C65.7241 31.9586 65.1384 30.5167 63.9668 29.4803C62.7952 28.3989 61.1505 27.8582 59.0327 27.8582H50.6516C50.4263 27.8582 50.3136 27.9708 50.3136 28.1961V39.4161C50.3136 39.6414 50.4263 39.754 50.6516 39.754H59.1003ZM107.841 1.49808C107.841 1.27278 107.908 1.09254 108.043 0.95736C108.224 0.77712 108.426 0.686999 108.652 0.686999H116.56C116.785 0.686999 116.965 0.77712 117.1 0.95736C117.281 1.09254 117.371 1.27278 117.371 1.49808V47.1889C117.371 47.4142 117.281 47.617 117.1 47.7972C116.965 47.9324 116.785 48 116.56 48H108.922C108.471 48 108.156 47.8198 107.976 47.4593L90.47 18.5308C90.3799 18.3956 90.2898 18.3505 90.1996 18.3956C90.1095 18.3956 90.0645 18.4857 90.0645 18.6659L90.1996 47.1889C90.1996 47.4142 90.1095 47.617 89.9293 47.7972C89.7941 47.9324 89.6139 48 89.3886 48H81.4805C81.2552 48 81.0525 47.9324 80.8722 47.7972C80.737 47.617 80.6694 47.4142 80.6694 47.1889V1.49808C80.6694 1.27278 80.737 1.09254 80.8722 0.95736C81.0525 0.77712 81.2552 0.686999 81.4805 0.686999H89.1182C89.5688 0.686999 89.8842 0.86724 90.0645 1.22772L107.503 30.0211C107.593 30.1562 107.683 30.2238 107.773 30.2238C107.863 30.1788 107.908 30.0661 107.908 29.8859L107.841 1.49808ZM26.0409 63.4981C26.0409 63.2728 26.1085 63.0925 26.2437 62.9574C26.4239 62.7771 26.6267 62.687 26.852 62.687H34.76C34.9853 62.687 35.1655 62.7771 35.3007 62.9574C35.481 63.0925 35.5711 63.2728 35.5711 63.4981V109.189C35.5711 109.414 35.481 109.617 35.3007 109.797C35.1655 109.932 34.9853 110 34.76 110H26.852C26.6267 110 26.4239 109.932 26.2437 109.797C26.1085 109.617 26.0409 109.414 26.0409 109.189V90.5341C26.0409 90.3088 25.9282 90.1961 25.7029 90.1961H10.7655C10.5402 90.1961 10.4276 90.3088 10.4276 90.5341V109.189C10.4276 109.414 10.3375 109.617 10.1572 109.797C10.0221 109.932 9.84181 110 9.61651 110H1.70848C1.48318 110 1.28041 109.932 1.10017 109.797C0.964994 109.617 0.897404 109.414 0.897404 109.189V63.4981C0.897404 63.2728 0.964994 63.0925 1.10017 62.9574C1.28041 62.7771 1.48318 62.687 1.70848 62.687H9.61651C9.84181 62.687 10.0221 62.7771 10.1572 62.9574C10.3375 63.0925 10.4276 63.2728 10.4276 63.4981V81.6798C10.4276 81.9051 10.5402 82.0177 10.7655 82.0177H25.7029C25.9282 82.0177 26.0409 81.9051 26.0409 81.6798V63.4981ZM56.0461 110.541C52.2611 110.541 49.0167 109.549 46.3131 107.567C43.6095 105.584 41.7621 102.881 40.7708 99.456C40.1399 97.3381 39.8245 95.0401 39.8245 92.5618C39.8245 89.9032 40.1399 87.5151 40.7708 85.3972C41.8071 82.0628 43.6771 79.4493 46.3807 77.5568C49.0843 75.6643 52.3286 74.718 56.1137 74.718C59.8086 74.718 62.9628 75.6643 65.5763 77.5568C68.1898 79.4043 70.0372 81.9952 71.1187 85.3297C71.8396 87.5826 72.2001 89.9483 72.2001 92.4266C72.2001 94.8598 71.8847 97.1354 71.2538 99.2532C70.2625 102.768 68.4151 105.539 65.7115 107.567C63.0529 109.549 59.8311 110.541 56.0461 110.541ZM56.0461 102.362C57.5331 102.362 58.7947 101.912 59.8311 101.011C60.8675 100.109 61.611 98.8702 62.0616 97.2931C62.4221 95.8512 62.6023 94.2741 62.6023 92.5618C62.6023 90.6693 62.4221 89.0696 62.0616 87.7629C61.5659 86.2309 60.7999 85.0368 59.7635 84.1806C58.7272 83.3245 57.4655 82.8964 55.9785 82.8964C54.4465 82.8964 53.1623 83.3245 52.1259 84.1806C51.1346 85.0368 50.4136 86.2309 49.963 87.7629C49.6025 88.8443 49.4223 90.444 49.4223 92.5618C49.4223 94.5895 49.58 96.1666 49.8954 97.2931C50.346 98.8702 51.0895 100.109 52.1259 101.011C53.2073 101.912 54.514 102.362 56.0461 102.362ZM90.1547 110.473C87.1357 110.473 84.4997 110.045 82.2467 109.189C79.9937 108.333 78.2364 107.139 76.9747 105.607C75.7581 104.075 75.1498 102.34 75.1498 100.402V99.7263C75.1498 99.501 75.2174 99.3208 75.3525 99.1856C75.5328 99.0054 75.7355 98.9152 75.9608 98.9152H83.4633C83.6886 98.9152 83.8689 99.0054 84.0041 99.1856C84.1843 99.3208 84.2744 99.501 84.2744 99.7263V99.7939C84.2744 100.785 84.8151 101.641 85.8966 102.362C87.0231 103.038 88.4199 103.376 90.0872 103.376C91.6192 103.376 92.8583 103.083 93.8046 102.498C94.7509 101.867 95.224 101.101 95.224 100.199C95.224 99.3884 94.8185 98.7801 94.0074 98.3745C93.1963 97.969 91.867 97.5409 90.0196 97.0903C87.9017 96.5496 86.2345 96.0314 85.0179 95.5357C82.1341 94.5444 79.836 93.3278 78.1237 91.8859C76.4114 90.444 75.5553 88.3712 75.5553 85.6676C75.5553 82.3332 76.8395 79.6972 79.4079 77.7596C82.0214 75.7769 85.4685 74.7856 89.7492 74.7856C92.633 74.7856 95.1564 75.2587 97.3193 76.205C99.4822 77.1062 101.149 78.3904 102.321 80.0576C103.538 81.7249 104.146 83.6174 104.146 85.7352C104.146 85.9605 104.056 86.1633 103.876 86.3435C103.74 86.4787 103.56 86.5463 103.335 86.5463H96.1027C95.8774 86.5463 95.6746 86.4787 95.4944 86.3435C95.3592 86.1633 95.2916 85.9605 95.2916 85.7352C95.2916 84.7439 94.7734 83.9103 93.737 83.2344C92.7457 82.5585 91.4164 82.2205 89.7492 82.2205C88.2622 82.2205 87.0456 82.4909 86.0993 83.0316C85.1531 83.5723 84.68 84.3158 84.68 85.2621C84.68 86.1633 85.1306 86.8392 86.0318 87.2898C86.978 87.7404 88.5326 88.2135 90.6955 88.7091C91.1911 88.8443 91.7544 89.002 92.3852 89.1823C93.0161 89.3175 93.692 89.4977 94.4129 89.723C97.6122 90.6693 100.136 91.8859 101.983 93.3729C103.83 94.8598 104.754 97.0227 104.754 99.8615C104.754 103.196 103.425 105.809 100.766 107.702C98.1529 109.549 94.6157 110.473 90.1547 110.473ZM128.071 82.0853C128.071 82.3106 127.981 82.5134 127.801 82.6936C127.666 82.8288 127.485 82.8964 127.26 82.8964H120.771C120.546 82.8964 120.433 83.0091 120.433 83.2344V97.5634C120.433 99.0504 120.726 100.154 121.312 100.875C121.943 101.596 122.934 101.957 124.286 101.957H126.517C126.742 101.957 126.922 102.047 127.057 102.227C127.238 102.362 127.328 102.543 127.328 102.768V109.189C127.328 109.685 127.057 109.977 126.517 110.068C124.624 110.158 123.272 110.203 122.461 110.203C118.721 110.203 115.927 109.594 114.08 108.378C112.233 107.116 111.286 104.773 111.241 101.348V83.2344C111.241 83.0091 111.129 82.8964 110.903 82.8964H107.051C106.825 82.8964 106.623 82.8288 106.442 82.6936C106.307 82.5134 106.24 82.3106 106.24 82.0853V76.0698C106.24 75.8445 106.307 75.6643 106.442 75.5291C106.623 75.3489 106.825 75.2587 107.051 75.2587H110.903C111.129 75.2587 111.241 75.1461 111.241 74.9208V66.8776C111.241 66.6523 111.309 66.472 111.444 66.3369C111.624 66.1566 111.827 66.0665 112.052 66.0665H119.622C119.848 66.0665 120.028 66.1566 120.163 66.3369C120.343 66.472 120.433 66.6523 120.433 66.8776V74.9208C120.433 75.1461 120.546 75.2587 120.771 75.2587H127.26C127.485 75.2587 127.666 75.3489 127.801 75.5291C127.981 75.6643 128.071 75.8445 128.071 76.0698V82.0853ZM136.918 71.3385C135.385 71.3385 134.101 70.8429 133.065 69.8515C132.074 68.8152 131.578 67.5309 131.578 65.9989C131.578 64.4218 132.074 63.1376 133.065 62.1463C134.056 61.155 135.34 60.6593 136.918 60.6593C138.495 60.6593 139.779 61.155 140.77 62.1463C141.761 63.1376 142.257 64.4218 142.257 65.9989C142.257 67.5309 141.739 68.8152 140.703 69.8515C139.711 70.8429 138.45 71.3385 136.918 71.3385ZM132.862 110C132.637 110 132.434 109.932 132.254 109.797C132.119 109.617 132.051 109.414 132.051 109.189V76.0022C132.051 75.7769 132.119 75.5967 132.254 75.4615C132.434 75.2813 132.637 75.1911 132.862 75.1911H140.77C140.995 75.1911 141.176 75.2813 141.311 75.4615C141.491 75.5967 141.581 75.7769 141.581 76.0022V109.189C141.581 109.414 141.491 109.617 141.311 109.797C141.176 109.932 140.995 110 140.77 110H132.862ZM165.095 74.718C168.699 74.718 171.606 75.822 173.814 78.0299C176.022 80.2379 177.126 83.2344 177.126 87.0194V109.189C177.126 109.414 177.036 109.617 176.855 109.797C176.72 109.932 176.54 110 176.315 110H168.407C168.181 110 167.978 109.932 167.798 109.797C167.663 109.617 167.595 109.414 167.595 109.189V88.9795C167.595 87.1771 167.077 85.7127 166.041 84.5862C165.05 83.4597 163.72 82.8964 162.053 82.8964C160.386 82.8964 159.034 83.4597 157.998 84.5862C157.006 85.7127 156.511 87.1771 156.511 88.9795V109.189C156.511 109.414 156.421 109.617 156.24 109.797C156.105 109.932 155.925 110 155.7 110H147.792C147.566 110 147.364 109.932 147.183 109.797C147.048 109.617 146.981 109.414 146.981 109.189V76.0698C146.981 75.8445 147.048 75.6643 147.183 75.5291C147.364 75.3489 147.566 75.2587 147.792 75.2587H155.7C155.925 75.2587 156.105 75.3489 156.24 75.5291C156.421 75.6643 156.511 75.8445 156.511 76.0698V78.4355C156.511 78.5707 156.556 78.6608 156.646 78.7058C156.736 78.7509 156.804 78.7284 156.849 78.6382C158.696 76.0248 161.445 74.718 165.095 74.718ZM203.139 76.0698C203.139 75.8445 203.207 75.6643 203.342 75.5291C203.522 75.3489 203.725 75.2587 203.95 75.2587H211.858C212.084 75.2587 212.264 75.3489 212.399 75.5291C212.579 75.6643 212.67 75.8445 212.67 76.0698V106.891C212.67 112.794 210.957 117.007 207.533 119.53C204.153 122.054 199.782 123.315 194.42 123.315C192.843 123.315 191.086 123.203 189.148 122.977C188.698 122.932 188.472 122.639 188.472 122.099L188.743 115.137C188.743 114.551 189.058 114.303 189.689 114.393C191.311 114.664 192.798 114.799 194.15 114.799C197.034 114.799 199.242 114.168 200.774 112.906C202.351 111.645 203.139 109.617 203.139 106.823C203.139 106.688 203.094 106.621 203.004 106.621C202.914 106.575 202.824 106.598 202.734 106.688C201.022 108.536 198.521 109.459 195.231 109.459C192.302 109.459 189.599 108.761 187.121 107.364C184.687 105.922 182.952 103.624 181.916 100.47C181.24 98.3971 180.902 95.716 180.902 92.4266C180.902 88.9119 181.308 86.0506 182.119 83.8427C183.065 81.094 184.665 78.8861 186.918 77.2189C189.171 75.5516 191.784 74.718 194.758 74.718C198.228 74.718 200.886 75.7544 202.734 77.8272C202.824 77.9173 202.914 77.9623 203.004 77.9623C203.094 77.9173 203.139 77.8272 203.139 77.692V76.0698ZM202.599 97.9014C202.959 96.5496 203.139 94.7021 203.139 92.359C203.139 90.9621 203.094 89.8807 203.004 89.1147C202.914 88.3487 202.756 87.6277 202.531 86.9518C202.125 85.7352 201.45 84.7664 200.503 84.0454C199.557 83.2794 198.386 82.8964 196.989 82.8964C195.637 82.8964 194.488 83.2794 193.542 84.0454C192.595 84.7664 191.897 85.7352 191.446 86.9518C190.815 88.3036 190.5 90.1285 190.5 92.4266C190.5 94.95 190.77 96.7524 191.311 97.8338C191.717 99.0504 192.415 100.042 193.406 100.808C194.443 101.529 195.659 101.889 197.056 101.889C198.498 101.889 199.692 101.529 200.639 100.808C201.585 100.042 202.238 99.0729 202.599 97.9014Z" fill="url(#paint0_linear_1019_186)"/>
</g>
<defs>
<linearGradient id="paint0_linear_1019_186" x1="-40.547" y1="-33.6111" x2="276.685" y2="64.7822" gradientUnits="userSpaceOnUse">
<stop stop-color="#6AC9FF"/>
<stop offset="1" stop-color="#618DC1"/>
</linearGradient>
</defs>
</svg>
