<svg width="159" height="111" viewBox="0 0 159 111" fill="none" xmlns="http://www.w3.org/2000/svg">
<path d="M28.3997 23.3287C28.1293 23.4639 28.1293 23.5991 28.3997 23.7343C32.6805 25.9423 34.821 29.6148 34.821 34.7519C34.821 39.1228 33.3339 42.4349 30.3598 44.688C27.3858 46.896 23.4879 48 18.6663 48H1.15985C0.934537 48 0.731759 47.9324 0.551512 47.7972C0.416327 47.617 0.348735 47.4142 0.348735 47.1889V1.49629C0.348735 1.27098 0.416327 1.09074 0.551512 0.955549C0.731759 0.775302 0.934537 0.685178 1.15985 0.685178H18.1256C28.8052 0.685178 34.145 5.01111 34.145 13.663C34.145 18.1691 32.2299 21.391 28.3997 23.3287ZM10.2173 8.86388C9.99195 8.86388 9.87929 8.97654 9.87929 9.20185V19.7463C9.87929 19.9716 9.99195 20.0843 10.2173 20.0843H18.1256C20.2435 20.0843 21.8882 19.5886 23.0598 18.5972C24.2315 17.6059 24.8173 16.254 24.8173 14.5417C24.8173 12.7843 24.2315 11.4099 23.0598 10.4185C21.8882 9.38209 20.2435 8.86388 18.1256 8.86388H10.2173ZM18.6663 39.7537C20.7392 39.7537 22.3614 39.2355 23.533 38.1991C24.7046 37.1176 25.2904 35.6531 25.2904 33.8056C25.2904 31.958 24.7046 30.516 23.533 29.4796C22.3614 28.3981 20.7166 27.8574 18.5987 27.8574H10.2173C9.99195 27.8574 9.87929 27.9701 9.87929 28.1954V39.4157C9.87929 39.641 9.99195 39.7537 10.2173 39.7537H18.6663ZM68.2872 23.3287C68.0168 23.4639 68.0168 23.5991 68.2872 23.7343C72.5681 25.9423 74.7085 29.6148 74.7085 34.7519C74.7085 39.1228 73.2215 42.4349 70.2474 44.688C67.2733 46.896 63.3755 48 58.5539 48H41.0474C40.8221 48 40.6193 47.9324 40.4391 47.7972C40.3039 47.617 40.2363 47.4142 40.2363 47.1889V1.49629C40.2363 1.27098 40.3039 1.09074 40.4391 0.955549C40.6193 0.775302 40.8221 0.685178 41.0474 0.685178H58.0131C68.6928 0.685178 74.0326 5.01111 74.0326 13.663C74.0326 18.1691 72.1175 21.391 68.2872 23.3287ZM50.1048 8.86388C49.8795 8.86388 49.7668 8.97654 49.7668 9.20185V19.7463C49.7668 19.9716 49.8795 20.0843 50.1048 20.0843H58.0131C60.131 20.0843 61.7758 19.5886 62.9474 18.5972C64.119 17.6059 64.7048 16.254 64.7048 14.5417C64.7048 12.7843 64.119 11.4099 62.9474 10.4185C61.7758 9.38209 60.131 8.86388 58.0131 8.86388H50.1048ZM58.5539 39.7537C60.6267 39.7537 62.2489 39.2355 63.4206 38.1991C64.5922 37.1176 65.178 35.6531 65.178 33.8056C65.178 31.958 64.5922 30.516 63.4206 29.4796C62.2489 28.3981 60.6042 27.8574 58.4863 27.8574H50.1048C49.8795 27.8574 49.7668 27.9701 49.7668 28.1954V39.4157C49.7668 39.641 49.8795 39.7537 50.1048 39.7537H58.5539ZM107.296 1.49629C107.296 1.27098 107.364 1.09074 107.499 0.955549C107.679 0.775302 107.882 0.685178 108.107 0.685178H116.016C116.241 0.685178 116.421 0.775302 116.556 0.955549C116.737 1.09074 116.827 1.27098 116.827 1.49629V47.1889C116.827 47.4142 116.737 47.617 116.556 47.7972C116.421 47.9324 116.241 48 116.016 48H108.378C107.927 48 107.612 47.8198 107.431 47.4593L89.9248 18.5296C89.8346 18.3944 89.7445 18.3494 89.6544 18.3944C89.5643 18.3944 89.5192 18.4846 89.5192 18.6648L89.6544 47.1889C89.6544 47.4142 89.5643 47.617 89.384 47.7972C89.2488 47.9324 89.0686 48 88.8433 48H80.935C80.7096 48 80.5069 47.9324 80.3266 47.7972C80.1914 47.617 80.1238 47.4142 80.1238 47.1889V1.49629C80.1238 1.27098 80.1914 1.09074 80.3266 0.955549C80.5069 0.775302 80.7096 0.685178 80.935 0.685178H88.5729C89.0235 0.685178 89.339 0.865425 89.5192 1.22592L106.958 30.0204C107.048 30.1556 107.138 30.2231 107.228 30.2231C107.319 30.1781 107.364 30.0654 107.364 29.8852L107.296 1.49629ZM30.7654 63.2259C30.9907 62.8654 31.3061 62.6852 31.7117 62.6852H39.62C39.8453 62.6852 40.0256 62.7753 40.1608 62.9555C40.341 63.0907 40.4311 63.271 40.4311 63.4963V109.189C40.4311 109.414 40.341 109.617 40.1608 109.797C40.0256 109.932 39.8453 110 39.62 110H31.7117C31.4864 110 31.2836 109.932 31.1034 109.797C30.9682 109.617 30.9006 109.414 30.9006 109.189V79.3806C30.9006 79.2003 30.8555 79.1102 30.7654 79.1102C30.6753 79.1102 30.5852 79.1778 30.495 79.313L23.3302 90.5333C23.1049 90.8938 22.7895 91.0741 22.3839 91.0741H18.396C17.9904 91.0741 17.675 90.8938 17.4497 90.5333L10.2848 79.313C10.1947 79.1778 10.1046 79.1327 10.0145 79.1778C9.92435 79.1778 9.87929 79.2679 9.87929 79.4481V109.189C9.87929 109.414 9.78917 109.617 9.60892 109.797C9.47374 109.932 9.29349 110 9.06818 110H1.15985C0.934537 110 0.731759 109.932 0.551512 109.797C0.416327 109.617 0.348735 109.414 0.348735 109.189V63.4963C0.348735 63.271 0.416327 63.0907 0.551512 62.9555C0.731759 62.7753 0.934537 62.6852 1.15985 62.6852H9.06818C9.47374 62.6852 9.78917 62.8654 10.0145 63.2259L20.1534 78.975C20.2886 79.2454 20.4237 79.2454 20.5589 78.975L30.7654 63.2259ZM66.3085 76.0685C66.3085 75.8432 66.3761 75.663 66.5113 75.5278C66.6916 75.3475 66.8944 75.2574 67.1197 75.2574H75.028C75.2533 75.2574 75.4336 75.3475 75.5687 75.5278C75.749 75.663 75.8391 75.8432 75.8391 76.0685V109.189C75.8391 109.414 75.749 109.617 75.5687 109.797C75.4336 109.932 75.2533 110 75.028 110H67.1197C66.8944 110 66.6916 109.932 66.5113 109.797C66.3761 109.617 66.3085 109.414 66.3085 109.189V106.891C66.3085 106.756 66.2635 106.688 66.1734 106.688C66.0832 106.643 65.9931 106.688 65.903 106.823C64.1005 109.256 61.3067 110.473 57.5215 110.473C54.0968 110.473 51.2805 109.437 49.0724 107.364C46.8644 105.291 45.7604 102.385 45.7604 98.6444V76.0685C45.7604 75.8432 45.828 75.663 45.9632 75.5278C46.1434 75.3475 46.3462 75.2574 46.5715 75.2574H54.4123C54.6376 75.2574 54.8178 75.3475 54.953 75.5278C55.1332 75.663 55.2234 75.8432 55.2234 76.0685V96.2787C55.2234 98.0812 55.6965 99.5457 56.6428 100.672C57.6342 101.799 58.986 102.362 60.6984 102.362C62.2305 102.362 63.4922 101.911 64.4835 101.01C65.4749 100.064 66.0832 98.8472 66.3085 97.3602V76.0685ZM94.6922 110.473C91.673 110.473 89.0369 110.045 86.7838 109.189C84.5307 108.333 82.7733 107.139 81.5116 105.606C80.2949 104.074 79.6866 102.34 79.6866 100.402V99.7259C79.6866 99.5006 79.7542 99.3204 79.8894 99.1852C80.0696 99.0049 80.2724 98.9148 80.4977 98.9148H88.0005C88.2258 98.9148 88.406 99.0049 88.5412 99.1852C88.7215 99.3204 88.8116 99.5006 88.8116 99.7259V99.7935C88.8116 100.785 89.3523 101.641 90.4338 102.362C91.5604 103.038 92.9573 103.376 94.6246 103.376C96.1567 103.376 97.3959 103.083 98.3422 102.497C99.2885 101.866 99.7616 101.1 99.7616 100.199C99.7616 99.388 99.356 98.7796 98.5449 98.3741C97.7338 97.9685 96.4045 97.5404 94.557 97.0898C92.4391 96.5491 90.7718 96.0309 89.5551 95.5352C86.6712 94.5438 84.373 93.3272 82.6607 91.8852C80.9483 90.4432 80.0922 88.3704 80.0922 85.6667C80.0922 82.3321 81.3764 79.696 83.9449 77.7583C86.5585 75.7756 90.0057 74.7843 94.2866 74.7843C97.1706 74.7843 99.694 75.2574 101.857 76.2037C104.02 77.1049 105.687 78.3892 106.859 80.0565C108.075 81.7238 108.684 83.6164 108.684 85.7343C108.684 85.9596 108.594 86.1623 108.413 86.3426C108.278 86.4778 108.098 86.5454 107.873 86.5454H100.64C100.415 86.5454 100.212 86.4778 100.032 86.3426C99.8968 86.1623 99.8292 85.9596 99.8292 85.7343C99.8292 84.7429 99.311 83.9093 98.2746 83.2333C97.2832 82.5574 95.9539 82.2194 94.2866 82.2194C92.7996 82.2194 91.5829 82.4898 90.6366 83.0306C89.6903 83.5713 89.2172 84.3148 89.2172 85.2611C89.2172 86.1623 89.6678 86.8383 90.569 87.2889C91.5153 87.7395 93.0699 88.2127 95.2329 88.7083C95.7286 88.8435 96.2919 89.0012 96.9227 89.1815C97.5536 89.3167 98.2295 89.4969 98.9505 89.7222C102.15 90.6685 104.673 91.8852 106.521 93.3722C108.368 94.8593 109.292 97.0222 109.292 99.8611C109.292 103.196 107.963 105.809 105.304 107.702C102.691 109.549 99.1533 110.473 94.6922 110.473ZM117.873 71.337C116.341 71.337 115.057 70.8414 114.02 69.85C113.029 68.8136 112.533 67.5293 112.533 65.9972C112.533 64.4201 113.029 63.1358 114.02 62.1444C115.012 61.1531 116.296 60.6574 117.873 60.6574C119.45 60.6574 120.735 61.1531 121.726 62.1444C122.717 63.1358 123.213 64.4201 123.213 65.9972C123.213 67.5293 122.695 68.8136 121.658 69.85C120.667 70.8414 119.405 71.337 117.873 71.337ZM113.818 110C113.592 110 113.39 109.932 113.209 109.797C113.074 109.617 113.007 109.414 113.007 109.189V76.0009C113.007 75.7756 113.074 75.5954 113.209 75.4602C113.39 75.2799 113.592 75.1898 113.818 75.1898H121.726C121.951 75.1898 122.132 75.2799 122.267 75.4602C122.447 75.5954 122.537 75.7756 122.537 76.0009V109.189C122.537 109.414 122.447 109.617 122.267 109.797C122.132 109.932 121.951 110 121.726 110H113.818ZM143.213 110.541C139.608 110.541 136.476 109.64 133.817 107.837C131.204 106.035 129.334 103.556 128.207 100.402C127.441 98.1488 127.058 95.4901 127.058 92.4259C127.058 89.4068 127.441 86.7932 128.207 84.5852C129.288 81.521 131.159 79.1102 133.817 77.3528C136.476 75.5954 139.608 74.7167 143.213 74.7167C146.817 74.7167 149.972 75.6179 152.676 77.4204C155.424 79.2228 157.249 81.4985 158.151 84.2472C158.511 85.3287 158.691 86.1398 158.691 86.6806V86.8157C158.691 87.2213 158.466 87.4691 158.015 87.5593L150.242 88.7083H150.107C149.701 88.7083 149.431 88.483 149.296 88.0324L149.093 86.9509C148.778 85.7793 148.079 84.8105 146.998 84.0444C145.916 83.2784 144.632 82.8954 143.145 82.8954C141.703 82.8954 140.486 83.2559 139.495 83.9768C138.504 84.6978 137.805 85.6892 137.4 86.9509C136.904 88.3028 136.656 90.1503 136.656 92.4935C136.656 94.8367 136.881 96.6843 137.332 98.0361C137.738 99.388 138.436 100.447 139.427 101.213C140.464 101.979 141.703 102.362 143.145 102.362C144.542 102.362 145.759 102.002 146.795 101.281C147.876 100.515 148.62 99.4781 149.026 98.1713C149.071 98.0812 149.093 97.946 149.093 97.7657C149.138 97.7207 149.161 97.6531 149.161 97.563C149.206 97.0222 149.521 96.7969 150.107 96.887L157.88 98.1037C158.331 98.1938 158.556 98.4417 158.556 98.8472C158.556 99.2077 158.421 99.8836 158.151 100.875C157.204 103.894 155.357 106.26 152.608 107.972C149.904 109.685 146.772 110.541 143.213 110.541Z" fill="url(#paint0_linear_1019_184)"/>
<defs>
<linearGradient id="paint0_linear_1019_184" x1="66.9101" y1="-40.6317" x2="167.711" y2="114.511" gradientUnits="userSpaceOnUse">
<stop stop-color="#F19D2D"/>
<stop offset="1" stop-color="#DB5721"/>
</linearGradient>
</defs>
</svg>
