<svg width="166" height="74" viewBox="0 0 166 74" fill="none" xmlns="http://www.w3.org/2000/svg">
<path d="M16.4007 13.7869C16.2449 13.8648 16.2449 13.9427 16.4007 14.0205C18.8669 15.2926 20.1 17.4083 20.1 20.3678C20.1 22.8859 19.2433 24.7939 17.5299 26.0919C15.8166 27.364 13.571 28 10.7933 28H0.707855C0.578055 28 0.461235 27.9611 0.357395 27.8832C0.279515 27.7793 0.240575 27.6625 0.240575 27.5327V1.20928C0.240575 1.07948 0.279515 0.975637 0.357395 0.897757C0.461235 0.793917 0.578055 0.741996 0.707855 0.741996H10.4818C16.6343 0.741996 19.7106 3.23416 19.7106 8.21848C19.7106 10.8145 18.6073 12.6706 16.4007 13.7869ZM5.92582 5.45374C5.79602 5.45374 5.73112 5.51864 5.73112 5.64844V11.7231C5.73112 11.8529 5.79602 11.9178 5.92582 11.9178H10.4818C11.7019 11.9178 12.6495 11.6322 13.3244 11.0611C13.9994 10.49 14.3369 9.71118 14.3369 8.7247C14.3369 7.71226 13.9994 6.92048 13.3244 6.34936C12.6495 5.75228 11.7019 5.45374 10.4818 5.45374H5.92582ZM10.7933 23.2493C11.9875 23.2493 12.922 22.9508 13.597 22.3537C14.272 21.7307 14.6094 20.887 14.6094 19.8226C14.6094 18.7582 14.272 17.9275 13.597 17.3304C12.922 16.7074 11.9745 16.3959 10.7544 16.3959H5.92582C5.79602 16.3959 5.73112 16.4608 5.73112 16.5906V23.0546C5.73112 23.1844 5.79602 23.2493 5.92582 23.2493H10.7933ZM39.3798 13.7869C39.2241 13.8648 39.2241 13.9427 39.3798 14.0205C41.846 15.2926 43.0791 17.4083 43.0791 20.3678C43.0791 22.8859 42.2225 24.7939 40.5091 26.0919C38.7957 27.364 36.5502 28 33.7725 28H23.687C23.5572 28 23.4404 27.9611 23.3366 27.8832C23.2587 27.7793 23.2197 27.6625 23.2197 27.5327V1.20928C23.2197 1.07948 23.2587 0.975637 23.3366 0.897757C23.4404 0.793917 23.5572 0.741996 23.687 0.741996H33.461C39.6135 0.741996 42.6897 3.23416 42.6897 8.21848C42.6897 10.8145 41.5864 12.6706 39.3798 13.7869ZM28.905 5.45374C28.7752 5.45374 28.7103 5.51864 28.7103 5.64844V11.7231C28.7103 11.8529 28.7752 11.9178 28.905 11.9178H33.461C34.6811 11.9178 35.6286 11.6322 36.3036 11.0611C36.9785 10.49 37.316 9.71118 37.316 8.7247C37.316 7.71226 36.9785 6.92048 36.3036 6.34936C35.6286 5.75228 34.6811 5.45374 33.461 5.45374H28.905ZM33.7725 23.2493C34.9666 23.2493 35.9012 22.9508 36.5762 22.3537C37.2511 21.7307 37.5886 20.887 37.5886 19.8226C37.5886 18.7582 37.2511 17.9275 36.5762 17.3304C35.9012 16.7074 34.9537 16.3959 33.7335 16.3959H28.905C28.7752 16.3959 28.7103 16.4608 28.7103 16.5906V23.0546C28.7103 23.1844 28.7752 23.2493 28.905 23.2493H33.7725ZM61.8528 1.20928C61.8528 1.07948 61.8917 0.975637 61.9696 0.897757C62.0734 0.793917 62.1903 0.741996 62.3201 0.741996H66.876C67.0058 0.741996 67.1097 0.793917 67.1876 0.897757C67.2914 0.975637 67.3433 1.07948 67.3433 1.20928V27.5327C67.3433 27.6625 67.2914 27.7793 67.1876 27.8832C67.1097 27.9611 67.0058 28 66.876 28H62.4758C62.2162 28 62.0345 27.8962 61.9307 27.6885L51.8452 11.0222C51.7933 10.9443 51.7414 10.9183 51.6894 10.9443C51.6375 10.9443 51.6116 10.9962 51.6116 11.1L51.6894 27.5327C51.6894 27.6625 51.6375 27.7793 51.5337 27.8832C51.4558 27.9611 51.352 28 51.2222 28H46.6662C46.5364 28 46.4196 27.9611 46.3157 27.8832C46.2378 27.7793 46.1989 27.6625 46.1989 27.5327V1.20928C46.1989 1.07948 46.2378 0.975637 46.3157 0.897757C46.4196 0.793917 46.5364 0.741996 46.6662 0.741996H51.0664C51.326 0.741996 51.5077 0.845837 51.6116 1.05352L61.6581 17.642C61.71 17.7198 61.7619 17.7588 61.8138 17.7588C61.8658 17.7328 61.8917 17.6679 61.8917 17.5641L61.8528 1.20928ZM11.4942 38.7031C13.2076 38.7031 14.7133 39.0535 16.0113 39.7544C17.3093 40.4554 18.3087 41.4548 19.0097 42.7528C19.7365 44.0249 20.1 45.4916 20.1 47.153C20.1 48.7885 19.7236 50.2293 18.9707 51.4754C18.2438 52.7215 17.2054 53.695 15.8555 54.3959C14.5316 55.0708 12.9999 55.4083 11.2606 55.4083H5.73112C5.60132 55.4083 5.53642 55.4732 5.53642 55.603V65.5327C5.53642 65.6625 5.4845 65.7793 5.38065 65.8832C5.30278 65.9611 5.19894 66 5.06913 66H0.513155C0.383355 66 0.266535 65.9611 0.162695 65.8832C0.0848146 65.7793 0.0458746 65.6625 0.0458746 65.5327V39.1703C0.0458746 39.0405 0.0848146 38.9367 0.162695 38.8588C0.266535 38.755 0.383355 38.7031 0.513155 38.7031H11.4942ZM10.6765 51.0081C11.8707 51.0081 12.8312 50.6706 13.5581 49.9957C14.2849 49.2947 14.6484 48.3861 14.6484 47.2699C14.6484 46.1276 14.2849 45.206 13.5581 44.5051C12.8312 43.8042 11.8707 43.4537 10.6765 43.4537H5.73112C5.60132 43.4537 5.53642 43.5186 5.53642 43.6484V50.8134C5.53642 50.9432 5.60132 51.0081 5.73112 51.0081H10.6765ZM33.6386 46.4521C33.6386 46.3223 33.6776 46.2185 33.7554 46.1406C33.8593 46.0368 33.9761 45.9848 34.1059 45.9848H38.6619C38.7917 45.9848 38.8955 46.0368 38.9734 46.1406C39.0772 46.2185 39.1292 46.3223 39.1292 46.4521V65.5327C39.1292 65.6625 39.0772 65.7793 38.9734 65.8832C38.8955 65.9611 38.7917 66 38.6619 66H34.1059C33.9761 66 33.8593 65.9611 33.7554 65.8832C33.6776 65.7793 33.6386 65.6625 33.6386 65.5327V64.2088C33.6386 64.1309 33.6127 64.0919 33.5607 64.0919C33.5088 64.066 33.4569 64.0919 33.405 64.1698C32.3666 65.5717 30.7571 66.2726 28.5764 66.2726C26.6035 66.2726 24.981 65.6755 23.7089 64.4813C22.4369 63.2872 21.8009 61.6128 21.8009 59.4581V46.4521C21.8009 46.3223 21.8398 46.2185 21.9177 46.1406C22.0215 46.0368 22.1383 45.9848 22.2681 45.9848H26.7852C26.915 45.9848 27.0188 46.0368 27.0967 46.1406C27.2005 46.2185 27.2525 46.3223 27.2525 46.4521V58.0952C27.2525 59.1336 27.525 59.9773 28.0702 60.6263C28.6413 61.2753 29.4201 61.5998 30.4066 61.5998C31.2892 61.5998 32.0161 61.3402 32.5872 60.821C33.1584 60.2758 33.5088 59.5749 33.6386 58.7182V46.4521ZM59.7254 51.086C60.2186 52.4359 60.4652 54.0454 60.4652 55.9145C60.4652 57.7058 60.2446 59.2764 59.8033 60.6263C59.2062 62.3916 58.2457 63.7804 56.9217 64.7929C55.6237 65.8053 54.0791 66.3115 52.2878 66.3115C50.3928 66.3115 48.9001 65.5976 47.8097 64.1698C47.7578 64.1179 47.7059 64.1049 47.654 64.1309C47.6021 64.1309 47.5761 64.1698 47.5761 64.2477V65.5327C47.5761 65.6625 47.5242 65.7793 47.4203 65.8832C47.3425 65.9611 47.2386 66 47.1088 66H42.5528C42.423 66 42.3062 65.9611 42.2024 65.8832C42.1245 65.7793 42.0856 65.6625 42.0856 65.5327V39.2093C42.0856 39.0795 42.1245 38.9756 42.2024 38.8978C42.3062 38.7939 42.423 38.742 42.5528 38.742H47.1088C47.2386 38.742 47.3425 38.7939 47.4203 38.8978C47.5242 38.9756 47.5761 39.0795 47.5761 39.2093V47.5424C47.5761 47.6203 47.6021 47.6722 47.654 47.6982C47.7059 47.7242 47.7578 47.6982 47.8097 47.6203C48.8222 46.3223 50.263 45.6733 52.1321 45.6733C54.0272 45.6733 55.6107 46.1666 56.8828 47.153C58.1808 48.1136 59.1283 49.4245 59.7254 51.086ZM53.9623 59.9254C54.5074 58.9389 54.78 57.6409 54.78 56.0314C54.78 54.2401 54.4685 52.8642 53.8454 51.9037C53.2224 50.8913 52.3008 50.3851 51.0807 50.3851C49.9385 50.3851 49.0688 50.8913 48.4717 51.9037C47.9006 52.8902 47.615 54.2531 47.615 55.9924C47.615 57.7317 47.8746 59.0427 48.3938 59.9254C49.0169 61.0416 49.9255 61.5998 51.1196 61.5998C52.3917 61.5998 53.3392 61.0416 53.9623 59.9254ZM63.3626 66C63.2328 66 63.116 65.9611 63.0122 65.8832C62.9343 65.7793 62.8953 65.6625 62.8953 65.5327V39.2093C62.8953 39.0795 62.9343 38.9756 63.0122 38.8978C63.116 38.7939 63.2328 38.742 63.3626 38.742H67.9186C68.0484 38.742 68.1522 38.7939 68.2301 38.8978C68.334 38.9756 68.3859 39.0795 68.3859 39.2093V65.5327C68.3859 65.6625 68.334 65.7793 68.2301 65.8832C68.1522 65.9611 68.0484 66 67.9186 66H63.3626ZM74.1934 43.7263C73.3108 43.7263 72.5709 43.4408 71.9738 42.8696C71.4027 42.2726 71.1172 41.5327 71.1172 40.6501C71.1172 39.7415 71.4027 39.0016 71.9738 38.4305C72.545 37.8594 73.2848 37.5738 74.1934 37.5738C75.102 37.5738 75.8419 37.8594 76.413 38.4305C76.9841 39.0016 77.2697 39.7415 77.2697 40.6501C77.2697 41.5327 76.9711 42.2726 76.3741 42.8696C75.8029 43.4408 75.0761 43.7263 74.1934 43.7263ZM71.857 66C71.7272 66 71.6104 65.9611 71.5066 65.8832C71.4287 65.7793 71.3897 65.6625 71.3897 65.5327V46.4132C71.3897 46.2834 71.4287 46.1795 71.5066 46.1017C71.6104 45.9978 71.7272 45.9459 71.857 45.9459H76.413C76.5428 45.9459 76.6466 45.9978 76.7245 46.1017C76.8284 46.1795 76.8803 46.2834 76.8803 46.4132V65.5327C76.8803 65.6625 76.8284 65.7793 76.7245 65.8832C76.6466 65.9611 76.5428 66 76.413 66H71.857ZM87.9736 66.2726C86.2343 66.2726 84.7156 66.026 83.4176 65.5327C82.1196 65.0395 81.1072 64.3515 80.3803 63.4689C79.6794 62.5863 79.3289 61.5868 79.3289 60.4705V60.0811C79.3289 59.9513 79.3679 59.8475 79.4458 59.7696C79.5496 59.6658 79.6664 59.6138 79.7962 59.6138H84.1186C84.2484 59.6138 84.3522 59.6658 84.4301 59.7696C84.5339 59.8475 84.5858 59.9513 84.5858 60.0811V60.1201C84.5858 60.6912 84.8974 61.1844 85.5204 61.5998C86.1694 61.9892 86.9742 62.1839 87.9347 62.1839C88.8173 62.1839 89.5312 62.0151 90.0764 61.6777C90.6215 61.3142 90.8941 60.8729 90.8941 60.3537C90.8941 59.8864 90.6605 59.536 90.1932 59.3023C89.7259 59.0687 88.9601 58.8221 87.8957 58.5625C86.6756 58.2509 85.7151 57.9524 85.0142 57.6668C83.3527 57.0957 82.0288 56.3948 81.0423 55.5641C80.0558 54.7334 79.5626 53.5392 79.5626 51.9816C79.5626 50.0606 80.3024 48.5419 81.7822 47.4256C83.2878 46.2834 85.2738 45.7123 87.74 45.7123C89.4014 45.7123 90.8552 45.9848 92.1013 46.53C93.3473 47.0492 94.3079 47.7891 94.9828 48.7496C95.6837 49.7101 96.0342 50.8004 96.0342 52.0205C96.0342 52.1503 95.9823 52.2672 95.8784 52.371C95.8006 52.4489 95.6967 52.4878 95.5669 52.4878H91.4003C91.2705 52.4878 91.1537 52.4489 91.0499 52.371C90.972 52.2672 90.9331 52.1503 90.9331 52.0205C90.9331 51.4494 90.6345 50.9692 90.0374 50.5798C89.4663 50.1904 88.7005 49.9957 87.74 49.9957C86.8833 49.9957 86.1824 50.1514 85.6372 50.4629C85.0921 50.7745 84.8195 51.2028 84.8195 51.748C84.8195 52.2672 85.0791 52.6566 85.5983 52.9162C86.1434 53.1758 87.0391 53.4483 88.2851 53.7339C88.5707 53.8118 88.8952 53.9026 89.2586 54.0065C89.6221 54.0844 90.0115 54.1882 90.4268 54.318C92.27 54.8632 93.7238 55.5641 94.7881 56.4208C95.8525 57.2774 96.3847 58.5235 96.3847 60.159C96.3847 62.08 95.6188 63.5857 94.0872 64.676C92.5815 65.7404 90.5437 66.2726 87.9736 66.2726ZM108.805 45.6733C110.881 45.6733 112.556 46.3093 113.828 47.5814C115.1 48.8534 115.736 50.5798 115.736 52.7604V65.5327C115.736 65.6625 115.684 65.7793 115.58 65.8832C115.502 65.9611 115.399 66 115.269 66H110.713C110.583 66 110.466 65.9611 110.362 65.8832C110.284 65.7793 110.245 65.6625 110.245 65.5327V53.8897C110.245 52.8513 109.947 52.0076 109.35 51.3586C108.779 50.7096 108.013 50.3851 107.052 50.3851C106.092 50.3851 105.313 50.7096 104.716 51.3586C104.145 52.0076 103.859 52.8513 103.859 53.8897V65.5327C103.859 65.6625 103.807 65.7793 103.704 65.8832C103.626 65.9611 103.522 66 103.392 66H98.8361C98.7063 66 98.5894 65.9611 98.4856 65.8832C98.4077 65.7793 98.3688 65.6625 98.3688 65.5327V39.2093C98.3688 39.0795 98.4077 38.9756 98.4856 38.8978C98.5894 38.7939 98.7063 38.742 98.8361 38.742H103.392C103.522 38.742 103.626 38.7939 103.704 38.8978C103.807 38.9756 103.859 39.0795 103.859 39.2093V47.815C103.859 47.8929 103.885 47.9448 103.937 47.9708C103.989 47.9967 104.028 47.9838 104.054 47.9318C105.118 46.4262 106.702 45.6733 108.805 45.6733ZM121.455 43.7263C120.573 43.7263 119.833 43.4408 119.236 42.8696C118.665 42.2726 118.379 41.5327 118.379 40.6501C118.379 39.7415 118.665 39.0016 119.236 38.4305C119.807 37.8594 120.547 37.5738 121.455 37.5738C122.364 37.5738 123.104 37.8594 123.675 38.4305C124.246 39.0016 124.532 39.7415 124.532 40.6501C124.532 41.5327 124.233 42.2726 123.636 42.8696C123.065 43.4408 122.338 43.7263 121.455 43.7263ZM119.119 66C118.989 66 118.872 65.9611 118.768 65.8832C118.691 65.7793 118.652 65.6625 118.652 65.5327V46.4132C118.652 46.2834 118.691 46.1795 118.768 46.1017C118.872 45.9978 118.989 45.9459 119.119 45.9459H123.675C123.805 45.9459 123.909 45.9978 123.986 46.1017C124.09 46.1795 124.142 46.2834 124.142 46.4132V65.5327C124.142 65.6625 124.09 65.7793 123.986 65.8832C123.909 65.9611 123.805 66 123.675 66H119.119ZM137.689 45.6733C139.766 45.6733 141.44 46.3093 142.712 47.5814C143.984 48.8534 144.62 50.5798 144.62 52.7604V65.5327C144.62 65.6625 144.568 65.7793 144.464 65.8832C144.386 65.9611 144.283 66 144.153 66H139.597C139.467 66 139.35 65.9611 139.246 65.8832C139.168 65.7793 139.13 65.6625 139.13 65.5327V53.8897C139.13 52.8513 138.831 52.0076 138.234 51.3586C137.663 50.7096 136.897 50.3851 135.936 50.3851C134.976 50.3851 134.197 50.7096 133.6 51.3586C133.029 52.0076 132.743 52.8513 132.743 53.8897V65.5327C132.743 65.6625 132.691 65.7793 132.588 65.8832C132.51 65.9611 132.406 66 132.276 66H127.72C127.59 66 127.473 65.9611 127.37 65.8832C127.292 65.7793 127.253 65.6625 127.253 65.5327V46.4521C127.253 46.3223 127.292 46.2185 127.37 46.1406C127.473 46.0368 127.59 45.9848 127.72 45.9848H132.276C132.406 45.9848 132.51 46.0368 132.588 46.1406C132.691 46.2185 132.743 46.3223 132.743 46.4521V47.815C132.743 47.8929 132.769 47.9448 132.821 47.9708C132.873 47.9967 132.912 47.9838 132.938 47.9318C134.002 46.4262 135.586 45.6733 137.689 45.6733ZM159.607 46.4521C159.607 46.3223 159.646 46.2185 159.724 46.1406C159.828 46.0368 159.945 45.9848 160.074 45.9848H164.63C164.76 45.9848 164.864 46.0368 164.942 46.1406C165.046 46.2185 165.098 46.3223 165.098 46.4521V64.2088C165.098 67.6095 164.111 70.0368 162.138 71.4905C160.191 72.9443 157.673 73.6712 154.584 73.6712C153.675 73.6712 152.663 73.6063 151.547 73.4765C151.287 73.4505 151.157 73.2818 151.157 72.9703L151.313 68.9594C151.313 68.622 151.495 68.4792 151.858 68.5311C152.793 68.6869 153.649 68.7647 154.428 68.7647C156.09 68.7647 157.362 68.4013 158.244 67.6744C159.153 66.9475 159.607 65.7793 159.607 64.1698C159.607 64.0919 159.581 64.053 159.529 64.053C159.477 64.027 159.425 64.04 159.373 64.0919C158.387 65.1563 156.946 65.6885 155.051 65.6885C153.364 65.6885 151.806 65.2861 150.378 64.4813C148.976 63.6506 147.977 62.3267 147.38 60.5095C146.991 59.3153 146.796 57.7707 146.796 55.8756C146.796 53.8507 147.029 52.2023 147.497 50.9302C148.042 49.3467 148.963 48.0746 150.261 47.1141C151.559 46.1536 153.065 45.6733 154.779 45.6733C156.777 45.6733 158.309 46.2704 159.373 47.4646C159.425 47.5165 159.477 47.5424 159.529 47.5424C159.581 47.5165 159.607 47.4646 159.607 47.3867V46.4521ZM159.296 59.0297C159.503 58.2509 159.607 57.1866 159.607 55.8367C159.607 55.0319 159.581 54.4089 159.529 53.9675C159.477 53.5262 159.386 53.1109 159.257 52.7215C159.023 52.0205 158.634 51.4624 158.088 51.047C157.543 50.6057 156.868 50.3851 156.064 50.3851C155.285 50.3851 154.623 50.6057 154.078 51.047C153.532 51.4624 153.13 52.0205 152.87 52.7215C152.507 53.5003 152.325 54.5516 152.325 55.8756C152.325 57.3294 152.481 58.3678 152.793 58.9908C153.026 59.6917 153.429 60.2628 154 60.7042C154.597 61.1195 155.298 61.3272 156.102 61.3272C156.933 61.3272 157.621 61.1195 158.166 60.7042C158.711 60.2628 159.088 59.7047 159.296 59.0297Z" fill="url(#paint0_linear_1019_201)"/>
<defs>
<linearGradient id="paint0_linear_1019_201" x1="80.0403" y1="-21.0353" x2="79.1304" y2="107.001" gradientUnits="userSpaceOnUse">
<stop stop-color="#F19D2D"/>
<stop offset="0.396858" stop-color="#E47526"/>
<stop offset="0.432292" stop-color="#0500FE"/>
<stop offset="0.8125" stop-color="#3B459C"/>
</linearGradient>
</defs>
</svg>
